<?xml version="1.0" encoding="UTF-8" standalone="no"?>
<!-- Created with Inkscape (http://www.inkscape.org/) -->

<svg
   xmlns:dc="http://purl.org/dc/elements/1.1/"
   xmlns:cc="http://creativecommons.org/ns#"
   xmlns:rdf="http://www.w3.org/1999/02/22-rdf-syntax-ns#"
   xmlns:svg="http://www.w3.org/2000/svg"
   xmlns="http://www.w3.org/2000/svg"
   xmlns:sodipodi="http://sodipodi.sourceforge.net/DTD/sodipodi-0.dtd"
   xmlns:inkscape="http://www.inkscape.org/namespaces/inkscape"
   id="svg3036"
   version="1.1"
   inkscape:version="0.48.4 r9939"
   width="200"
   height="272"
   sodipodi:docname="mayhakosvky_nate.jpg">
  <metadata
     id="metadata3042">
    <rdf:RDF>
      <cc:Work
         rdf:about="">
        <dc:format>image/svg+xml</dc:format>
        <dc:type
           rdf:resource="http://purl.org/dc/dcmitype/StillImage" />
        <dc:title></dc:title>
      </cc:Work>
    </rdf:RDF>
  </metadata>
  <defs
     id="defs3040" />
  <sodipodi:namedview
     pagecolor="#ffffff"
     bordercolor="#666666"
     borderopacity="1"
     objecttolerance="10"
     gridtolerance="10"
     guidetolerance="10"
     inkscape:pageopacity="0"
     inkscape:pageshadow="2"
     inkscape:window-width="1412"
     inkscape:window-height="925"
     id="namedview3038"
     showgrid="false"
     inkscape:zoom="2.3933824"
     inkscape:cx="100"
     inkscape:cy="136"
     inkscape:window-x="0"
     inkscape:window-y="34"
     inkscape:window-maximized="0"
     inkscape:current-layer="svg3036" />
  <path
     style="fill:#000000"
     d="m 71.040767,247.50135 c -0.36237,-0.58633 -0.5013,-1.2095 -0.30872,-1.38481 0.19257,-0.17532 27.25622,-0.52055 60.141433,-0.76717 52.63546,-0.39473 59.75643,-0.26979 59.5,1.04394 -0.25345,1.29841 -7.98313,1.53663 -59.48258,1.83321 -41.174593,0.23712 -59.391823,0.0164 -59.850133,-0.72517 z m -0.45859,-4.80878 c 0,-0.81491 13.41217,-1.16429 48.750003,-1.26988 73.19842,-0.21872 71.96214,-0.23314 70.90207,0.82694 -1.25341,1.25341 -119.652073,1.69171 -119.652073,0.44294 z m 28.5,-12.12421 c -0.33991,-0.55 0.0835,-1 0.940983,-1 1.23636,0 1.55902,-1.22453 1.55902,-5.91667 0,-3.79766 -0.44768,-6.09731 -1.25,-6.42105 -0.687503,-0.27741 0.3025,-0.53991 2.2,-0.58333 2.68333,-0.0614 3.18333,0.18772 2.25,1.12105 -0.66,0.66 -1.2,2.01 -1.2,3 0,1.37328 0.79011,1.8 3.33288,1.8 2.75804,0 3.30645,-0.35874 3.17965,-2.07996 -0.0843,-1.14397 -0.73404,-2.43891 -1.44391,-2.87763 -0.83153,-0.51392 -0.006,-0.94764 2.32036,-1.21924 1.98606,-0.23186 3.61102,-0.0619 3.61102,0.37763 0,0.43956 -0.45,0.7992 -1,0.7992 -0.55556,0 -1,2.66667 -1,6 0,3.33333 0.44444,6 1,6 0.55,0 1,0.45 1,1 0,0.55 -1.64474,1 -3.65499,1 -3.374,0 -3.54203,-0.13453 -2.18569,-1.75 1.52225,-1.81307 1.90629,-5.21922 0.59068,-5.23882 -5.52507,-0.0823 -5.75,0.015 -5.75,2.48882 0,1.59762 0.56273,2.5 1.55902,2.5 0.85746,0 1.2809,0.45 0.94098,1 -0.33992,0.55 -1.91492,1 -3.5,1 -1.58508,0 -3.160083,-0.45 -3.500003,-1 z m 16.500003,0.10699 c 0,-0.49116 0.57297,-1.11288 1.27327,-1.38161 0.70031,-0.26873 2.3247,-3.46688 3.60977,-7.10699 1.28507,-3.64012 2.64094,-6.61839 3.01305,-6.61839 0.37211,0 1.76887,3.15 3.10391,7 1.33504,3.85 2.7812,7 3.21368,7 0.43247,0 0.78632,0.45 0.78632,1 0,0.55 -1.35,1 -3,1 -1.65,0 -3,-0.45 -3,-1 0,-0.55 0.3375,-1 0.75,-1 0.4125,0 0.75,-1.03055 0.75,-2.29011 0,-1.91558 -0.43876,-2.22572 -2.68278,-1.89637 -2.70913,0.39761 -4.82964,3.34901 -2.87445,4.00074 2.21445,0.73815 0.92778,2.18574 -1.94277,2.18574 -1.65,0 -3,-0.40186 -3,-0.89301 z m 8.92971,-6.85699 c -0.0387,-0.4125 -0.397,-1.58013 -0.79631,-2.59474 -0.65151,-1.65538 -0.84739,-1.57839 -1.90828,0.75 -1.05572,2.31705 -0.9705,2.59474 0.79632,2.59474 1.08821,0 1.94693,-0.3375 1.90827,-0.75 z m 8.57029,6.75 c -0.33992,-0.55 0.0835,-1 0.94098,-1 1.2388,0 1.55902,-1.23239 1.55902,-6 0,-6.37596 -0.8959,-7.30918 -4.17126,-4.34501 -1.82424,1.65091 -2.45638,0.87526 -1.06343,-1.30485 0.70093,-1.09703 13.31629,-2.39068 13.16623,-1.35014 -0.0397,0.275 -0.45885,1.4 -0.93154,2.5 -0.7349,1.71022 -0.86961,1.74644 -0.92971,0.25 -0.0426,-1.0599 -0.85897,-1.75 -2.07029,-1.75 -1.77778,0 -2,0.66667 -2,6 0,3.33333 0.44444,6 1,6 0.55,0 1,0.45 1,1 0,0.55 -1.32344,1 -2.94098,1 -1.61754,0 -3.2191,-0.45 -3.55902,-1 z m 12.5,0.0499 c 0,-0.57744 0.45,-1.0499 1,-1.0499 1.50378,0 1.26618,-11.72593 -0.25,-12.33772 -0.6875,-0.27741 0.6625,-0.60741 3,-0.73333 2.3375,-0.12592 4.8125,-0.27395 5.5,-0.32895 0.6875,-0.055 1.37463,1.025 1.52695,2.4 0.23962,2.16302 0.13183,2.26411 -0.79969,0.75 -0.59215,-0.9625 -2.17928,-1.75 -3.52695,-1.75 -1.947,0 -2.45031,0.51352 -2.45031,2.5 0,2.66325 1.81562,3.28438 3.8,1.3 0.93333,-0.93333 1.2,-0.55556 1.2,1.7 0,2.25556 -0.26667,2.63333 -1.2,1.7 -2.13443,-2.13443 -3.8,-1.34547 -3.8,1.8 0,2.65544 0.33885,3 2.95031,3 1.733,0 3.39454,-0.72206 4.02695,-1.75 0.93152,-1.51411 1.03931,-1.41302 0.79969,0.75 -0.25524,2.30398 -0.72779,2.52351 -6.02695,2.7999 -3.5393,0.1846 -5.75,-0.10375 -5.75,-0.75 z m 14.46353,-0.10892 c -0.39587,-0.64052 -0.0996,-1.55738 0.65835,-2.03747 2.11381,-1.33887 3.05747,-1.07212 2.70144,0.76362 -0.40244,2.07509 -2.39719,2.83139 -3.35979,1.27385 z m 0.66532,-9.44098 c -0.14787,-4.52521 0.11383,-5.5 1.47656,-5.5 1.35744,0 1.54444,0.67658 1.03644,3.75 -0.34091,2.0625 -0.62479,4.5375 -0.63084,5.5 -0.006,0.9625 -0.39158,1.75 -0.85672,1.75 -0.46514,0 -0.92659,-2.475 -1.02544,-5.5 z M 70.665517,207.18874 c 0.897,-0.81726 119.836643,-1.29992 119.332533,-0.48426 -0.29365,0.47514 -27.35735,0.86388 -60.14155,0.86388 -32.784213,0 -59.420153,-0.17083 -59.190983,-0.37962 z m -0.0833,-4.00441 c 0,-1.3564 1.32518,-1.6179 8.25,-1.62802 6.80594,-0.01 8.96707,-0.42213 12.34664,-2.3549 3.67644,-2.10256 4.20043,-2.17832 5.10855,-0.73865 0.73356,1.16293 1.06608,-0.85344 1.20883,-7.33034 0.10831,-4.914 0.38974,-9.24653 0.6254,-9.62784 0.23567,-0.38131 -0.26233,-2.07806 -1.10665,-3.77055 -1.36067,-2.72752 -1.82084,-2.96862 -4.04905,-2.12146 -3.65855,1.39098 -6.05038,1.17197 -6.05038,-0.554 0,-0.87442 1.55594,-1.97597 3.69725,-2.61752 3.67713,-1.10169 3.69469,-1.13293 3.22767,-5.74021 -0.45586,-4.49715 -1.02454,-7.29478 -3.17761,-15.63248 -0.56811,-2.2 -0.97624,-5.575 -0.90696,-7.5 0.12032,-3.34265 0.14474,-3.36513 0.54334,-0.5 0.22954,1.65 1.28712,6.44998 2.35016,10.66661 1.06305,4.21664 1.93281,8.82914 1.93281,10.25 0,1.42087 0.49815,2.58339 1.10699,2.58339 0.60885,0 0.84797,0.675 0.53139,1.5 -0.31658,0.825 -0.32994,2.14021 -0.0297,2.92268 0.44246,1.15303 0.91035,1.05826 2.46861,-0.5 2.048753,-2.04875 2.581653,-3.44798 0.92268,-2.42268 -0.55,0.33992 -1,-0.0835 -1,-0.94098 0,-0.85746 -0.5625,-1.44652 -1.25,-1.30902 -0.7798,0.15596 -1.32996,-1.06655 -1.46258,-3.25 l -0.21259,-3.5 1.41748,3 c 0.77962,1.65 1.43778,2.4375 1.46259,1.75 0.0248,-0.6875 0.48098,-1.25 1.01372,-1.25 0.532733,0 0.707393,0.68073 0.38812,1.51273 -0.82875,2.1597 1.560633,4.64827 3.785133,3.94224 1.08849,-0.34547 3.06759,0.27005 4.77312,1.4845 2.04037,1.45287 3.03547,1.70914 3.32016,0.85507 0.40368,-1.21103 13.76117,-1.92684 13.76368,-0.73758 6.4e-4,0.30633 -1.23633,1.0528 -2.74883,1.65883 -2.72303,1.09106 -2.72549,1.10031 -0.25,0.94304 1.375,-0.0874 3.08802,-0.94633 3.8067,-1.90883 1.67733,-2.24636 2.3478,-2.20291 5.61061,0.36362 2.45566,1.93162 2.55337,2.26129 1.13486,3.82874 -0.85369,0.94331 -1.55217,2.43038 -1.55217,3.30459 0,0.87421 -0.28762,2.33901 -0.63916,3.25511 -0.51634,1.34554 -0.82273,1.4093 -1.59434,0.33179 -0.71444,-0.99769 -0.81329,-0.8928 -0.39222,0.41615 0.30962,0.9625 0.0949,1.75 -0.47709,1.75 -0.57203,0 -0.3329,0.70714 0.53138,1.57143 1.95409,1.95409 2.0756,3.09188 0.16046,1.50246 -0.98118,-0.81431 -1.61145,-0.84664 -2.0691,-0.10614 -0.36197,0.58568 -1.1535,0.75871 -1.75897,0.38452 -0.73412,-0.45372 -0.86006,-0.0529 -0.37805,1.2032 0.39754,1.03596 0.41484,1.57562 0.0385,1.19923 -1.02938,-1.02933 -4.42141,1.10383 -4.42141,2.78048 0,0.80565 -0.47656,1.46482 -1.05902,1.46482 -0.58246,0 -0.82934,-0.37162 -0.54863,-0.82582 0.28072,-0.45421 -0.99708,-2.24771 -2.83953,-3.98556 -2.62328,-2.47434 -3.47358,-2.83749 -3.91999,-1.67418 -0.89355,2.32856 -4.01781,1.74696 -6.79238,-1.26444 -4.04581,-4.39115 -5.728413,-7.35721 -5.17068,-9.1148 0.44793,-1.41156 0.37132,-1.43005 -0.560123,-0.1352 -0.8927,1.24099 -1.08166,1.25538 -1.09433,0.0833 -0.008,-0.77916 -0.2961,-1.13588 -0.63928,-0.79269 -0.34319,0.34318 0.33181,2.2439 1.5,4.22382 2.444643,4.14338 2.810283,5.7752 0.655763,2.92667 -0.807503,-1.06762 -1.482503,-1.55589 -1.499993,-1.08503 -0.0369,0.99393 4.926883,7.47755 9.886533,12.91357 2.53073,2.7738 3.66428,3.43424 4.29087,2.5 0.51519,-0.76817 0.61161,-0.23276 0.24408,1.35552 -0.54101,2.33805 -0.2709,2.67458 2.46963,3.0768 1.69239,0.2484 3.07708,0.13466 3.07708,-0.25274 0,-1.02367 -2.59654,-3.01938 -3.17534,-2.44057 -0.27023,0.27022 -0.49133,-0.19926 -0.49133,-1.04331 0,-1.04027 1.07379,-0.49387 3.33334,1.69617 3.74212,3.62701 4.55793,2.83698 1.08333,-1.0491 -2.17392,-2.43137 -2.13752,-2.4251 1.07673,0.18555 1.82969,1.48611 4.0532,2.70201 4.94112,2.70201 1.34816,0 1.29428,-0.26084 -0.32672,-1.58164 -1.77628,-1.44731 -1.78556,-1.53223 -0.10934,-1 1.00748,0.3199 2.01998,0.58164 2.25,0.58164 0.23001,0 0.41821,0.57857 0.41821,1.28571 0,0.70715 0.9,1.28572 2,1.28572 1.1,0 2,-0.35357 2,-0.78572 0,-0.43214 0.47656,-0.78571 1.05902,-0.78571 0.58246,0 0.73364,0.52647 0.33595,1.16994 -0.51344,0.83077 -0.16818,0.93063 1.19099,0.34444 1.05272,-0.45403 3.32924,-0.868 5.05892,-0.91994 3.1114,-0.0934 7.35512,-2.94168 7.35512,-4.93652 0,-0.56766 -1.2687,0.18339 -2.81933,1.66899 -1.55064,1.4856 -3.09692,2.42351 -3.43619,2.08424 -0.33927,-0.33927 0.50182,-1.58307 1.86908,-2.764 2.33314,-2.01518 2.38612,-2.27008 0.86203,-4.14715 -0.89315,-1.1 -1.40851,-1.55 -1.14524,-1 0.26327,0.55 -0.49086,1.03886 -1.67584,1.08637 -1.18498,0.0475 -3.05451,0.45123 -4.15451,0.89718 -1.5553,0.63052 -1.74778,0.53698 -0.86567,-0.4207 1.6196,-1.75833 0.47676,-5.06282 -1.75096,-5.06282 -1.05061,0 -1.88337,-0.69931 -1.88337,-1.58156 0,-1.33828 0.5262,-1.25635 3.42082,0.53262 2.1596,1.33471 3.65612,1.73347 4.05902,1.08156 0.35101,-0.56794 -0.16349,-1.03262 -1.14333,-1.03262 -1.49877,0 -1.41877,-0.25408 0.5041,-1.60091 2.1676,-1.51825 2.97243,-2.94613 4.59325,-8.14909 0.52666,-1.69062 0.30144,-2.25 -0.9059,-2.25 -1.33788,0 -1.391,-0.25686 -0.31739,-1.5347 2.85775,-3.40135 3.30179,-4.06923 3.59585,-5.40838 0.24271,-1.10527 0.007,-1.147 -1.13321,-0.20067 -1.14194,0.94773 -1.56573,0.86623 -2.04936,-0.39411 -0.33535,-0.8739 -1.05775,-1.31201 -1.60533,-0.97358 -0.55983,0.34599 -0.75193,-0.0197 -0.43889,-0.83547 0.53611,-1.3971 -1.09577,-3.10603 -2.9963,-3.13778 -0.50416,-0.008 -1.12504,-0.64045 -1.37973,-1.40451 -0.25468,-0.76405 -0.0297,-1.12135 0.5,-0.79398 0.52969,0.32736 0.96307,-0.06 0.96307,-0.86081 0,-0.8008 -0.375,-1.45601 -0.83334,-1.45601 -0.45833,0 -0.83333,0.5051 -0.83333,1.12244 0,0.77144 -0.47293,0.72995 -1.51233,-0.13267 -1.17704,-0.97686 -1.25204,-1.56876 -0.33827,-2.66978 0.95142,-1.1464 1.34093,-1.16864 2.05403,-0.11732 0.6251,0.92159 0.79548,0.71808 0.58827,-0.70267 -0.21869,-1.49938 0.20892,-1.9306 1.7083,-1.72275 1.94133,0.26913 1.94498,0.23386 0.12457,-1.20195 -1.11216,-0.8772 -1.62555,-2.13037 -1.26145,-3.07919 0.33768,-0.87999 0.20375,-1.34645 -0.29764,-1.03658 -0.50138,0.30987 -1.20698,1.90824 -1.568,3.55194 -0.36101,1.64369 -1.11878,2.98853 -1.68392,2.98853 -0.58484,0 -0.7189,-0.75396 -0.31118,-1.75 0.394,-0.9625 0.77964,-2.55438 0.85699,-3.53751 0.0773,-0.98314 0.74959,-2.16341 1.49388,-2.62283 1.05581,-0.65172 1.10303,-1.30284 0.21481,-2.96249 -1.38578,-2.58936 0.33217,-2.92509 1.93,-0.37717 0.94646,1.50925 1.0126,1.43979 0.48074,-0.50493 -0.42101,-1.53939 -0.12067,-2.44527 0.94651,-2.85478 0.85976,-0.32992 1.33778,-0.9646 1.06226,-1.4104 -0.27552,-0.4458 0.51457,-2.08782 1.75574,-3.64893 2.96881,-3.73406 5.18594,-7.71429 3.83051,-6.87659 -0.5906,0.36502 -1.07382,0.26211 -1.07382,-0.22869 0,-1.85856 1.40029,-2.1734 3.04529,-0.68469 1.54294,1.39634 1.76804,1.38785 2.3344,-0.0881 0.8062,-2.10092 -0.20508,-3.73391 -1.90773,-3.08054 -0.72915,0.2798 -1.82742,-0.0958 -2.44058,-0.83459 -1.73359,-2.08884 1.00244,-2.52917 3.92994,-0.63247 1.35373,0.87707 2.13389,1.06326 1.73369,0.41377 -0.4002,-0.6495 -0.29893,-1.44586 0.22505,-1.76969 0.52397,-0.32384 0.8879,-1.44875 0.80872,-2.49982 -0.18869,-2.50498 -1.72878,-1.53149 -1.72878,1.0928 0,2.17346 -2.08459,2.10387 -2.81723,-0.094 -0.24323,-0.72968 0.019,-1.04164 0.58271,-0.69324 0.56372,0.3484 1.27745,-0.0245 1.58606,-0.82878 0.58178,-1.51609 -0.85795,-3.11782 -1.60223,-1.78251 -0.23184,0.41593 -0.28993,0.20814 -0.12909,-0.46174 0.16084,-0.66989 -0.10164,-1.46153 -0.58327,-1.7592 -1.22814,-0.75903 -4.19258,2.41633 -3.42114,3.66455 0.40344,0.65279 0.93645,0.53708 1.46492,-0.31801 0.58078,-0.93972 0.7803,-0.67455 0.6631,0.88133 -0.11042,1.46578 -0.50495,1.88818 -1.15574,1.23739 -1.41614,-1.41614 -2.85145,-1.22096 -1.92604,0.26191 0.91368,1.46407 1.52465,4.75 0.8832,4.75 -0.24321,0 -1.6561,-1.125 -3.13975,-2.5 -2.10712,-1.95281 -3.75996,-2.5 -7.55152,-2.5 -3.64798,-5e-5 -4.85398,-0.37273 -4.85398,-1.50005 0,-0.825 -0.80357,-1.5 -1.78571,-1.5 -1.06494,0 -1.78572,-0.74 -1.78572,-1.83333 0,-1.00834 0.53567,-1.83334 1.19037,-1.83334 0.65471,0 1.00168,0.7125 0.77104,1.58334 -0.23063,0.87083 0.24951,0.15528 1.06698,-1.59012 1.7344,-3.70317 3.54304,-5.14606 3.54304,-2.82655 0,0.88992 -0.45,1.33992 -1,1 -1.10716,-0.68426 -1.38241,0.78426 -0.34201,1.82466 0.91672,0.91672 3.4478,-1.34448 2.75667,-2.46274 -0.30983,-0.50131 0.022,-0.78782 0.73727,-0.6367 0.71532,0.15113 1.45507,-0.73772 1.64388,-1.97522 0.34179,-2.24014 1.64036,-2.97132 2.57919,-1.45225 0.65378,1.05784 -0.14658,2.08048 -4.6598,5.95395 -2.08163,1.78656 -3.26619,3.2483 -2.63235,3.2483 0.63384,0 2.8995,-1.74706 5.0348,-3.88235 2.13529,-2.1353 3.91678,-3.8228 3.95886,-3.75 0.0421,0.0728 0.23332,0.96108 0.42497,1.97398 0.46053,2.43398 1.12414,3.00779 2.49713,2.15923 0.79048,-0.48854 0.60662,-1.2796 -0.60984,-2.62377 -1.28634,-1.42139 -1.44852,-2.21734 -0.6205,-3.04536 0.82802,-0.82802 1.2945,-0.4298 1.78478,1.52363 0.78147,3.11362 2.51829,3.61137 1.92928,0.55291 -0.30549,-1.5863 -0.0158,-1.94322 1.19886,-1.47711 1.35432,0.5197 1.40043,0.37211 0.29852,-0.9556 -0.95495,-1.15065 -1.49844,-1.25427 -2.03395,-0.38779 -0.49722,0.80451 -1.11775,0.45938 -1.94152,-1.07984 -0.9572,-1.78855 -0.94635,-2.42568 0.0518,-3.04258 1.35808,-0.83934 4.02201,-0.19959 3.66231,0.87951 -0.12011,0.36033 0.0719,0.65514 0.42663,0.65514 0.99326,0 4.85499,3.70265 4.85499,4.65499 0,0.46475 -0.45,0.84501 -1,0.84501 -0.55,0 -1.00689,-0.7875 -1.01531,-1.75 -0.0131,-1.49743 -0.1568,-1.53351 -0.99562,-0.25 -0.72974,1.11661 -0.36095,2.01118 1.44291,3.5 1.33276,1.1 2.56829,2.675 2.74561,3.5 0.17733,0.825 0.77241,1.8375 1.32241,2.25 0.63525,0.47644 0.50512,1.06916 -0.35676,1.625 -0.94622,0.61023 -1.02187,1.08198 -0.25,1.55902 0.60872,0.37621 1.10676,0.36271 1.10676,-0.03 0,-0.3927 0.92549,0.12355 2.05664,1.14723 1.51115,1.36757 1.88144,2.53593 1.39608,4.40499 -1.23837,4.76885 -1.20306,5.54411 0.33249,7.29988 0.84472,0.96587 1.23862,2.05337 0.87533,2.41667 -0.3633,0.36329 -0.66743,0.023 -0.67585,-0.75613 -0.0126,-1.16647 -0.18652,-1.15175 -0.98469,0.0833 -0.86167,1.33333 -0.97181,1.33333 -0.99128,0 -0.0125,-0.8562 -0.85303,-0.23918 -1.95837,1.43762 -1.06506,1.61569 -1.71054,3.30319 -1.4344,3.75 0.27615,0.44681 0.0818,0.81238 -0.43193,0.81238 -1.58087,0 -1.03211,-4.98811 0.69098,-6.28085 0.89375,-0.67053 1.67888,-2.23165 1.74474,-3.46915 0.16535,-3.10718 -0.52714,-2.81408 -1.76917,0.74881 -0.57497,1.64935 -1.47341,2.73429 -1.99654,2.41098 -0.59973,-0.37066 -0.59516,-1.01678 0.0124,-1.74882 0.94781,-1.14204 1.1336,-1.73263 1.1336,-3.60355 0,-0.51842 0.9,-0.76926 2,-0.55742 2.51545,0.48443 2.49549,-0.33843 -0.0849,-3.5 -1.79388,-2.1979 -1.97128,-2.25009 -1.46811,-0.43191 0.42432,1.53327 -0.33527,2.82483 -2.93732,4.99439 -1.93031,1.60947 -3.50965,3.29848 -3.50965,3.75335 0,0.45486 -0.675,1.50203 -1.5,2.32703 -0.825,0.825 -1.46447,2.03035 -1.42105,2.67857 0.0555,0.82922 0.22846,0.80804 0.58333,-0.0714 0.92951,-2.30357 2.06622,-1.28055 1.55406,1.39862 -0.33877,1.77219 -0.14189,2.4234 0.595,1.96798 0.60572,-0.37436 0.81949,-1.41506 0.47505,-2.31267 -0.43451,-1.1323 -0.24716,-1.39772 0.61184,-0.86682 0.68097,0.42085 0.97652,1.50717 0.65679,2.41404 -0.31974,0.90687 0.35479,0.52385 1.49894,-0.85115 l 2.08027,-2.5 -1.23609,2.5 c -0.67986,1.375 -1.16006,2.6125 -1.06712,2.75 0.68704,1.01645 -0.0539,1.42712 -0.95288,0.52814 -0.61702,-0.61702 -1.63378,-0.92541 -2.25947,-0.68531 -0.62568,0.2401 -1.83133,-0.70677 -2.67921,-2.10415 l -1.54161,-2.5407 -0.10548,3.7211 c -0.0662,2.33611 -0.7916,4.25329 -1.94892,5.15098 -1.75071,1.35795 -1.73478,1.40434 0.31662,0.92205 1.95431,-0.45946 2.11872,-0.17455 1.72607,2.9912 -0.36536,2.94571 -0.17063,3.39797 1.23138,2.85997 1.41477,-0.5429 1.46927,-0.40279 0.36219,0.93116 -0.85831,1.0342 -1.52912,1.20464 -1.96506,0.49926 -0.42592,-0.68915 -1.26969,-0.39937 -2.3667,0.81281 -1.91997,2.12155 -1.25485,4.7893 2.28464,9.16349 1.64888,2.03774 2.02705,2.17641 2.04517,0.75 0.0122,-0.9625 -0.50276,-1.75 -1.14443,-1.75 -2.87789,0 0.61152,-1.40837 3.90486,-1.57605 2.02565,-0.10313 3.85073,-0.69071 4.05574,-1.30573 0.205,-0.61502 1.23524,-1.11822 2.2894,-1.11822 1.05417,0 1.91667,-0.47656 1.91667,-1.05902 0,-0.58246 -0.51953,-0.73793 -1.15451,-0.34549 -0.66719,0.41235 -0.88482,0.27716 -0.51558,-0.32027 0.73743,-1.19319 4.68766,-2.41337 4.63465,-1.4316 -0.0195,0.36101 -0.67854,1.78138 -1.46456,3.15638 -1.59352,2.78758 -2.02126,5.35398 -0.5,3 0.78609,-1.21638 0.97227,-1.08051 0.98469,0.71862 0.0115,1.66371 -0.42238,2.07781 -1.73469,1.65566 -1.47714,-0.47517 -1.51612,-0.3947 -0.25,0.51607 2.54704,1.83221 3.23486,1.24715 2.81021,-2.39035 -0.22474,-1.925 -0.0811,-3.5 0.31916,-3.5 0.40028,0 1.40737,-0.6796 2.23799,-1.51022 1.34695,-1.34695 1.44748,-1.10371 0.92989,2.25 -0.31918,2.06812 -0.30181,3.5079 0.0386,3.1995 0.66124,-0.59905 1.46775,-4.27604 1.58984,-7.2483 0.0409,-0.99496 0.54261,-1.51959 1.11499,-1.16584 0.57237,0.35375 0.76789,1.6178 0.43449,2.80902 -0.47973,1.71403 -0.3871,1.85293 0.44401,0.66584 0.9053,-1.29305 1.05231,-1.25855 1.06551,0.25 0.008,0.9625 -0.48347,1.75 -1.0931,1.75 -0.69385,0 -0.86475,0.97081 -0.45694,2.59565 0.36415,1.4509 0.15348,3.19569 -0.47768,3.9562 -0.62103,0.7483 -0.79681,1.89828 -0.39061,2.55552 0.4062,0.65725 0.80918,5.59002 0.89552,10.96173 0.096,5.97497 0.62905,10.33554 1.37292,11.23185 0.66877,0.80581 4.19561,3.20525 7.83743,5.33208 5.08604,2.97026 7.68891,3.86697 11.22463,3.86697 5.13029,0 6.74822,1.70567 2.4027,2.533 -1.53976,0.29315 -9.77456,0.48453 -18.29956,0.42529 l -15.5,-0.10771 0.21392,-3.42529 c 0.15568,-2.49282 -0.0443,-3.01694 -0.73469,-1.92529 -0.52173,0.825 -0.9555,2.2875 -0.96392,3.25 -0.008,0.9625 -0.12781,1.77714 -0.26531,1.81032 -0.1375,0.0332 -18.3625,0.31036 -40.5,0.61596 -36.624103,0.50561 -40.250023,0.41009 -40.250023,-1.0603 z m 25,-1.61597 c 0,-0.55 -0.19844,-1 -0.44098,-1 -0.24254,0 -0.7191,0.45 -1.05902,1 -0.33991,0.55 -0.14147,1 0.44099,1 0.58246,0 1.05901,-0.45 1.05901,-1 z m 8.437563,-3.069 c -3.18785,-3.52253 -5.036473,-4.11939 -4.976333,-1.6067 0.0647,2.70231 1.391563,4.88472 2.538773,4.1757 0.47399,-0.29294 1.16869,-0.0361 1.54377,0.57082 0.48179,0.77956 0.99413,0.79128 1.74547,0.0399 0.75134,-0.75134 0.50135,-1.68468 -0.85168,-3.17976 z m -0.85423,2.319 c -0.4125,-0.4125 -1.2375,-0.75 -1.83333,-0.75 -0.59583,0 -1.27083,-0.5625 -1.500003,-1.25 -0.63875,-1.91625 1.226653,-1.48577 3.250003,0.75 1.68288,1.85957 1.7536,2.92026 0.0833,1.25 z m 46.46704,-2.77397 c -0.8882,-2.94494 -0.89576,-2.93742 -0.72397,0.72059 0.0955,2.03314 0.49939,3.37236 0.89757,2.97603 0.39818,-0.39632 0.32006,-2.0598 -0.1736,-3.69662 z m 8.04005,-0.6465 c -0.59973,-1.72039 -1.07611,-3.84833 -1.05862,-4.72875 0.0276,-1.39133 0.20668,-1.37035 1.36835,0.16031 1.19372,1.57289 1.47272,1.59702 2.6107,0.22583 0.70078,-0.84439 1.49915,-1.31025 1.77415,-1.03525 0.275,0.275 -0.0692,1.18587 -0.76494,2.02416 -0.7202,0.86779 -0.82764,1.52417 -0.24949,1.52417 1.84369,0 2.2392,-3.08042 0.76224,-5.93656 -0.79918,-1.54543 -1.13349,-3.19963 -0.74293,-3.676 0.39057,-0.47637 -0.27203,-0.0411 -1.47244,0.96717 -1.36272,1.14465 -1.94975,2.45537 -1.56277,3.48935 0.54348,1.45215 0.40796,1.48367 -1.10075,0.25595 -1.6128,-1.31242 -1.5823,-1.54724 0.48708,-3.75 1.2142,-1.29245 2.70842,-2.34991 3.32051,-2.34991 0.61208,0 1.18068,-0.9 1.26354,-2 0.0829,-1.1 -0.29794,-2 -0.84622,-2 -0.54827,0 -0.75026,0.39901 -0.44886,0.88669 0.30141,0.48768 -0.082,1.40954 -0.85195,2.04856 -0.9832,0.81598 -1.59745,0.84233 -2.06332,0.0885 -0.36485,-0.59033 -0.0674,-0.94968 0.66097,-0.79856 0.80975,0.16801 1.27853,-0.59068 1.20647,-1.95257 -0.0648,-1.22504 0.27267,-1.98599 0.75,-1.69098 0.47732,0.295 0.91433,-0.0527 0.97113,-0.77265 0.0568,-0.71996 0.24524,-3.00049 0.41877,-5.06784 0.19222,-2.29001 -0.0702,-3.52046 -0.67144,-3.14884 -0.54282,0.33548 -0.73642,1.26282 -0.43023,2.06075 0.3062,0.79793 0.17513,1.21495 -0.29125,0.92671 -0.46639,-0.28824 -0.71709,0.70088 -0.55711,2.19806 0.26577,2.48721 0.17562,2.56594 -1.04457,0.9123 -0.8425,-1.14179 -1.57722,-1.41863 -1.99046,-0.75 -0.36026,0.58291 -0.17846,1.05984 0.404,1.05984 1.35405,0 1.3903,4.67723 0.0427,5.51008 -0.55897,0.34546 -0.75742,1.04702 -0.44098,1.55902 0.31643,0.51199 -0.0137,0.93779 -0.73369,0.94621 -1.0597,0.0124 -1.05497,0.17636 0.0248,0.86084 1.0866,0.6888 1.05758,0.95153 -0.15654,1.41744 -0.99547,0.38199 -1.89819,-0.41262 -2.71845,-2.39291 -0.67543,-1.63064 -1.42567,-2.7672 -1.6672,-2.52568 -0.24152,0.24153 0.2019,1.71846 0.98538,3.28207 0.78348,1.56361 2.26468,6.14888 3.29155,10.1895 1.02687,4.04061 2.03471,6.84354 2.23964,6.22875 0.20493,-0.6148 -0.11808,-2.52541 -0.71781,-4.24579 z m 0.90958,-5.20709 c 0,-0.20765 0.7875,-0.99515 1.75,-1.75 1.58606,-1.24387 1.62143,-1.2085 0.37756,0.37756 -1.30637,1.66575 -2.12756,2.19548 -2.12756,1.37244 z m 4,9.93658 c 0,-0.24254 -0.45,-0.7191 -1,-1.05902 -0.55,-0.33992 -1,-0.14148 -1,0.44098 0,0.58246 0.45,1.05902 1,1.05902 0.55,0 1,-0.19844 1,-0.44098 z m 4.68311,-2.74652 c -0.31922,-0.79773 -0.55618,-0.56078 -0.60416,0.60417 -0.0434,1.05416 0.19292,1.64479 0.52522,1.3125 0.33229,-0.3323 0.36781,-1.1948 0.0789,-1.91667 z m 2.67852,-0.3125 c 0.31658,-0.825 0.13972,-1.5 -0.39301,-1.5 -0.53274,0 -0.96862,0.675 -0.96862,1.5 0,0.825 0.17686,1.5 0.39301,1.5 0.21616,0 0.65203,-0.675 0.96862,-1.5 z m -63.38555,-4.53359 c -1.97832,-2.77829 -4.97608,-5.59205 -4.97608,-4.67064 0,1.52721 1.3091,3.63123 1.9954,3.20707 0.43221,-0.26712 1.52043,0.63547 2.41827,2.00575 1.90377,2.90553 1.1194,3.22552 -1.83493,0.74856 -1.49329,-1.25199 -1.39313,-0.96734 0.35563,1.01071 3.08067,3.48459 4.78986,1.55796 2.04171,-2.30145 z m 47.84724,0.37807 c -0.17782,-0.91054 -1.11296,-1.77104 -2.07808,-1.91222 -0.96512,-0.14118 -1.49653,0.16115 -1.1809,0.67184 0.31562,0.51069 1.06923,0.62236 1.6747,0.24817 0.70838,-0.43781 0.87319,-0.0871 0.46228,0.98369 -0.3512,0.91522 -0.16968,1.66404 0.40339,1.66404 0.57307,0 0.89644,-0.74499 0.71861,-1.65552 z m -4.82332,-1.84448 c 0,-0.825 -0.17686,-1.5 -0.39301,-1.5 -0.21616,0 -0.65203,0.675 -0.96862,1.5 -0.31658,0.825 -0.13972,1.5 0.39301,1.5 0.53274,0 0.96862,-0.675 0.96862,-1.5 z m -8,-3.05902 c 0,-0.85746 0.45734,-1.27636 1.01631,-0.9309 0.55897,0.34546 0.75742,1.04702 0.44098,1.55902 -0.31643,0.51199 -0.12532,0.9309 0.42468,0.9309 0.55,0 1.3078,-0.49804 1.68401,-1.10676 0.47683,-0.77153 0.94441,-0.69581 1.54371,0.25 0.68482,1.08079 0.8628,1.0905 0.875,0.0477 0.008,-0.71996 0.46531,-1.0309 1.01531,-0.69098 0.55,0.33992 1.00689,0.029 1.01531,-0.69098 0.0124,-1.0597 0.17636,-1.05497 0.86084,0.0248 0.66518,1.04935 0.99312,0.9492 1.53754,-0.46952 0.38061,-0.99185 0.37214,-1.48349 -0.0188,-1.09253 -0.39096,0.39097 -1.31475,0.20965 -2.05285,-0.40292 -1.00467,-0.83371 -1.34204,-0.78963 -1.34204,0.17541 0,0.70901 -0.28417,1.00495 -0.63148,0.65763 -0.34732,-0.34732 -1.44501,-0.1961 -2.43931,0.33604 -1.14215,0.61126 -2.0246,0.61678 -2.39653,0.015 -0.32378,-0.52389 0.43641,-1.48587 1.68931,-2.13773 1.25291,-0.65185 4.69574,-3.81685 7.65075,-7.03333 2.95501,-3.21648 5.83703,-5.56119 6.40451,-5.21047 0.58972,0.36446 0.73075,0.15061 0.32918,-0.49914 -0.38642,-0.62525 0.44405,-2.82424 1.84549,-4.88665 1.40144,-2.0624 2.54808,-4.08125 2.54808,-4.48631 0,-1.49221 -3.00512,0.47076 -3.15019,2.05774 -0.0826,0.90364 -0.46502,-0.382 -0.84981,-2.857 l -0.69961,-4.5 -0.16551,5.5 c -0.11914,3.95905 -0.4371,5.07974 -1.13488,4 -0.789,-1.22089 -0.97222,-1.09463 -0.98469,0.67857 -0.008,1.19822 -0.69031,2.85357 -1.51531,3.67857 -0.825,0.825 -1.53553,2.09465 -1.57895,2.82143 -0.0558,0.9344 -0.22126,0.97156 -0.56485,0.12687 -0.26725,-0.65701 0.009,-2.11951 0.61413,-3.25 0.73593,-1.3751 0.7574,-2.05544 0.0649,-2.05544 -0.56935,0 -1.03518,0.45 -1.03518,1 0,0.55 -0.42941,1 -0.95424,1 -1.16822,0 -0.44398,-6.38739 1.03827,-9.15701 0.59291,-1.10786 0.81655,-2.27574 0.49699,-2.5953 -0.31961,-0.31956 -0.58107,-0.056 -0.58107,0.58564 0,0.64167 -0.675,1.16667 -1.5,1.16667 -0.825,0 -1.5,0.47656 -1.5,1.05902 0,0.58246 0.5625,0.77409 1.25,0.42584 0.6875,-0.34825 0.37649,0.0752 -0.69113,0.94098 -1.41166,1.14479 -1.54805,1.57834 -0.5,1.58947 0.85607,0.009 1.03515,0.31358 0.44113,0.75 -0.55,0.40408 -1.045,1.29719 -1.1,1.98469 -0.2347,2.93374 -0.45828,3.33201 -1.50676,2.68402 -0.79199,-0.48948 -0.76363,-0.89609 0.0997,-1.42966 0.93125,-0.57555 0.89858,-1.33161 -0.14324,-3.31425 -1.29592,-2.46624 -1.35718,-2.35653 -1.53706,2.75295 -0.12332,3.50272 -1.18298,7.41189 -3.10036,11.43749 -1.60215,3.36378 -2.30534,5.61164 -1.56265,4.99526 0.95199,-0.79008 1.35036,-0.79995 1.35036,-0.0334 0,1.19844 -4.01612,3.72179 -5.32433,3.34531 -0.45338,-0.13048 -0.53932,0.22392 -0.19098,0.78754 1.00025,1.61845 4.51531,1.20256 4.51531,-0.53424 z m 7.94483,-12.12524 c 1.36338,-2.82228 1.33474,-3.60656 -0.0993,-2.72025 -0.72104,0.44563 -0.88282,0.27393 -0.4309,-0.45729 0.73033,-1.18171 2.58541,-0.65814 2.58541,0.72969 0,0.41242 -0.69982,1.62336 -1.55517,2.69098 -1.50228,1.87512 -1.51928,1.86685 -0.5,-0.24313 z m -2.86588,-1.89907 c 0.048,-1.16495 0.28494,-1.4019 0.60416,-0.60417 0.28887,0.72187 0.25335,1.58437 -0.0789,1.91667 -0.3323,0.33229 -0.56864,-0.25834 -0.52522,-1.3125 z m -29.05314,6.57655 c -0.51907,-2.20833 -0.85874,-2.6957 -0.92345,-1.32501 -0.10286,2.17891 0.88477,5.67799 1.44462,5.11814 0.16495,-0.16495 -0.0696,-1.87186 -0.52117,-3.79313 z m -9.00583,0.75678 c 0.98794,-2.03866 0.95665,-2.08459 -0.33317,-0.48891 -1.27964,1.5831 -1.55381,1.60409 -2.71278,0.20762 -1.82082,-2.19396 -0.3447,-3.19575 5.83686,-3.96125 4.11069,-0.50906 5.88993,-0.27829 7.87313,1.02115 1.40922,0.92337 2.25526,1.18217 1.88009,0.57512 -0.91507,-1.48062 0.72983,-1.40979 2.23589,0.0963 0.93333,0.93333 1.2,0.92636 1.2,-0.0314 0,-0.67727 -0.675,-1.44227 -1.5,-1.7 -4.7305,-1.47786 -5.10294,-1.75483 -3,-2.23099 1.1,-0.24906 2.5728,-0.91807 3.27289,-1.48668 0.97147,-0.78902 1.12673,-0.58594 0.65567,0.85761 -0.5081,1.55705 -0.42646,1.62625 0.46179,0.39144 0.95913,-1.33333 1.09388,-1.33333 1.21276,0 0.0735,0.825 0.0693,1.87095 -0.009,2.32433 -0.0787,0.45338 0.34437,0.523 0.94028,0.1547 0.74909,-0.46296 0.64279,-1.33461 -0.34444,-2.82432 -1.28183,-1.93427 -2.46437,-2.18387 -11.5587,-2.43969 -5.64594,-0.15882 -10.13125,-0.71225 -10.13125,-1.25001 0,-0.94716 1.52262,-1.38742 3.5,-1.01201 0.55279,0.10494 0.49237,-0.32737 -0.1351,-0.96668 -0.85799,-0.87418 -1.89298,-0.76461 -4.23952,0.44883 -1.70743,0.88295 -3.43539,1.5625 -3.839903,1.5101 -0.40451,-0.0524 -0.90141,0.40255 -1.10423,1.01099 -0.20281,0.60844 0.23594,0.97969 0.975,0.825 0.830003,-0.17372 1.367723,0.67457 1.406443,2.21875 0.0345,1.375 0.58079,2.3929 1.21401,2.262 0.63323,-0.13091 0.93368,0.32917 0.66766,1.02239 -0.48552,1.26524 2.43195,5.67756 3.77046,5.70236 0.39315,0.007 1.20547,-0.99925 1.80516,-2.23675 z m -2.39104,-6.26392 c -2.28347,-2.28347 -2.07442,-2.51931 1.62106,-1.82884 3.24028,0.60542 6.23016,2.34276 4.03179,2.34276 -0.61502,0 -1.772,0.25088 -2.57106,0.55751 -0.79907,0.30663 -2.18587,-0.17551 -3.08179,-1.07143 z m 14.55439,6.29725 c -0.71756,-0.71756 -1.18333,-0.7766 -1.18333,-0.15 0,1.33478 1.18261,2.51739 1.85,1.85 0.28417,-0.28416 -0.0158,-1.04916 -0.66667,-1.7 z m -5.18333,-1.28333 c 0,-1.375 -0.17254,-2.5 -0.38342,-2.5 -0.21089,0 -0.59848,1.125 -0.86133,2.5 -0.26285,1.375 -0.0903,2.5 0.38342,2.5 0.47373,0 0.86133,-1.125 0.86133,-2.5 z m -2.22917,-0.3125 c 0.21771,-0.65313 -0.11822,-1.1875 -0.74651,-1.1875 -0.6283,0 -0.88799,0.41157 -0.57711,0.91459 0.31089,0.50302 0.1012,1.14427 -0.46598,1.425 -0.56718,0.28073 -0.4856,0.40353 0.18127,0.27291 0.66688,-0.13063 1.39062,-0.77188 1.60833,-1.425 z m 43.26337,-1.64629 c -0.55927,-0.67388 -0.79575,-1.52132 -0.52552,-1.88322 0.27022,-0.36189 0.18215,-0.42382 -0.19572,-0.13762 -1.34137,1.01597 -1.00401,4.29831 0.38692,3.76455 0.94398,-0.36223 1.04473,-0.88772 0.33432,-1.74371 z m -1.0342,-12.04121 c 0,-0.825 -0.45,-1.5 -1,-1.5 -0.55,0 -1,0.675 -1,1.5 0,0.825 0.45,1.5 1,1.5 0.55,0 1,-0.675 1,-1.5 z m -15,-18.61803 c 0,-0.55 -0.45,-0.72189 -1,-0.38197 -0.55,0.33992 -1,1.06803 -1,1.61803 0,0.55 0.45,0.72189 1,0.38197 0.55,-0.33992 1,-1.06803 1,-1.61803 z m 17,-24.69084 c 0,-0.44488 -0.63247,-1.67382 -1.40548,-2.73098 -1.31464,-1.79788 -1.37174,-1.7456 -0.88343,0.80887 0.46553,2.43525 2.28891,3.96644 2.28891,1.92211 z m -14.82035,-3.47467 c -0.63381,-0.76369 -0.71453,-1.851 -0.19931,-2.68465 0.57491,-0.93023 0.13559,-2.29994 -1.3072,-4.0756 l -2.17314,-2.67448 -2.75,1.92723 c -1.5125,1.05997 -2.75,2.41633 -2.75,3.01412 0,0.59779 0.82293,0.34215 1.82874,-0.56809 1.99166,-1.80243 3.76276,-2.12498 4.56252,-0.83093 0.28012,0.45323 -0.43528,0.79073 -1.58977,0.75 -1.15449,-0.0407 -2.29462,0.48844 -2.53361,1.17594 -0.239,0.6875 0.20821,1.25 0.9938,1.25 0.78559,0 2.24283,0.9 3.23832,2 1.97775,2.18539 4.44658,2.84549 2.67965,0.71646 z m 7.09053,-8.95634 c -2.51433,-2.6244 -5.05095,-3.83245 -3.80119,-1.81029 0.32287,0.5224 -0.33818,1.44498 -1.46899,2.05017 -1.13081,0.60519 -1.7911,1.52899 -1.46732,2.05288 0.37173,0.60147 1.25704,0.59484 2.40214,-0.018 1.37223,-0.73439 2.25194,-0.48599 3.61569,1.02093 1.3649,1.5082 1.99174,1.68485 2.58314,0.72794 0.4836,-0.78249 -0.22582,-2.31429 -1.86347,-4.02363 z m -0.30795,1.69437 c -0.70546,-0.85003 -1.99806,-1.27337 -2.87244,-0.94075 -1.28133,0.48742 -1.34511,0.35827 -0.32868,-0.66561 1.01864,-1.0261 1.68624,-0.84522 3.47222,0.94076 1.21611,1.21611 1.94121,2.21111 1.61134,2.21111 -0.32988,0 -1.17698,-0.69548 -1.88244,-1.54551 z m -20.07909,85.6389 c 1.00865,-0.63881 0.46713,-1.07969 -2,-1.6283 l -3.38314,-0.7523 4.25,-1.81539 c 2.3375,-0.99846 4.25,-2.02633 4.25,-2.28414 0,-0.25782 -2.5875,-0.24013 -5.75,0.0393 -3.81478,0.33706 -5.29204,0.18571 -4.3893,-0.44969 0.74838,-0.52675 2.27719,-0.71807 3.39735,-0.42514 1.78931,0.46792 1.95317,0.19997 1.34922,-2.20635 -0.4503,-1.79415 -0.32866,-2.51722 0.35265,-2.09615 0.57204,0.35354 1.04008,1.29125 1.04008,2.08379 0,0.79254 0.43588,1.44098 0.96862,1.44098 0.53273,0 0.71528,-0.7875 0.40566,-1.75 -0.40351,-1.25439 -0.30118,-1.3864 0.36134,-0.46613 0.56198,0.78061 1.67691,1.00121 2.84433,0.56277 1.76003,-0.661 1.79504,-0.56488 0.42005,1.15336 -1.37932,1.72365 -1.33909,1.81897 0.5,1.18478 1.96913,-0.67904 1.97004,-0.6665 0.0589,0.81277 -1.07696,0.83357 -1.38458,1.50245 -0.69098,1.50245 0.68758,0 0.97203,0.45 0.63211,1 -0.85815,1.38851 0.11376,1.25109 3.48631,-0.49292 1.58785,-0.82111 3.59016,-1.2231 4.44957,-0.89331 1.30856,0.50214 1.19694,0.88315 -0.68666,2.34383 -3.20569,2.48593 -6.83406,4.29089 -7.42923,3.69572 -0.2798,-0.27979 1.22124,-1.42136 3.33565,-2.53682 2.1144,-1.11546 3.4919,-2.048 3.06112,-2.0723 -0.43079,-0.0243 -3.00333,1.0808 -5.71676,2.4558 -4.73749,2.40067 -7.99141,3.41394 -5.11686,1.59339 z m 3.61686,-2.09339 c 0.33992,-0.55 0.11492,-1 -0.5,-1 -0.61492,0 -0.81217,-0.4949 -0.43834,-1.09977 0.43805,-0.70878 -0.16312,-0.66062 -1.69098,0.13546 -3.36869,1.75522 -3.75582,2.33136 -0.99545,1.4814 1.62997,-0.50188 2.16054,-0.38398 1.69098,0.37578 -0.37633,0.60892 -0.23424,1.10713 0.31576,1.10713 0.55,0 1.27811,-0.45 1.61803,-1 z M 130.28419,184.937 c -0.34725,-0.34725 0.0277,-1.57238 0.83334,-2.72251 0.80558,-1.15013 1.46469,-3.06091 1.46469,-4.24619 0,-1.18528 0.675,-2.71525 1.5,-3.39994 1.81262,-1.50434 2.00474,0.034 0.25,2.00177 -1.06341,1.19253 -0.98877,1.20411 0.5,0.0776 2.24168,-1.69627 2.20253,-2.68857 -0.22799,-5.77847 -1.56833,-1.99382 -1.75465,-2.93192 -0.89961,-4.52957 0.86938,-1.62445 0.67132,-2.42202 -1.02201,-4.11535 -1.15522,-1.15525 -2.10039,-1.57278 -2.10039,-0.92789 0,0.64489 0.69326,1.5605 1.54058,2.03468 0.93449,0.52297 1.28582,1.52606 0.89301,2.54969 -0.75396,1.96481 -2.42653,2.26364 -2.4489,0.43754 -0.0109,-0.89259 -0.26825,-0.85053 -0.89992,0.14708 -0.9462,1.49436 -8.30951,0.92871 -8.84558,-0.67952 -0.38075,-1.14225 -6.21506,-0.64169 -7.50024,0.64349 -0.71019,0.71019 -1.64957,0.72197 -2.92992,0.0367 -1.03652,-0.55473 -2.76758,-0.72834 -3.8468,-0.38581 -1.11305,0.35327 -1.96223,0.16086 -1.96223,-0.4446 0,-0.58707 0.5625,-1.07428 1.25,-1.0827 0.95408,-0.0117 0.96658,-0.19549 0.0528,-0.7764 -1.32085,-0.83967 -0.49038,-2.57349 1.41122,-2.94629 0.75097,-0.14723 0.97082,0.39575 0.57639,1.4236 -0.48172,1.25537 -0.22843,1.5046 1.03599,1.01939 0.92049,-0.35322 1.67361,-0.20634 1.67361,0.32639 0,0.53274 0.72508,0.96862 1.61129,0.96862 1.28935,0 1.48445,-0.67612 0.97645,-3.38398 -0.48521,-2.58642 -0.25648,-3.52916 0.9705,-4 2.93136,-1.12486 3.77214,-0.63857 2.09675,1.21272 -2.24837,2.48442 -2.08409,4.74269 0.34501,4.74269 1.1,0 2,-0.35357 2,-0.78572 -10e-6,-0.43209 -0.73011,-0.78566 -1.62245,-0.78566 -1.3288,0 -1.39713,-0.27149 -0.37756,-1.5 0.68469,-0.825 1.84896,-1.5 2.58726,-1.5 1.64011,0 3.41274,-3.113 3.41274,-5.99328 0,-1.27537 0.43458,-1.85617 1.08712,-1.45288 0.59791,0.36953 0.84529,1.63359 0.54973,2.80902 -0.52331,2.08119 -0.49941,2.08632 0.91289,0.19601 1.96201,-2.62609 1.8555,-3.0532 -1.09679,-4.39835 -3.31929,-1.51237 -3.15832,-1.61265 -2.95295,1.83948 0.2076,3.48969 0.28526,3.45743 -3.54966,1.47432 -3.49727,-1.80851 -3.86642,-2.85955 -0.70034,-1.99396 1.94205,0.53095 2.01049,0.46494 0.5,-0.4823 -0.9625,-0.60359 -1.75,-1.95272 -1.75,-2.99806 0,-1.04534 0.7875,-2.3593 1.75,-2.9199 1.57271,-0.91602 1.52804,-1.02236 -0.44098,-1.04969 -1.20504,-0.0167 -2.46592,-0.47526 -2.80194,-1.01896 -0.35034,-0.56686 0.0511,-0.7345 0.94098,-0.39301 1.98646,0.76228 1.97874,-0.0488 -0.0195,-2.04701 -1.42856,-1.42857 -1.38311,-1.57143 0.50001,-1.57143 1.47695,0 2.07582,0.64573 2.08674,2.25 0.0124,1.81944 0.20082,1.96296 0.98469,0.75 0.53316,-0.825 0.97627,-1.13036 0.98469,-0.67857 0.008,0.45178 0.71603,0.12071 1.57246,-0.73572 1.40952,-1.40952 1.7592,-1.3689 3.68856,0.42857 1.17228,1.09215 2.50536,1.98572 2.96241,1.98572 0.45705,0 0.63197,1.09753 0.38873,2.43896 -0.35198,1.94103 -0.10078,2.31831 1.23044,1.848 0.91999,-0.32503 2.40461,-1.21699 3.29915,-1.98213 1.31143,-1.12172 1.72296,-1.13968 2.12471,-0.0927 0.57854,1.50766 -1.70517,4.00056 -2.72793,2.9778 -0.37944,-0.37944 -0.53989,-0.0149 -0.35655,0.81011 0.18333,0.825 0.70408,1.77211 1.15722,2.10468 0.45314,0.33258 0.14457,1.28401 -0.68572,2.11429 -1.11346,1.11346 -1.21595,1.80325 -0.39055,2.62865 0.61548,0.61548 0.83298,1.40512 0.48333,1.75476 -0.93492,0.93492 -3.9655,-2.41386 -3.24277,-3.58325 0.35564,-0.57544 -0.0398,-0.74468 -0.93624,-0.40069 -1.72161,0.66061 -2.12044,2.38152 -0.55194,2.38152 0.55,0 1,0.49814 1,1.10699 0,0.60884 -0.66842,0.85049 -1.48537,0.537 -1.2424,-0.47676 -1.28484,-0.2489 -0.25945,1.39301 0.67425,1.07965 1.90517,1.95611 2.73537,1.94769 1.31857,-0.0134 1.32342,-0.13296 0.0384,-0.94563 -0.80907,-0.51167 -1.21136,-1.19 -0.89397,-1.50738 0.86079,-0.86079 8.51456,6.88995 10.3954,10.52709 1.23139,2.38123 1.30622,3.04313 0.30271,2.67726 -0.73321,-0.26732 -1.20945,-1.02573 -1.05832,-1.68536 0.15112,-0.65963 -0.18638,-0.91432 -0.75,-0.56598 -1.34248,0.82969 -1.30049,1.09674 0.44729,2.84453 1.2961,1.29609 1.23633,1.77177 -0.5,3.97915 -1.08464,1.3789 -1.97207,2.96595 -1.97207,3.52678 0,0.56083 -1.10974,1.89261 -2.46609,2.95951 -1.35635,1.06691 -2.18135,2.22457 -1.83333,2.57259 0.34801,0.34801 0.40775,0.63275 0.13275,0.63275 -0.275,0 -0.78411,-0.28411 -1.13136,-0.63136 z m -4.84029,-21.03531 c -0.60861,-0.73333 -1.78157,-1.33333 -2.60657,-1.33333 -1.13662,0 -1.23193,0.32301 -0.39343,1.33333 0.60861,0.73334 1.78157,1.33334 2.60657,1.33334 1.13661,0 1.23193,-0.32301 0.39343,-1.33334 z m -2.80022,-2.79535 c 0.5162,0.31903 0.90301,-0.684 0.85959,-2.22896 -0.0455,-1.6199 -0.32522,-2.1816 -0.66071,-1.32688 -0.31997,0.81518 -1.18445,2.08482 -1.92105,2.82143 -0.73661,0.73661 -1.32561,1.86964 -1.30888,2.51786 0.0167,0.64821 0.49438,0.38161 1.06146,-0.59246 0.56708,-0.97407 1.45339,-1.51001 1.96959,-1.19099 z m 6.43854,-11.53798 c -0.33992,-0.55 -1.19673,-1 -1.90403,-1 -1.93874,0 -4.9473,-3.66483 -3.66111,-4.45974 0.58583,-0.36206 1.06514,-0.10674 1.06514,0.56739 0,0.67413 0.23559,0.99009 0.52354,0.70214 0.28794,-0.28794 0.25315,-1.22815 -0.0773,-2.08934 -0.53832,-1.40283 -0.78447,-1.39171 -2.36491,0.10687 -2.12753,2.01733 -1.80516,2.76034 2.2778,5.24999 3.45088,2.10424 5.09795,2.47124 4.14089,0.92269 z m -9.94721,-0.91459 c -0.31089,-0.50302 5e-5,-1.13216 0.69098,-1.39808 0.69093,-0.26592 0.24373,-0.43359 -0.99377,-0.37261 -2.27117,0.11193 -2.80695,0.795 -1.58333,2.01861 1.00268,1.00268 2.53458,0.80132 1.88612,-0.24792 z m 13.44721,36.03703 c 0,-0.48265 0.675,-1.43775 1.5,-2.12244 1.62821,-1.35129 1.83174,-1.02807 0.89301,1.41821 -0.64255,1.67447 -2.39301,2.18961 -2.39301,0.70423 z m 3,0.5 c 0,-0.20765 0.6853,-0.9463 1.52289,-1.64144 1.27335,-1.05678 1.41968,-0.99492 0.89301,0.37756 -0.53789,1.40173 -2.4159,2.38422 -2.4159,1.26388 z m 1.07895,-6.20577 c 0.048,-1.16495 0.28494,-1.4019 0.60416,-0.60417 0.28887,0.72187 0.25335,1.58437 -0.0789,1.91667 -0.3323,0.33229 -0.56864,-0.25834 -0.52522,-1.3125 z m 2.56021,0.0854 c -0.8468,-2.20673 -0.86188,-2.16873 0.86084,-2.16873 1.69794,0 1.84226,0.57844 0.62385,2.50052 -0.67448,1.06402 -0.97482,0.9969 -1.48469,-0.33179 z M 85.838507,170.2315 c -0.68144,-1.49559 -1.91788,-2.97978 -2.74763,-3.29818 -1.82029,-0.69851 -2.01404,-4.9859 -0.25866,-5.72358 0.89653,-0.37675 0.75766,-0.83712 -0.49109,-1.62804 -3.64711,-2.30995 -7.74996,-7.60554 -7.75802,-10.01334 -0.005,-1.375 -0.90007,-3.9625 -1.98993,-5.75 -1.08986,-1.7875 -1.54855,-3.25 -1.01931,-3.25 1.39628,0 3.70549,3.98906 4.49166,7.75917 0.46019,2.20682 2.26778,4.59832 5.59816,7.40654 5.11173,4.31027 5.99927,6.20559 3.37714,7.2118 -1.32247,0.50748 -1.23767,1.00231 0.59703,3.48387 1.17614,1.59081 1.9812,3.70883 1.78903,4.7067 -0.28427,1.47606 -0.58039,1.30735 -1.58838,-0.90495 z m 16.081293,-5.41314 c 0.26135,-1.2375 0.0148,-2.25 -0.54783,-2.25 -0.56266,0 -0.78777,-0.89955 -0.50026,-1.999 0.28751,-1.09946 0.10385,-2.2579 -0.40815,-2.57433 -0.511993,-0.31643 -0.866453,-0.20438 -0.787703,0.249 0.714563,4.11342 -1.11688,4.24785 -3.47546,0.2551 -1.99548,-3.37809 -1.3944,-5.37458 0.73951,-2.45628 0.92748,1.26841 1.55502,1.47578 2.04869,0.677 1.177723,-1.9056 2.334423,-1.31078 3.108513,1.59851 0.40243,1.5125 0.93871,2.1875 1.19174,1.5 0.25302,-0.6875 1.19766,-1.25 2.09921,-1.25 1.26384,0 1.12643,0.35914 -0.60006,1.56842 -1.23158,0.86263 -1.98236,1.98407 -1.66839,2.49208 0.31397,0.50801 0.0655,1.71472 -0.55207,2.68158 -0.9927,1.55406 -1.06782,1.49699 -0.64774,-0.49208 z m 38.58811,-2.3 c -0.0409,-0.2475 -0.26481,-1.47404 -0.49764,-2.72565 -0.60324,-3.24277 4.79257,-5.55536 8.82195,-3.78099 0.9625,0.42384 1.75,1.24222 1.75,1.81862 0,0.5764 -0.9,0.23351 -2,-0.76198 -1.1,-0.99549 -2,-1.31679 -2,-0.714 0,0.60278 0.45734,1.37862 1.01631,1.72408 0.55897,0.34546 0.74391,1.06887 0.41097,1.60758 -0.38097,0.61643 -1.1283,0.54543 -2.01631,-0.19155 -1.12884,-0.93686 -1.41403,-0.7966 -1.42628,0.70145 -0.0127,1.55668 -0.17372,1.62191 -0.95465,0.38681 -0.64992,-1.02791 -0.49115,-1.73644 0.51532,-2.29969 2.46246,-1.37806 1.60631,-2.59809 -0.97,-1.38226 -1.84035,0.86851 -2.16384,1.4585 -1.34239,2.4483 0.78039,0.9403 0.75937,1.62694 -0.0753,2.46166 -0.63669,0.63669 -1.19106,0.95512 -1.23193,0.70762 z m -38.16122,-6.6141 c -1.44651,-1.44652 -1.89188,-1.4792 -3.406243,-0.25 -1.5179,1.23208 -1.63303,1.22102 -0.89448,-0.0859 2.107353,-3.72914 2.753763,-4.08251 4.136103,-2.26109 1.19118,1.56956 1.34,1.34983 1.36835,-2.02029 0.0181,-2.15091 0.5913,-3.99609 1.32939,-4.27932 0.71367,-0.27386 1.40888,-2.15048 1.5449,-4.17026 0.13603,-2.01978 0.5907,-4.14409 1.01038,-4.72068 0.78432,-1.07758 0.75969,-2.00713 -0.24617,-9.28786 l -0.5857,-4.2395 2.10754,2.10754 c 1.70215,1.70215 1.84439,2.27423 0.73949,2.97418 -1.08128,0.685 -1.09365,0.86986 -0.059,0.88197 0.7333,0.009 0.9952,0.52307 0.59549,1.16982 -0.44563,0.72104 -0.27393,0.88282 0.45729,0.4309 0.64395,-0.39798 0.86895,-1.21204 0.5,-1.80902 -0.40038,-0.64782 -0.20538,-0.79775 0.48369,-0.37188 1.66676,1.03012 1.42026,3.59549 -0.3455,3.59549 -1.76308,0 -1.88337,0.92448 -0.39035,3 0.92543,1.2865 1.00341,1.2627 0.54782,-0.16724 -0.29672,-0.93132 0.10305,-1.91062 0.90567,-2.21862 1.75017,-0.6716 1.79501,0.42671 0.23554,5.76984 -1.3013,4.45862 -2.56517,5.86434 -4.60062,5.11697 -0.71606,-0.26292 -1.03486,-0.0459 -0.70844,0.48226 0.32643,0.52816 -0.189,2.21051 -1.1454,3.73854 -0.9564,1.52804 -1.34912,2.43977 -0.87271,2.02607 0.4764,-0.4137 1.69021,-0.006 2.69734,0.90499 1.14798,1.03891 1.83115,1.21455 1.83115,0.47079 0,-0.6525 -0.675,-1.44539 -1.5,-1.76197 -0.825,-0.31659 -1.5,-1.02561 -1.5,-1.57561 0,-0.55 0.65208,-0.74977 1.44907,-0.44394 0.90591,0.34763 1.26462,0.0754 0.95697,-0.72634 -0.27066,-0.70532 0.16939,-1.28241 0.97788,-1.28241 0.80849,0 1.6987,0.87461 1.97824,1.94358 0.71263,2.7251 -3.48164,6.76611 -6.26678,6.03778 -1.65916,-0.43388 -1.98876,-0.20042 -1.50325,1.06479 0.79207,2.06412 0.26754,2.05162 -1.82766,-0.0436 z m 6.58061,-12.87903 c -0.32569,-0.84872 -0.80663,-1.32866 -1.06875,-1.06653 -0.26213,0.26213 -0.17998,0.95654 0.18255,1.54313 0.98605,1.59546 1.56238,1.28551 0.8862,-0.4766 z m 0.65492,-2.89785 c 0,-0.24254 -0.45,-0.7191 -1,-1.05902 -0.55,-0.33992 -1,-0.14148 -1,0.44098 0,0.58246 0.45,1.05902 1,1.05902 0.55,0 1,-0.19844 1,-0.44098 z m 48.79625,15.72577 c -0.43681,-1.63777 -0.0766,-2.37842 1.38183,-2.84131 2.46347,-0.78188 3.57629,0.20215 2.00525,1.77319 -0.91111,0.91111 -1.20626,0.84976 -1.28301,-0.26667 -0.0548,-0.7975 -0.41774,-0.325 -0.80647,1.05 -0.69734,2.46657 -0.71469,2.47038 -1.2976,0.28479 z m -47.79625,-0.28479 c 0,-0.55 0.47656,-1 1.05902,-1 0.58246,0 0.7809,0.45 0.44098,1 -0.33992,0.55 -0.81648,1 -1.05902,1 -0.24254,0 -0.44098,-0.45 -0.44098,-1 z m 41.26633,-1.11447 c -0.0781,-1.03704 0.30656,-1.88553 0.85484,-1.88553 0.54827,0 0.71875,0.45 0.37883,1 -0.86536,1.40018 0.84888,1.25112 2.3,-0.2 0.72744,-0.72744 1.2,-0.79065 1.2,-0.16052 0,0.57172 -1.03312,1.51021 -2.29582,2.08553 -1.94077,0.88428 -2.31778,0.75446 -2.43785,-0.83948 z m 12.71101,0.0721 c -0.60116,-1.12328 -0.95449,-3.71078 -0.78518,-5.75 l 0.30784,-3.70763 2.40016,2.40016 c 3.20454,3.20454 5.10077,1.93904 7.32778,-4.8904 1.78071,-5.46083 3.53848,-8.45425 2.35457,-4.00976 l -0.66594,2.5 1.50628,-2.5 c 0.82845,-1.375 1.52223,-3.2875 1.54171,-4.25 0.0195,-0.9625 0.47912,-1.75 1.0214,-1.75 1.2824,0 -2.78789,11.16026 -4.59912,12.61024 -0.76276,0.61064 -1.38684,2.05762 -1.38684,3.21552 0,2.14313 -5.11391,8.17424 -6.93111,8.17424 -0.54919,0 -1.49038,-0.91905 -2.09155,-2.04234 z m -50.97734,0.0424 c 0,-0.55 0.47656,-1 1.05902,-1 0.58246,0 0.7809,0.45 0.44098,1 -0.33992,0.55 -0.81648,1 -1.05902,1 -0.24254,0 -0.44098,-0.45 -0.44098,-1 z m -17.000003,-0.84501 c 0,-0.63525 -0.3375,-1.04249 -0.75,-0.90499 -0.4125,0.1375 -0.85735,-0.0897 -0.98857,-0.50477 -0.13122,-0.41513 -0.91872,-2.38259 -1.75,-4.37213 -0.83128,-1.98954 -1.51143,-5.36239 -1.51143,-7.49522 0,-2.50416 -0.42845,-3.78932 -1.20948,-3.62788 -0.66522,0.1375 -1.27426,-0.6684 -1.35343,-1.79088 -0.0792,-1.12249 -0.63666,-3.59749 -1.23885,-5.5 -1.47902,-4.67269 -2.22532,-13.09389 -1.09869,-12.3976 0.49525,0.30608 0.90045,2.1779 0.90045,4.1596 0,4.14759 2.9677,14.27888 4.18263,14.27888 0.44955,0 0.81737,0.67798 0.81737,1.50661 0,0.82864 1.125,2.48479 2.5,3.68034 2.58532,2.2479 3.4541,4.48014 1.25,3.21174 -0.6875,-0.39564 -0.94123,-0.37592 -0.56384,0.0438 0.37739,0.41973 0.25744,1.95438 -0.26655,3.41032 l -0.95271,2.64719 2.07923,-2.5 2.07924,-2.5 -0.7082,2.49616 c -0.38951,1.37289 -1.43022,3.06691 -2.31268,3.76449 -1.33727,1.05709 -1.35467,1.22427 -0.10449,1.00383 0.825,-0.14546 1.95,-1.0224 2.5,-1.94874 0.55,-0.92634 1.45,-1.67994 2.000003,-1.67467 0.55,0.005 1.4026,-1.37431 1.89466,-3.06574 0.49206,-1.69143 1.27956,-3.07533 1.75,-3.07533 1.14585,0 1.13571,0.044 -1.05307,4.5743 -2.00295,4.14562 -6.091593,8.56254 -6.091593,6.58069 z m 51.489923,-0.1713 c -0.34546,-0.55897 -0.94786,-0.8187 -1.33866,-0.57717 -0.3908,0.24152 -0.62127,-0.76363 -0.51215,-2.23369 0.10913,-1.47006 0.23497,-3.26189 0.27965,-3.98185 0.0447,-0.71996 0.55309,-1.01739 1.1298,-0.66097 0.72523,0.44822 0.71025,1.05568 -0.0486,1.96999 -0.64906,0.78206 -0.71818,1.55614 -0.16926,1.89539 0.51031,0.31539 1.16504,1.48046 1.45493,2.58903 0.56949,2.17771 0.21088,2.62804 -0.79575,0.99927 z m -4.55882,-4.23369 c -0.0379,-1.2375 -0.23237,-3.48912 -0.43216,-5.00359 -0.28594,-2.16747 -0.10739,-2.48676 0.83884,-1.5 1.36435,1.42277 1.78422,8.75359 0.50136,8.75359 -0.46152,0 -0.87014,-1.0125 -0.90804,-2.25 z m 5.73557,1.58333 c -0.36667,-0.36666 -0.66667,-1.13166 -0.66667,-1.7 0,-0.6266 0.46577,-0.56756 1.18333,0.15 0.65084,0.65084 0.95084,1.41584 0.66667,1.7 -0.28417,0.28417 -0.81667,0.21667 -1.18333,-0.15 z m 8.33333,-0.29815 c 0,-0.56935 0.54,-1.03518 1.2,-1.03518 0.93333,0 0.93333,-0.26667 0,-1.2 -1.45112,-1.45112 -1.60018,-3.16536 -0.2,-2.3 0.55,0.33992 1,0.0451 1,-0.65527 0,-0.88894 0.48851,-0.78479 1.61832,0.34502 1.78679,1.78679 1.27701,3.26072 -1.67401,4.84006 -1.3368,0.71543 -1.94431,0.71711 -1.94431,0.005 z m 4,-3.03518 c 0,-0.55 -0.45,-1 -1,-1 -0.55,0 -1,0.45 -1,1 0,0.55 0.45,1 1,1 0.55,0 1,-0.45 1,-1 z m -61.53742,-2.5 c 0.28829,-2.3987 0.1418,-3.45685 -0.365923,-2.64324 -0.65117,1.0435 -1.02055,1.0754 -1.59977,0.1382 -0.41909,-0.6781 -0.15359,-1.5891 0.59861,-2.05398 0.80855,-0.49971 1.641853,-0.36596 2.073733,0.33285 0.39711,0.64254 1.03562,0.85466 1.4189,0.47138 0.38328,-0.38328 0.20562,-1.28879 -0.39479,-2.01225 -0.82173,-0.99013 -0.6097,-1.61635 0.8575,-2.53264 2.34984,-1.4675 2.49505,-2.77687 0.39722,-3.58188 -0.89592,-0.34379 -1.29184,-0.17468 -0.93662,0.40008 0.33843,0.54758 -0.0916,1.26687 -0.95559,1.59842 -2.185673,0.83873 -8.555853,-0.47855 -8.555853,-1.76924 0,-0.59055 0.75834,-0.77068 1.70891,-0.40591 1.13388,0.43511 2.2904,-0.11514 3.43704,-1.63527 l 1.72813,-2.29104 2.812963,2.09259 c 3.51576,2.6154 4.01177,5.58847 1.52487,9.1402 -1.05971,1.51345 -2.44499,4.10173 -3.0784,5.75173 -1.130143,2.94394 -1.142683,2.92525 -0.67093,-1 z m 0.53742,-12.5 c 0,-0.55 -0.47656,-1 -1.059013,-1 -0.58246,0 -0.7809,0.45 -0.44099,1 0.33992,0.55 0.81648,1 1.059023,1 0.24254,0 0.44098,-0.45 0.44098,-1 z m 69,12.94098 c 0,-0.58246 -0.5625,-0.73531 -1.25,-0.33967 -0.72624,0.41793 -0.90083,0.33791 -0.41667,-0.19098 0.45834,-0.50068 1.32084,-0.91033 1.91667,-0.91033 0.59583,0 1.27083,-0.5625 1.5,-1.25 0.22917,-0.6875 -0.0708,-1.25 -0.66667,-1.25 -1.69955,0 -1.27385,-1.80948 0.94853,-4.03186 1.42203,-1.42203 1.76635,-2.50629 1.14723,-3.61261 -1.00303,-1.79231 0.60132,-6.03967 2.57091,-6.80625 2.08108,-0.80998 1.45833,4.2455 -1.16681,9.47202 -1.32924,2.64646 -2.18815,5.0404 -1.90869,5.31987 0.77302,0.77302 -0.67984,4.65883 -1.74189,4.65883 -0.51293,0 -0.93261,-0.47656 -0.93261,-1.05902 z m 6,-15.17041 c 0,-0.58531 -0.63541,-0.48812 -1.5,0.22943 -0.825,0.68469 -1.5,1.40067 -1.5,1.59106 0,0.19039 0.675,0.0872 1.5,-0.22943 0.825,-0.31659 1.5,-1.03256 1.5,-1.59106 z m -11.11842,11.97943 c -0.0651,-1.7875 -0.0103,-3.7 0.12191,-4.25 0.13218,-0.55 0.4197,-1.9 0.63894,-3 0.39862,-2 0.39862,-2 -0.55162,0 -0.52263,1.1 -0.98187,1.39447 -1.02052,0.65437 -0.1026,-1.96415 3.92272,-7.27672 5.00618,-6.60711 0.50794,0.31393 0.92353,-0.061 0.92353,-0.83326 0,-0.77221 0.87163,-2.19284 1.93696,-3.15695 2.28825,-2.07084 2.19108,-8.4115 -0.23534,-15.35715 -0.99213,-2.84 -1.12099,-4.17302 -0.3795,-3.92586 0.61749,0.20583 1.42777,1.46588 1.80062,2.8001 0.52957,1.89508 0.69971,1.5036 0.77758,-1.78919 0.0548,-2.31828 -0.60765,-6.29845 -1.47217,-8.844823 -0.86451,-2.54637 -1.36036,-4.84125 -1.10188,-5.09973 0.25848,-0.25848 1.24697,1.86938 2.19664,4.72858 1.2193,3.670973 1.58747,7.144233 1.25292,11.819973 -0.66131,9.24273 0.72137,12.45903 1.53532,3.57135 0.58556,-6.39379 -0.71441,-16.357163 -2.83265,-21.710303 -0.38086,-0.9625 -0.4555,-1.75 -0.16586,-1.75 0.28965,0 1.28364,2.27915 2.20888,5.06478 2.1886,6.589263 2.93448,5.833733 0.92407,-0.93603 -0.85118,-2.86626 -2.81098,-6.62534 -4.35511,-8.35352 -2.42979,-2.719403 -3.69913,-3.234423 -9.43493,-3.828099 -4.93773,-0.511074 -8.02618,-1.533695 -12.11371,-4.010996 -6.96027,-4.21837 -6.60431,-4.86085 0.54712,-0.987474 3.04999,1.651948 7.76521,3.207994 10.75792,3.550165 l 5.32795,0.609174 -1.81416,-2.405097 c -0.9978,-1.322803 -2.27463,-2.374377 -2.83742,-2.336831 -1.36953,0.09137 -18.52325,-5.373881 -18.52325,-5.901587 0,-0.227967 1.4625,-0.175784 3.25,0.115962 l 3.25,0.530446 -3,-1.724035 c -1.65,-0.948219 -5.925,-2.542902 -9.5,-3.54374 -3.62726,-1.015468 -4.81127,-1.577984 -2.67899,-1.272776 2.10156,0.300811 4.38906,0.764907 5.08334,1.031326 0.69427,0.266419 1.26232,-0.216488 1.26232,-1.073125 0,-1.091463 -0.58607,-1.371513 -1.95857,-0.935899 -1.23652,0.392459 -1.7198,0.23531 -1.31092,-0.426276 0.43004,-0.695822 -0.58808,-0.847371 -3.03025,-0.451061 -2.64602,0.429391 -3.47742,0.272493 -2.96339,-0.559234 0.39297,-0.63584 0.23794,-1.156073 -0.34452,-1.156073 -0.58246,0 -1.06591,0.5625 -1.07433,1.25 -0.011,0.898964 -0.26206,0.860373 -0.89395,-0.13742 -1.33292,-2.104767 -9.85102,-0.936693 -14.34416,1.966993 -2.05993,1.331235 -4.68679,4.220427 -5.83746,6.420427 -1.85483,3.546297 -2.01694,3.659722 -1.4293,1 0.88798,-4.019063 5.05973,-8.327059 10.3908,-10.730153 5.33743,-2.405956 11.64883,-1.910364 23.78815,1.867922 8.20186,2.552776 23.84123,11.789023 23.84123,14.080074 0,0.61352 0.40965,1.49049 0.91033,1.948824 0.52889,0.484163 0.60891,0.309578 0.19098,-0.416667 -0.39564,-0.6875 -0.2644,-1.25 0.29163,-1.25 1.51359,0 7.16222,8.63948 9.26238,14.16665 1.01457,2.67014 1.84468,7.12579 1.84468,9.901453 0,6.84803 -2.09143,19.2712 -3.38846,20.12753 -1.16472,0.76898 -1.19297,0.7347 2.51131,3.04677 2.04698,1.27765 2.51288,2.21232 2.122,4.25709 l -0.50085,2.62001 -1.15153,-2.30975 c -1.68938,-3.38857 -3.57962,-2.84873 -7.35442,2.10036 -2.40378,3.15157 -3.29545,5.29188 -3.12456,7.5 0.28119,3.63322 -0.85572,7.58989 -2.18088,7.58989 -0.51293,0 -0.9859,-1.4625 -1.05103,-3.25 z m -2.13158,-68.000003 c -0.22917,-0.6875 -0.82917,-1.255643 -1.33333,-1.26254 -0.50417,-0.0069 -3.39167,-1.663081 -6.41667,-3.680408 -5.30005,-3.534522 -10.0447,-5.807052 -12.12412,-5.807052 -2.04188,0 0.25555,1.869956 3.05205,2.48417 2.70984,0.595181 4.65334,2.865998 4.18824,4.893599 -0.11074,0.482773 0.71844,0.637239 1.84262,0.343259 1.29374,-0.338321 1.80255,-0.143877 1.38622,0.529754 -0.42549,0.68845 0.13864,0.856004 1.59753,0.474495 1.24041,-0.324374 1.97515,-0.309634 1.63276,0.03276 -0.34239,0.342389 0.6256,1.175352 2.15109,1.851027 3.65595,1.619313 4.52657,1.649809 4.02361,0.14094 z m -32.60496,67.743573 c -1.29523,-1.37146 -2.98273,-2.49357 -3.75,-2.49357 -0.76727,0 -1.39504,-0.45 -1.39504,-1 0,-0.55 0.42344,-1 0.94098,-1 0.51754,0 1.2191,0.45 1.55902,1 0.33992,0.55 2.14192,1 4.00445,1 2.70442,0 3.65068,-0.55137 4.6986,-2.73777 0.7217,-1.50578 2.20875,-2.87377 3.30456,-3.03998 1.86905,-0.2835 1.88406,-0.21553 0.24239,1.09801 -1.84968,1.47999 -2.45249,3.23194 -0.75,2.17974 1.4516,-0.89714 1.16819,0.69361 -0.52147,2.927 -0.80183,1.05985 -1.74338,1.64148 -2.09234,1.29252 -0.34896,-0.34896 -1.36611,0.2435 -2.26033,1.31658 -1.60093,1.92113 -1.66197,1.91281 -3.98082,-0.54253 z m 31.85496,-1.49357 c 0,-0.55 0.47656,-1 1.05902,-1 0.58246,0 0.7809,0.45 0.44098,1 -0.33992,0.55 -0.81648,1 -1.05902,1 -0.24254,0 -0.44098,-0.45 -0.44098,-1 z m -42.36865,-2.51831 c -0.31272,-0.81493 -0.10615,-1.48169 0.45905,-1.48169 0.5652,0 0.75172,-0.44644 0.41449,-0.99208 -0.33722,-0.54564 -0.17042,-1.78314 0.37067,-2.75 0.873,-1.55992 1.10435,-1.44085 2.05412,1.05718 1.3697,3.60252 1.39907,3.43859 -0.82972,4.6314 -1.4384,0.76981 -2.03818,0.65688 -2.46861,-0.46481 z m 41.86865,-0.48169 c -0.33992,-0.55 -0.14148,-1 0.44098,-1 0.58246,0 1.05902,0.45 1.05902,1 0,0.55 -0.19844,1 -0.44098,1 -0.24254,0 -0.7191,-0.45 -1.05902,-1 z m -14.13008,-1.21047 c -0.29815,-0.48243 0.002,-1.53243 0.66643,-2.33333 0.6647,-0.80091 0.81594,-1.46309 0.33609,-1.47151 -1.11057,-0.0195 1.82841,-1.94881 3,-1.96938 0.47985,-0.008 0.3455,0.61963 -0.29855,1.39566 -0.76137,0.9174 -0.81949,1.62823 -0.16612,2.03203 0.55268,0.34158 0.78017,1.20664 0.50552,1.92236 -0.56553,1.47374 -3.22244,1.75247 -4.04337,0.42417 z m 3.63008,-1.23051 c 0,-0.24254 -0.45,-0.7191 -1,-1.05902 -0.55,-0.33992 -1,-0.14148 -1,0.44098 0,0.58246 0.45,1.05902 1,1.05902 0.55,0 1,-0.19844 1,-0.44098 z m 19,1.55901 c 0,-0.55 0.45,-1.27811 1,-1.61803 0.55,-0.33992 1,-0.16803 1,0.38197 0,0.55 -0.45,1.27811 -1,1.61803 -0.55,0.33992 -1,0.16803 -1,-0.38197 z M 67.582217,133.1834 c 0,-1.44478 0.99222,-3.03512 2.51692,-4.03414 2.08817,-1.36822 2.33636,-1.98651 1.457,-3.6296 -0.58295,-1.08926 -2.88641,-3.13348 -5.1188,-4.54273 -3.57173,-2.25474 -3.97503,-2.8831 -3.36024,-5.2354 0.38425,-1.47023 0.7676,-3.91064 0.85188,-5.42314 0.0843,-1.5125 0.5527,-2.75 1.04093,-2.75 0.48822,0 0.61347,2.3625 0.27833,5.25 -0.59853,5.15683 -0.54708,5.29052 2.89886,7.53315 1.92951,1.25573 4.01785,3.40169 4.64075,4.7688 0.99333,2.18012 0.77589,2.8579 -1.76898,5.51418 -2.42385,2.52995 -2.65747,3.18284 -1.41908,3.96589 1.25145,0.7913 1.20976,0.93974 -0.26757,0.95267 -1.18177,0.0103 -1.75,-0.75909 -1.75,-2.36968 z m 93.000003,1.32597 c 0,-0.58246 0.45,-0.7809 1,-0.44098 0.55,0.33992 1,0.81648 1,1.05902 0,0.24254 -0.45,0.44098 -1,0.44098 -0.55,0 -1,-0.47656 -1,-1.05902 z m -36.56866,-1.05208 c -0.44311,-0.71696 -0.0253,-0.89861 1.19343,-0.51886 2.15749,0.67225 4.90154,-0.70943 4.07262,-2.05065 -1.12078,-1.81347 3.79151,-1.17174 5.55982,0.72632 1.00139,1.07486 1.46567,2.00198 1.03175,2.06027 -5.85132,0.78602 -11.29932,0.68628 -11.85762,-0.21708 z m -10.0934,-2.64028 c 0.26155,-1.23826 0.0986,-2.01842 -0.3621,-1.73369 -0.4607,0.28473 -1.1203,0.0603 -1.46576,-0.49862 -0.34546,-0.55897 -0.15156,-1.01631 0.4309,-1.01631 0.58246,0 1.05902,-0.44469 1.05902,-0.98821 0,-0.54352 -0.7875,-0.88102 -1.75,-0.75 -0.9625,0.13102 -1.75,-0.21179 -1.75,-0.76179 0,-0.55 0.5625,-0.9375 1.25,-0.86111 0.6875,0.0764 1.21837,-0.59861 1.17971,-1.5 -0.10861,-2.53267 -1.40316,-5.29 -2.46875,-5.25834 -0.52853,0.0157 -0.8586,-0.96349 -0.73349,-2.176 0.13467,-1.30513 -0.30213,-0.79915 -1.07062,1.2402 -0.80717,2.142 -1.57251,3.00073 -2.02371,2.27067 -0.3991,-0.64575 -0.21836,-2.12193 0.40164,-3.2804 0.61999,-1.15847 0.92637,-2.3072 0.68084,-2.55273 -0.24553,-0.24553 -1.00921,0.91229 -1.69707,2.57294 -0.68787,1.66064 -1.64844,2.77351 -2.13461,2.47304 -0.48617,-0.30047 -0.88394,-0.0963 -0.88394,0.4537 0,0.55 0.45,1.27811 1,1.61803 0.55,0.33992 1,0.11492 1,-0.5 0,-0.61492 0.48068,-0.82096 1.06817,-0.45787 0.5875,0.3631 0.8114,1.40215 0.49755,2.30902 -0.46603,1.34661 -0.31282,1.3171 0.83583,-0.16099 0.97581,-1.25569 1.6235,-1.45865 2.11532,-0.66287 0.38987,0.63084 0.20807,1.64777 -0.404,2.25984 -0.61208,0.61208 -1.11287,0.74277 -1.11287,0.29043 0,-0.45235 -0.675,-0.26225 -1.5,0.42244 -1.19672,0.99319 -1.80328,0.99319 -3,0 -0.825,-0.68469 -1.5,-0.90969 -1.5,-0.5 0,0.40969 -0.63494,0.21794 -1.41097,-0.42611 -0.924073,-0.76692 -1.626553,-0.82218 -2.035713,-0.16016 -0.41324,0.66864 -1.49609,0.61384 -3.19857,-0.16187 -2.15643,-0.98253 -2.77667,-0.89533 -3.82454,0.53771 -1.74248,2.38299 -2.67286,2.13352 -2.01233,-0.53957 0.30578,-1.2375 0.65185,-7.07146 0.76905,-12.96435 0.16634,-8.36444 0.57049,-11.071763 1.8427,-12.343923 1.50616,-1.5061 1.66261,-1.34714 2.0648,2.09794 0.33235,2.846853 -0.0527,4.185863 -1.62963,5.667523 -1.13564,1.06701 -1.6148,1.83545 -1.0648,1.70765 2.20148,-0.51153 4.2694,1.25097 3.75877,3.20363 -0.32424,1.23991 0.2667,2.72242 1.5687,3.93542 2.41285,2.2479 3.977163,2.62056 2.24642,0.53514 -0.74444,-0.897 -0.81143,-1.6332 -0.1839,-2.02103 0.5429,-0.33554 1.45106,0.1869 2.018143,1.16097 0.56708,0.97407 1.04474,1.37843 1.06146,0.89859 0.0173,-0.4966 0.58572,-0.4966 1.31941,0 0.70895,0.47984 0.0921,-0.25256 -1.37081,-1.62756 -1.46289,-1.375 -2.939763,-3.31602 -3.281933,-4.31338 -0.34217,-0.99736 -1.05986,-1.54285 -1.59487,-1.2122 -0.5933,0.36668 -0.84708,-1.22248 -0.6506,-4.07404 0.24215,-3.514433 0.90948,-5.118273 2.68772,-6.459593 2.263893,-1.70767 4.507453,-1.69791 3.448813,0.015 -0.27791,0.44968 0.12468,1.34044 0.89466,1.97946 0.86287,0.71612 1.62833,0.79236 1.99522,0.19872 0.32739,-0.52973 0.03,-1.22243 -0.66097,-1.53933 -0.69093,-0.3169 -0.13123,-0.29468 1.24377,0.0494 2.6737,0.66902 4.17949,2.25656 3.375,3.558243 -0.72661,1.17568 -3.375,0.97066 -3.375,-0.26127 0,-0.582463 -0.41891,-0.800123 -0.9309,-0.48369 -0.512,0.31644 -1.21356,0.11799 -1.55902,-0.440983 -0.34546,-0.559 -1.1213,-1.01634 -1.72408,-1.01634 -2.042503,0 2.11763,3.567133 4.35684,3.735813 2.06301,0.1554 4.27008,2.54074 4.33105,4.68086 0.0144,0.50416 0.70111,1.10092 1.52611,1.32613 1.33333,0.36397 1.33333,0.29159 0,-0.65136 -0.82723,-0.58502 -0.99051,-1.06768 -0.36405,-1.07613 1.8877,-0.0254 8.36296,7.28144 8.37936,9.45553 0.008,1.11604 0.3958,2.62939 0.86084,3.36301 0.68341,1.0781 0.9597,1.03631 1.44101,-0.21798 0.32752,-0.8535 0.22327,-1.78187 -0.23167,-2.06304 -0.45494,-0.28116 -1.105,-1.9004 -1.44458,-3.5983 -0.33958,-1.69789 -1.04161,-2.82492 -1.56007,-2.50449 -1.45187,0.8973 -2.21233,-1.07795 -1.50303,-3.90405 0.5547,-2.21011 2.62385,-3.82319 2.30377,-1.79599 -0.30663,1.94196 0.24332,2.39123 1.57462,1.28635 2.01997,-1.67642 3.82269,-0.27562 3.28243,2.5506 -0.24735,1.29389 -0.0647,2.11459 0.40583,1.82377 0.47055,-0.29081 0.85554,-0.0787 0.85554,0.47125 0,0.55 -0.38311,1.23677 -0.85137,1.52617 -0.46825,0.28939 -0.80575,1.77845 -0.75,3.30902 0.073,2.00289 0.59185,2.74391 1.85137,2.64395 0.9625,-0.0764 1.75,0.26111 1.75,0.75 0,0.48889 -0.675,0.88889 -1.5,0.88889 -0.825,0 -1.5,0.39075 -1.5,0.86833 0,1.44604 -8.29415,2.12944 -9.91295,0.81679 -1.20542,-0.97746 -1.34109,-0.86415 -0.77428,0.64667 0.37798,1.00748 0.68723,2.04654 0.68723,2.30901 0,0.26248 0.46804,0.18797 1.04008,-0.16557 1.1907,-0.73589 0.27017,4.09292 -1.24383,6.52477 -0.703,1.12918 -0.8163,0.94344 -0.45831,-0.75138 z m -8.67127,-8.70463 c 0,-0.80081 -0.32402,-1.25576 -0.72003,-1.01101 -1.19363,0.7377 -3.2129,-2.39675 -2.5899,-4.02025 0.31927,-0.832 0.1934,-1.51273 -0.27972,-1.51273 -1.10837,0 -2.324243,4.79097 -1.53852,6.0623 0.32983,0.53368 0.98751,0.73064 1.4615,0.4377 0.47399,-0.29294 1.14446,-0.0753 1.48992,0.48369 0.92187,1.49162 2.17675,1.23814 2.17675,-0.4397 z m 11.92882,-1.6985 c 0.42587,-0.68907 0.27594,-0.88407 -0.37188,-0.48369 -0.59698,0.36895 -1.36807,0.21348 -1.71353,-0.34549 -0.34546,-0.55897 -1.13756,-1.01631 -1.76023,-1.01631 -0.62266,0 -0.2586,0.66069 0.80902,1.4682 2.37555,1.79677 2.17475,1.77182 3.03662,0.37729 z m -22.063243,-0.89767 c 0.3144,-0.5087 -0.12674,-0.65692 -0.98031,-0.32938 -0.99069,0.38017 -1.55194,0.0357 -1.55194,-0.95243 0,-2.46024 2.17794,-3.14315 3.64138,-1.14179 0.73588,1.00638 1.52727,1.63763 1.75866,1.40278 0.23138,-0.23485 -0.67017,-1.777 -2.00345,-3.427 -1.97348,-2.44229 -2.59521,-2.73002 -3.34438,-1.54775 -0.50613,0.79874 -0.69837,1.81124 -0.42721,2.25 0.27117,0.43876 0.11291,0.79775 -0.35169,0.79775 -0.4646,0 -0.84473,0.8115 -0.84473,1.80334 0,1.8881 3.10832,2.75499 4.10367,1.14448 z m 23.217613,-3.53129 c -0.95295,-0.95296 -2.86349,0.5906 -2.1533,1.7397 0.42212,0.683 0.98146,0.66575 1.69964,-0.0524 0.58876,-0.58876 0.79291,-1.34803 0.45366,-1.68727 z m -4.71935,-4.35952 c -0.52808,-0.98673 -0.63848,-2.15036 -0.24533,-2.58585 0.39315,-0.4355 0.15311,-0.46859 -0.53343,-0.0735 -1.18088,0.6795 -6.03395,-1.89346 -5.50175,-2.91687 0.68726,-1.32159 0.10572,-2.59448 -1,-2.18883 -0.6875,0.25221 -2.46818,-0.67597 -3.95707,-2.06263 -2.17821,-2.028663 -2.508443,-2.892343 -1.69034,-4.420973 0.91295,-1.70587 0.81669,-1.77485 -0.943153,-0.67581 -1.9074,1.19119 -1.90285,3.867503 0.007,3.867503 0.523613,0 0.631783,0.51817 0.24036,1.15149 -0.49714,0.8044 -1.09644,0.62526 -1.98823,-0.59434 -1.13602,-1.553593 -1.25242,-1.429183 -1.05714,1.12997 0.1207,1.58168 0.98885,3.97426 1.92922,5.31684 l 1.709783,2.44105 0,-2.39682 0,-2.39682 2.31445,2.17432 c 1.27295,1.19587 2.84795,2.17431 3.5,2.17431 0.65205,0 1.18555,0.47656 1.18555,1.05902 0,0.58246 0.45318,0.77893 1.00706,0.43661 0.55389,-0.34231 1.28696,0.10699 1.62905,0.99846 0.34208,0.89147 1.24447,1.38198 2.0053,1.09002 1.0394,-0.39886 1.25022,0.14624 0.84796,2.19253 -0.50795,2.5839 -0.48322,2.60433 0.48296,0.39888 0.65915,-1.50461 0.67967,-2.95724 0.0582,-4.11851 z m -3.62552,-1.30701 -1.90499,-2.25 2.25,1.90499 c 2.11444,1.79022 2.70524,2.59501 1.90499,2.59501 -0.18976,0 -1.20226,-1.0125 -2.25,-2.25 z m -7.29926,-4.1226 c -0.64859,-0.78151 -1.98772,-1.20952 -2.975833,-0.95112 -1.16073,0.30354 -1.79656,-0.0813 -1.79656,-1.08736 0,-1.26836 0.28289,-1.32828 1.52529,-0.32304 1.079243,0.87322 1.318173,0.88879 0.817023,0.0532 -0.389553,-0.6495 -0.25093,-1.46356 0.30804,-1.80902 0.55897,-0.34546 1.01631,-0.0887 1.01631,0.57066 0,0.65933 0.78679,1.77409 1.74843,2.47726 0.96163,0.70316 1.47576,1.55115 1.1425,1.8844 -0.33326,0.33326 -1.1366,-0.0335 -1.7852,-0.815 z m 20.2559,7.8726 c -0.31659,-0.825 -0.75246,-1.5 -0.96862,-1.5 -0.21615,0 -0.39301,0.675 -0.39301,1.5 0,0.825 0.43588,1.5 0.96862,1.5 0.53273,0 0.70959,-0.675 0.39301,-1.5 z m -18.83782,-3.11905 c -0.89048,-0.89047 -1.92209,-1.31601 -2.29247,-0.94562 -0.37038,0.37038 -0.0114,1.09206 0.79762,1.60373 2.36246,1.49407 3.25436,1.10141 1.49485,-0.65811 z m -10.523853,-8.98863 c 0,-0.82763 -1.94172,-1.29565 -2.38691,-0.57533 -0.28881,0.46731 0.1301,0.84965 0.9309,0.84965 0.80081,0 1.45601,-0.12345 1.45601,-0.27432 z m 14.000003,-2.392353 c 0,-0.55 -0.47656,-1 -1.05902,-1 -0.58246,0 -0.7809,0.45 -0.44098,1 0.33992,0.550003 0.81648,1.000003 1.05902,1.000003 0.24254,0 0.44098,-0.45 0.44098,-1.000003 z m 28.5,28.024543 c -1.1,-0.45918 -3.4227,-0.63112 -5.16155,-0.38209 -1.73885,0.24904 -3.45291,-0.0186 -3.80902,-0.59482 -1.02202,-1.65367 8.78128,-1.27986 11.02944,0.42057 2.11846,1.60232 1.10369,1.87653 -2.05887,0.55634 z m 11.5,-1.08356 c 0,-0.58246 0.45,-0.7809 1,-0.44098 0.55,0.33992 1,0.81648 1,1.05902 0,0.24254 -0.45,0.44098 -1,0.44098 -0.55,0 -1,-0.47656 -1,-1.05902 z m 13.44308,-6.05104 c -1.16642,-2.25563 -1.24216,-2.87799 -0.27568,-2.26532 0.73293,0.46462 1.72771,0.85165 2.21063,0.86007 0.48291,0.008 1.5503,1.02781 2.37197,2.26531 0.82167,1.2375 1.05782,2.25 0.52479,2.25 -0.53304,0 -1.4903,-1.0125 -2.12725,-2.25 l -1.15808,-2.25 0.57266,2.25 c 0.8164,3.20768 -0.23652,2.78032 -2.11904,-0.86006 z m 4.67099,-0.20537 c -1.16274,-1.88135 -2.08555,-4.04252 -2.05068,-4.8026 0.0349,-0.76009 0.49453,-0.30414 1.02148,1.01321 1.63438,4.08585 2.07705,1.60338 0.51999,-2.91603 -1.06876,-3.10209 -1.12412,-3.89214 -0.20167,-2.87762 1.29101,1.41985 3.96603,11.86259 3.22783,12.60079 -0.22159,0.22158 -1.35422,-1.13641 -2.51695,-3.01775 z m -85.374173,-4.89156 c -3.28511,-6.73701 -3.73871,-8.55881 -3.73013,-14.98134 0.0158,-11.858633 4.79681,-19.756672 13.87513,-22.921392 3.35023,-1.167896 6.31983,-0.04706 9.29043,3.50654 0.966973,1.156748 1.773103,1.682182 1.791403,1.16763 0.0183,-0.514552 -0.97923,-2.038781 -2.216733,-3.387177 -1.32288,-1.441435 -1.65699,-2.266111 -0.81084,-2.0014 2.363883,0.739523 5.096703,5.146395 5.490253,8.853426 0.20266,1.90889 0.68709,4.2582 1.07652,5.2207 0.38942,0.9625 0.44741,1.75 0.12886,1.75 -0.31856,0 -1.55259,-2.26271 -2.74229,-5.02824 -2.35652,-5.477901 -6.307993,-8.97176 -10.146833,-8.97176 -3.92353,0 -10.22666,5.246653 -12.19151,10.14807 -2.88063,7.1859 -3.05397,13.491723 -0.5732,20.851933 1.20495,3.575 2.86662,7.25402 3.69259,8.1756 0.82597,0.92157 1.34527,2.48818 1.15401,3.48134 -0.21877,1.13596 -1.73495,-1.03907 -4.08766,-5.86393 z M 102.92726,84.025229 c -0.32569,-0.848721 -0.80663,-1.32866 -1.06875,-1.066531 -0.26213,0.262128 -0.17998,0.956536 0.18255,1.543128 0.98605,1.595461 1.56238,1.285511 0.8862,-0.476597 z m 67.81281,35.543131 c 0,-1.375 0.22698,-1.9375 0.50439,-1.25 0.27741,0.6875 0.27741,1.8125 0,2.5 -0.27741,0.6875 -0.50439,0.125 -0.50439,-1.25 z m -88.729313,-9.11127 c 0,-1.33531 0.32008,-1.51229 1.28571,-0.71089 0.70714,0.58688 1.28571,1.38695 1.28571,1.77794 0,0.39099 -0.57857,0.71089 -1.28571,0.71089 -0.70714,0 -1.28571,-0.80007 -1.28571,-1.77794 z m 14.97593,1.26578 c 0.39244,-0.63498 0.23697,-1.15451 -0.34549,-1.15451 -0.58246,0 -1.05902,-0.45 -1.05902,-1 0,-1.5301 1.71359,-1.18876 2.34934,0.46797 0.30982,0.80739 0.0634,1.77692 -0.54752,2.15451 -0.67265,0.41573 -0.82937,0.23113 -0.39731,-0.46797 z m 29.395663,-0.23289 c -0.63793,-1.6624 1.59237,-4.13173 2.81031,-3.11151 0.45297,0.37944 0.27037,-0.0379 -0.40578,-0.92743 -1.62684,-2.14023 0.73749,-4.54049 2.61909,-2.65889 1.84199,1.84199 1.37685,3.17845 -0.57379,1.64865 -1.58606,-1.24387 -1.62143,-1.2085 -0.37756,0.37756 0.75485,0.9625 1.76735,1.75 2.25,1.75 1.21965,0 1.10454,-3.74169 -0.13875,-4.51008 -1.16566,-0.72042 -0.35952,-2.48992 1.13434,-2.48992 0.55,0 0.67892,0.51953 0.28648,1.15451 -0.44208,0.7153 -0.27432,0.88306 0.44098,0.44098 0.63498,-0.39244 1.15451,-0.16722 1.15451,0.50048 0,0.73968 0.84767,0.46971 2.16957,-0.69098 1.91277,-1.67951 2.09523,-1.70099 1.54153,-0.18144 -0.38338,1.05215 -0.01,2.0695 0.95885,2.61162 1.13686,0.63622 1.25445,1.09352 0.41466,1.61254 -0.64472,0.39846 -1.86994,0.14541 -2.72272,-0.56233 -1.30368,-1.08196 -1.84297,-0.89906 -3.3878,1.14897 -1.01052,1.33967 -2.16418,2.1089 -2.56369,1.70939 -0.39951,-0.39952 -1.33029,-0.22519 -2.06839,0.38738 -0.73811,0.61257 -1.37364,0.72117 -1.4123,0.24132 -0.0386,-0.47984 -0.40996,-0.005 -0.82513,1.05445 -0.58339,1.48919 -0.87968,1.60157 -1.30441,0.49473 z m 34.37109,-1.019 c -1.89628,-3.03642 -0.75554,-3.44328 1.21633,-0.43383 0.91219,1.39217 1.30639,2.53121 0.87601,2.53121 -0.43038,0 -1.37193,-0.94382 -2.09234,-2.09738 z m -35.27722,-5.48595 c -0.0583,-2.15417 -0.0396,-5.041673 0.0416,-6.416673 0.0967,-1.63824 -0.64235,-2.97971 -2.14404,-3.89165 -2.23261,-1.35581 -2.24656,-1.34091 -0.54163,0.57874 0.9625,1.08371 1.75,2.77124 1.75,3.75006 0,1.412323 -0.56764,1.662563 -2.75,1.212353 l -2.75,-0.567323 2.5,1.214493 c 3.25924,1.58334 3.45918,3.16593 0.42286,3.34713 -1.3253,0.0791 -2.20122,-0.1934 -1.9465,-0.60554 0.25471,-0.41214 -0.64827,-0.53689 -2.00662,-0.27723 -2.04219,0.39039 -2.49024,0.0624 -2.58816,-1.89445 -0.0651,-1.30162 -0.054,-2.737533 0.0248,-3.190913 0.0787,-0.45338 -0.2839,-0.56037 -0.8059,-0.23776 -0.522,0.32262 -1.11385,-0.20643 -1.31522,-1.17567 -0.30014,-1.44467 -0.47718,-1.35653 -0.98242,0.48914 -0.34174,1.24837 -0.21234,2.00172 0.29044,1.69098 1.44872,-0.89536 1.04834,0.7437 -0.63643,2.605343 -1.39406,1.54042 -1.3833,1.76654 0.11134,2.34009 1.16032,0.44525 1.49249,0.21267 1.11207,-0.77868 -0.92918,-2.4214 0.579,-2.71863 1.7921,-0.35318 1.42978,2.78795 -0.0247,4.04613 -2.91846,2.52459 -2.59242,-1.36309 -3.60285,-2.89227 -2.78524,-4.21519 0.35017,-0.56659 0.6948,-1.819013 0.76583,-2.783163 0.071,-0.96414 0.82294,-2.54705 1.67091,-3.51758 0.84797,-0.97052 2.08149,-3.44582 2.74115,-5.50066 0.65966,-2.05484 1.56081,-3.95945 2.00256,-4.23247 0.44175,-0.27301 0.20367,1.18322 -0.52906,3.23608 -1.98853,5.57114 -1.76651,7.89388 0.82997,8.68313 1.36311,0.41435 1.75728,0.88734 1,1.19996 -0.6875,0.28382 -1.25,0.95509 -1.25,1.49172 0,0.536633 0.44758,0.699063 0.99462,0.360973 1.22182,-0.755123 3.54207,-4.941293 2.35515,-4.249133 -0.46737,0.27255 -1.7426,0.17152 -2.83385,-0.22452 -1.68818,-0.61267 -1.42142,-0.90575 1.78871,-1.96519 3.07866,-1.01605 4.07694,-0.99854 5.42603,0.0952 1.39072,1.12748 1.52127,1.12122 0.8221,-0.0394 -0.57484,-0.95425 -0.40275,-1.23661 0.55804,-0.91563 1.03547,0.34594 1.34894,2.30772 1.23109,7.704513 -0.16784,7.68589 -1.26911,11.11441 -1.44785,4.50752 z m -1.89404,-6.857653 c 0,-0.24254 -0.45,-0.7191 -1,-1.05902 -0.55,-0.33992 -1,-0.14148 -1,0.44098 0,0.58246 0.45,1.05902 1,1.05902 0.55,0 1,-0.19844 1,-0.44098 z m -43.679923,2.440983 c 0,-3.575003 0.18149,-5.037503 0.40332,-3.250003 0.22183,1.7875 0.22183,4.712503 0,6.500003 -0.22183,1.7875 -0.40332,0.325 -0.40332,-3.25 z m 69.227763,3.41132 c -1.06155,-0.77622 -1.48409,-1.41132 -0.93897,-1.41132 0.54512,0 1.63169,0.5625 2.4146,1.25 0.7829,0.6875 0.63575,0.30114 -0.327,-0.85857 -1.31044,-1.57853 -2.67389,-2.03531 -5.42391,-1.81711 -2.22026,0.17617 -3.14788,-0.0333 -2.34488,-0.52962 0.7307,-0.4516 1.03856,-1.290313 0.68412,-1.863803 -0.35443,-0.57349 -0.16111,-1.34141 0.42961,-1.70649 1.42115,-0.87832 8.95859,4.153683 8.95859,5.980763 0,2.16286 -1.30687,2.52482 -3.45216,0.95615 z m -21.54784,-0.8523 c 0,-0.85746 0.45,-1.55902 1,-1.55902 0.55,0 1,0.42344 1,0.94098 0,0.51754 -0.45,1.2191 -1,1.55902 -0.55,0.33992 -1,-0.0835 -1,-0.94098 z m 35.61501,-1.02384 c -2.02292,-3.087363 -2.07153,-4.158953 -0.11501,-2.535183 1.1178,0.927693 1.5,0.943853 1.5,0.0634 0,-0.64981 0.44485,-0.90653 0.98855,-0.57051 0.57775,0.35708 0.7277,-0.0688 0.36083,-1.02483 -0.46028,-1.19947 -0.82865,-1.31066 -1.38106,-0.41684 -0.52559,0.85043 -1.13767,0.49787 -2.02455,-1.16615 -1.15937,-2.17526 -1.12484,-2.26435 0.39251,-1.01266 0.91505,0.75485 1.66372,1.00235 1.66372,0.55 0,-2.06236 2.50526,1.95285 2.54581,4.080203 0.0377,1.98028 -0.20768,2.19295 -1.39425,1.20818 -1.20339,-0.99873 -1.3231,-0.82666 -0.72842,1.04702 0.93191,2.93619 0.2028,2.84641 -1.80813,-0.22266 z m -33.91263,-1.31155 c -1.02062,-1.127773 -1.2905,-2.272033 -0.74431,-3.155793 0.47129,-0.76256 0.62342,-1.99488 0.33807,-2.7385 -0.32226,-0.8398 -0.003,-1.15798 0.84252,-0.83985 0.74874,0.2817 2.91844,0.63441 4.82156,0.78381 2.73543,0.21475 3.59239,0.7906 4.0912,2.74917 0.62451,2.452153 -0.47841,4.977533 -2.17386,4.977533 -0.48266,0 -0.87756,-0.825 -0.87756,-1.83333 0,-1.008343 -0.65521,-1.833343 -1.45601,-1.833343 -0.80081,0 -1.25576,0.32402 -1.01101,0.72003 0.24475,0.396013 -0.15674,1.219433 -0.8922,1.829803 -1.00873,0.83717 -1.73052,0.67517 -2.9384,-0.65953 z M 94.649857,97.492667 c -0.10813,-2.51742 4.52415,-6.30566 6.631443,-5.42313 1.50239,0.6292 1.28846,0.89673 -1.290753,1.61407 -1.7004,0.47292 -3.58244,1.87796 -4.18232,3.1223 -0.73745,1.52972 -1.1126,1.75214 -1.15837,0.68676 z m 46.092363,-3.09759 c -0.17077,-3.91953 -4.22779,-9.82672 -6.74893,-9.82672 -0.77611,0 -1.41111,-0.45 -1.41111,-1 0,-1.265351 0.35045,-1.253078 3.35882,0.11763 3.40681,1.55224 5.90921,6.60651 5.38794,10.88237 l -0.42669,3.5 -0.16003,-3.67328 z m -35.45119,1.5488 c -1.4416,-1.4416 -0.64447,-2.48986 1.39995,-1.84099 1.96826,0.6247 2.08441,0.36262 1.74279,-3.93261 -0.2013,-2.53106 -0.009,-4.60192 0.42639,-4.60192 0.43581,0 0.34718,-0.83188 -0.19696,-1.848612 -1.21925,-2.278184 1.89516,-13.350303 4.60914,-16.386113 1.81486,-2.030072 9.45465,-5.792633 11.64275,-5.734003 0.6419,0.0172 -0.91006,1.049711 -3.44881,2.29447 -5.78941,2.838576 -7.15521,4.211093 -9.68773,9.735343 -1.54809,3.376899 -1.76151,4.757959 -0.89636,5.800405 0.93439,1.125873 1.40691,0.953534 2.66775,-0.973001 2.56409,-3.917848 7.1789,-8.888489 8.25219,-8.888489 0.55703,0 -0.51095,1.6875 -2.37329,3.75 -1.86233,2.0625 -4.136,4.821657 -5.05259,6.13146 -1.04338,1.490991 -2.25125,2.157082 -3.2303,1.781385 -0.86007,-0.330042 -1.56377,-0.164199 -1.56377,0.36854 0,0.532738 0.63287,0.968615 1.40638,0.968615 0.91405,0 1.22329,0.700137 0.88337,2 -0.28766,1.1 -0.83615,2 -1.21888,2 -0.38273,0 -0.69399,2.1375 -0.6917,4.75 0.003,3.97308 -0.32015,4.79779 -1.97865,5.04218 -1.09055,0.1607 -2.3018,-0.0268 -2.69167,-0.41666 z m 59.79951,-6.19497 c -1.64541,-1.92957 -2.34779,-3.29369 -1.56085,-3.03138 1.57756,0.52585 5.67516,5.6043 4.98552,6.1789 -0.23817,0.19844 -1.77927,-1.21794 -3.42467,-3.14752 z m -83.869983,1.31945 c 0.31658,-0.825 0.96333,-1.5 1.43723,-1.5 0.47389,0 0.6026,0.675 0.28602,1.5 -0.31658,0.825 -0.96333,1.5 -1.43723,1.5 -0.47389,0 -0.6026,-0.675 -0.28602,-1.5 z m 43.802753,-1.0318 c 1.06762,-0.80751 2.41762,-1.45389 3,-1.4364 0.58238,0.0175 0.18536,0.69249 -0.88226,1.5 -1.06762,0.80751 -2.41762,1.45389 -3,1.4364 -0.58238,-0.0175 -0.18536,-0.6925 0.88226,-1.5 z m -11.85862,-3.4682 c 0.74187,-2.785017 1.21478,-3.53604 1.83566,-2.91516 0.23,0.229995 -0.23877,1.54249 -1.04171,2.91667 l -1.45989,2.49849 0.66594,-2.5 z m 36.41749,1.29377 c -0.825,-0.30158 -2.5125,-1.4695 -3.75,-2.59537 -1.2375,-1.125863 -2.25,-1.65226 -2.25,-1.169766 0,0.482496 -1.6875,-0.762273 -3.75,-2.766148 -6.8461,-6.651504 -14.01665,-7.662288 -19.59722,-2.762486 -1.87924,1.65 -3.69872,3 -4.04327,3 -1.43899,0 2.16676,-4.253454 5.66734,-6.685369 3.44234,-2.391458 4.01804,-2.503621 6.5,-1.266396 1.49773,0.7466 3.06065,1.517732 3.47315,1.713627 0.4125,0.195894 0.75,-0.08909 0.75,-0.633294 0,-0.544206 -1.0125,-1.13382 -2.25,-1.310252 -1.2375,-0.176432 -1.79882,-0.615487 -1.24738,-0.975678 1.47529,-0.963635 8.49101,1.702917 10.90645,4.145355 2.02825,2.050916 2.03098,2.092975 0.0909,1.403023 -1.76384,-0.627285 -1.70713,-0.390138 0.48018,2.00832 1.38504,1.518745 2.64644,2.220808 2.85671,1.589981 0.21409,-0.642272 1.00716,-0.229286 1.83825,0.957265 0.80394,1.147783 1.79985,1.87789 2.21315,1.622461 0.41329,-0.255429 2.745,0.196572 5.18157,1.004447 2.90449,0.96302 3.397,1.3135 1.43014,1.01772 -1.65,-0.24813 -3.9,-0.77936 -5,-1.18051 -1.18143,-0.43084 -1.66366,-0.35719 -1.17823,0.17997 0.45197,0.50013 2.25197,1.43759 4,2.08325 2.10925,0.77908 2.50554,1.17296 1.17823,1.17105 -1.1,-0.002 -2.675,-0.24962 -3.5,-0.5512 z m -11,-10.758586 c 0,-0.255649 -1.0125,-1.004323 -2.25,-1.66372 -2.04022,-1.087124 -2.12204,-1.043787 -0.87756,0.464816 1.27783,1.549019 3.12756,2.258087 3.12756,1.198904 z m 18.75,10.802536 c 0.6875,-0.27741 1.8125,-0.27741 2.5,0 0.6875,0.27741 0.125,0.50438 -1.25,0.50438 -1.375,0 -1.9375,-0.22697 -1.25,-0.50438 z m -51.518,-3.33772 c 0,-1.925 0.2058,-2.7125 0.45733,-1.75 0.25152,0.9625 0.25152,2.5375 0,3.5 -0.25153,0.9625 -0.45733,0.175 -0.45733,-1.75 z M 87.582177,84.276133 c 2.20382,-2.315718 6.20637,-3.01192 8.33925,-1.450527 1.65812,1.213841 1.46117,1.345512 -2,1.337084 -2.11159,-0.0051 -4.73925,0.372917 -5.83925,0.840127 -1.7958,0.76275 -1.84685,0.68856 -0.5,-0.726684 z m 38.441133,-0.155997 c 1.06762,-0.853478 2.62012,-1.551779 3.45,-1.551779 2.11386,0 0.19421,1.619705 -2.89113,2.43938 -2.4026,0.6383 -2.42437,0.60372 -0.55887,-0.887601 z m 8.05887,-4.087894 c -1.65,-0.755522 -2.29851,-1.393974 -1.44113,-1.418781 0.85738,-0.02481 2.43238,0.615584 3.5,1.423093 2.37041,1.792884 1.86374,1.791823 -2.05887,-0.0043 z m -7,-0.463885 c 0.33992,-0.55 1.37898,-0.993109 2.30902,-0.984687 1.45727,0.0132 1.48367,0.149288 0.19098,0.984687 -1.95837,1.265597 -3.28218,1.265597 -2.5,0 z m -15.4905,-0.79966 c -0.0304,-4.154057 8.33238,-14.238432 11.74282,-14.160302 1.22561,0.02808 0.90581,0.496379 -1.07052,1.567672 -1.55001,0.840199 -4.58324,4.309682 -6.7405,7.709962 -2.15727,3.400281 -3.92657,5.597481 -3.9318,4.882668 z M 83.582177,78.010341 c 0,-0.420861 1.6875,-2.271302 3.75,-4.112092 2.63791,-2.354345 4.63968,-3.307065 6.75,-3.212599 1.65,0.07386 4.96689,-0.336701 7.370863,-0.912358 2.40397,-0.575658 3.97897,-0.708124 3.5,-0.294371 -1.30417,1.126593 -8.738973,3.089436 -11.702083,3.089436 -1.4813,0 -4.11946,1.334821 -6.13398,3.103592 -1.94414,1.706976 -3.5348,2.759252 -3.5348,2.338392 z M 4.9806972,41.404151 c -0.2841,-0.459687 0.18501,-0.835794 1.04247,-0.835794 2.28393,0 2.341,-25.762692 0.059,-26.638374 -3.1923,-1.225001 -1.23693,-1.915775 4.7499998,-1.678032 4.99484,0.198346 6.60145,0.678941 8,2.393082 2.37706,2.913448 2.25123,8.159744 -0.25,10.423324 -1.1,0.995486 -2,2.470331 -2,3.277432 0,1.171405 -0.29378,1.223641 -1.45619,0.258923 -2.0658,-1.714464 -3.81759,-0.263335 -3.10578,2.572739 0.66116,2.634261 -0.26705,3.062477 -2.4730498,1.140906 -0.78926,-0.6875 -0.42926,-0.096 0.7999998,1.314451 1.22927,1.410448 2.23502,3.647948 2.23502,4.972222 l 0,2.407771 2.16422,-2.16421 c 1.42785,-1.427858 2.12183,-3.291484 2.03965,-5.477371 -0.15722,-4.18199 1.25054,-6.748462 2.83341,-5.165588 1.58934,1.589338 2.51871,9.362725 1.11939,9.362725 -0.6963,0 -0.88418,-1.112447 -0.50667,-3 0.34667,-1.733333 0.17778,-3 -0.4,-3 -0.55,0 -1,1.202406 -1,2.672014 0,1.469607 -0.8109,3.264957 -1.80199,3.989667 -0.9911,0.72471 -1.4927,1.626953 -1.11467,2.004986 0.37803,0.378032 1.28899,-0.135489 2.02435,-1.141158 0.88223,-1.206523 1.56855,-1.453873 2.01768,-0.727173 0.37436,0.605725 -0.11945,1.517921 -1.09736,2.027103 -2.42126,1.260719 -13.2381098,2.04813 -13.8794898,1.010355 z M 10.400957,25.520238 c -0.0307,-2.226465 -0.26163,-3.842356 -0.5131198,-3.590868 -0.83644,0.836441 -1.04041,7.638987 -0.22905,7.638987 0.4389198,0 0.7728898,-1.821653 0.7421698,-4.048119 z m 5.44319,-2.775183 c 1.03182,-2.068335 1.11233,-3.283697 0.31332,-4.73012 -0.59141,-1.070618 -1.1269,-2.07319 -1.18998,-2.227938 -0.0631,-0.154748 -1.05296,-0.462054 -2.19974,-0.682903 -1.7623,-0.339388 -1.96799,-0.06365 -1.32881,1.78136 0.41592,1.200597 0.68857,3.532903 0.60587,5.182903 -0.2695,5.377339 1.31368,5.659318 3.79934,0.676698 z m 8.77056,17.884067 c -1.56707,-2.928088 0.42822,-6.753192 2.58777,-4.960927 1.68858,1.401395 1.47653,6.050118 -0.30259,6.633808 -0.65026,0.213337 -1.6786,-0.53946 -2.28518,-1.672881 z m 1.13592,-2.292315 c -0.74206,-0.742068 -0.87221,-0.351636 -0.43723,1.311709 0.35361,1.352204 0.8069,1.805497 1.05655,1.056551 0.24048,-0.721441 -0.0382,-1.787158 -0.61932,-2.36826 z m 35.03155,3.03155 c -2.37845,-2.378456 -1.40886,-7.747354 2.00947,-11.126923 3.3804,-3.342068 4.06835,-5.050462 3.19053,-7.923077 -0.92446,-3.025247 -2.4,-1.904255 -2.4,1.823324 0,2.862928 -0.34791,3.507346 -1.75,3.24145 -2.57428,-0.488195 -2.72355,-4.929349 -0.25474,-7.579305 2.6719,-2.867952 5.55779,-2.847245 7.45844,0.05352 2.13604,3.260007 1.95507,16.503525 -0.26252,19.211016 -0.90096,1.1 -0.99755,1.4375 -0.21464,0.75 0.7829,-0.6875 2.07821,-1.25 2.87845,-1.25 1.15303,0 1.07784,0.416742 -0.36231,2.008096 -1.64269,1.815152 -1.9801,1.860769 -3.51161,0.474771 -1.51816,-1.373915 -1.8259,-1.374757 -2.96013,-0.0081 -1.52642,1.839229 -2.24571,1.900453 -3.82094,0.325228 z m 5.8,-7.593704 c 0,-1.401848 0.74475,-3.371748 1.65499,-4.377555 0.91025,-1.005808 1.16791,-1.828741 0.57258,-1.828741 -1.93833,0 -5.22757,5.195573 -5.22757,8.257303 0,2.54225 0.2236,2.80202 1.5,1.742697 0.825,-0.684689 1.5,-2.391856 1.5,-3.793704 z m 1.68312,0.606204 c -0.31923,-0.797733 -0.55618,-0.560776 -0.60417,0.604167 -0.0434,1.054166 0.19293,1.644791 0.52522,1.3125 0.33229,-0.332292 0.36782,-1.194792 0.079,-1.916667 z m -0.46516,-13.994542 c -0.62613,-0.626137 -0.76551,0.0314 -0.39345,1.856219 0.42673,2.092959 0.67819,2.344421 0.9696,0.969603 0.2164,-1.020921 -0.0429,-2.292541 -0.57615,-2.825822 z m -33.52664,20.393981 c 1.1643,-0.740261 2.44119,-27.096067 1.30868,-27.012147 -1.80768,0.13395 -3,-0.338387 -3,-1.188452 0,-0.543763 1.85418,-0.881263 4.1204,-0.75 l 4.1204,0.23866 1.82195,7 c 2.21888,8.524976 2.26906,9.239263 0.68725,9.783152 -0.6875,0.236391 -0.42695,0.30222 0.57899,0.146288 1.21655,-0.188578 1.64974,0.183614 1.29368,1.111498 -0.29443,0.767257 -0.21185,1.594924 0.18349,1.839262 0.39535,0.244337 1.8382,-4.240424 3.20633,-9.966136 l 2.48751,-10.410384 3.75,-0.0018 c 4.08192,-0.002 4.63224,0.63257 2.13325,2.459872 -1.31074,0.95844 -1.60257,3.061312 -1.54185,11.110243 0.0613,8.121965 -0.15138,9.628232 -1.16896,8.279969 -1.05309,-1.395307 -1.24386,-0.973532 -1.24386,2.75 0,2.418942 0.38013,4.398076 0.84473,4.398076 0.4646,0 0.64948,-0.3375 0.41084,-0.75 -0.23863,-0.4125 -0.0718,-1.65 0.3707,-2.75 0.77098,-1.91646 0.80752,-1.908094 0.87487,0.20031 0.0387,1.21017 0.85778,2.658986 1.82028,3.219591 1.36364,0.794246 0.67427,1.025995 -3.12244,1.04969 -3.82653,0.02388 -4.64629,-0.24209 -3.81889,-1.239042 1.0682,-1.287112 2.14946,-22.736541 1.14594,-22.732659 -0.52237,0.002 -4.39655,14.244943 -5.57674,20.50211 -0.88937,4.715336 -1.83784,4.877334 -2.79549,0.477473 -1.20023,-5.514353 -5.29246,-20.020894 -5.78744,-20.515871 -0.29138,-0.291379 -0.31004,4.54806 -0.0415,10.754309 0.29257,6.760839 0.94092,11.57859 1.61742,12.018776 0.62101,0.404038 -0.4459,0.734647 -2.3709,0.734647 -1.96798,0 -2.97853,-0.331544 -2.30868,-0.757435 z m 8.9918,-9.399439 c -0.31923,-0.797733 -0.55618,-0.560776 -0.60417,0.604167 -0.0434,1.054166 0.19293,1.644791 0.52522,1.3125 0.33229,-0.332292 0.36782,-1.194792 0.0789,-1.916667 z m 10.81688,-1.8125 c 0.33992,-0.55 0.14148,-1 -0.44098,-1 -0.58246,0 -1.05902,0.45 -1.05902,1 0,0.55 0.19845,1 0.44099,1 0.24254,0 0.7191,-0.45 1.05901,-1 z m -12.13837,-6.5 c -0.31658,-0.825 -1.03256,-1.5 -1.59106,-1.5 -0.5853,0 -0.48811,0.635407 0.22943,1.5 0.68469,0.825 1.40067,1.5 1.59106,1.5 0.1904,0 0.0872,-0.675 -0.22943,-1.5 z m -1.78796,-5.27381 c -1.72776,-1.650222 -1.75458,-1.6234 -0.60946,0.609456 0.65881,1.284606 1.47209,2.061392 1.80729,1.726191 0.3352,-0.335201 -0.20382,-1.386242 -1.19783,-2.335647 z m 14.42633,-1.22619 c 0,-2.220551 -0.45467,-2.979488 -1.75,-2.921053 -1.04543,0.04716 -1.24674,0.282017 -0.5,0.583334 0.6875,0.277412 1.25,1.591886 1.25,2.921052 0,1.329167 0.225,2.416667 0.5,2.416667 0.275,0 0.5,-1.35 0.5,-3 z m 18.46269,24.060379 c 0.37153,-0.601152 1.09374,-0.834521 1.60492,-0.518599 0.51117,0.315922 0.81757,-0.464237 0.6809,-1.733688 -0.16101,-1.495417 0.27964,-2.308092 1.25149,-2.308092 0.93334,0 1.5,0.944444 1.5,2.5 0,2.006937 -0.56335,2.564432 -2.85641,2.826691 -1.8742,0.214354 -2.62413,-0.04915 -2.1809,-0.766312 z m 3.6614,-3.327046 c -0.98761,-0.980267 -1.10248,-0.865403 -0.55979,0.559795 0.37553,0.986221 0.93469,1.541221 1.24258,1.233333 0.30788,-0.307887 6.3e-4,-1.114794 -0.68279,-1.793128 z m 4.08122,2.891966 c 0.70629,-0.756086 1.96154,-1.118765 2.78943,-0.805954 1.13677,0.429516 1.07686,0.136554 -0.24474,-1.196727 -2.39559,-2.416777 -2.39559,-6.804311 0,-5.897187 1.66667,0.631106 1.66667,0.578591 0,-1.102813 -1.15169,-1.161878 -1.75,-3.321419 -1.75,-6.316491 0,-3.931965 -0.20403,-4.381681 -1.5,-3.306127 -0.825,0.684689 -1.51,2.652289 -1.52223,4.372445 l -0.0222,3.127555 -2.10053,-2.5 c -2.09085,-2.488489 -2.09391,-2.488884 -0.66275,-0.08579 0.79078,1.327817 2.23726,2.531551 3.2144,2.674965 2.57206,0.377499 2.70941,0.761436 1.33287,3.725871 -1.3292,2.862477 -3.374,3.780776 -2.32361,1.043508 0.52666,-1.372472 0.38033,-1.434339 -0.89301,-0.377555 -0.95015,0.788554 -1.5229,0.863945 -1.5229,0.200463 0,-0.584886 0.47693,-1.358186 1.05985,-1.718446 0.67128,-0.414879 0.41411,-1.127182 -0.70148,-1.942926 -2.04776,-1.497355 -2.2551,-7.734663 -0.33407,-10.049367 1.70878,-2.058945 11.42453,-2.082717 10.6353,-0.02602 -0.83863,2.185439 -0.95881,17.808376 -0.15236,19.805298 0.59606,1.475929 0.13567,1.75 -2.93967,1.75 -3.04964,0 -3.43625,-0.224986 -2.36226,-1.374701 z m 7.79469,0.374701 c 0,-0.55 0.40788,-1 0.90638,-1 0.49851,0 0.69012,-1.0125 0.42578,-2.25 -0.42062,-1.969194 -0.31533,-2.055062 0.84362,-0.688029 0.72833,0.859084 2.11172,1.857461 3.07422,2.218615 2.96871,1.113932 1.93555,2.719414 -1.75,2.719414 -1.925,0 -3.5,-0.45 -3.5,-1 z m 8.38943,-0.572442 c 0.33187,-0.864843 0.15141,-2.417004 -0.40103,-3.449247 -1.5837,-2.959172 -1.72072,-8.189287 -0.30579,-11.672414 0.71364,-1.756757 1.02885,-3.894257 0.70047,-4.75 -0.46257,-1.205439 0.11424,-1.555897 2.56083,-1.555897 l 3.157873,0 -2.55089,3.344391 c -1.402983,1.839415 -2.550893,4.029406 -2.550893,4.866647 0,2.019825 4.206953,12.19699 5.218553,12.624372 1.73043,0.731069 -0.51103,2.16459 -3.384553,2.16459 -2.36088,0 -2.91195,-0.354472 -2.44457,-1.572442 z m 3.110573,-0.427558 c 0.33992,-0.55 0.14148,-1 -0.440983,-1 -0.58246,0 -1.05902,0.45 -1.05902,1 0,0.55 0.19845,1 0.44099,1 0.24254,0 0.71909,-0.45 1.059013,-1 z m 6.07143,0.428571 c -1.72582,-1.725814 -2.1595,-3.910055 -0.58288,-2.93565 0.55819,0.344986 0.73943,-0.03821 0.41631,-0.880245 -0.31472,-0.820159 -0.0982,-2.306031 0.48105,-3.301937 0.88493,-1.521336 1.06058,-1.251349 1.09899,1.689261 0.0621,4.752259 1.26798,6.605145 2.96668,4.558345 0.70127,-0.844978 1.78655,-1.229897 2.41173,-0.855376 0.82715,0.495514 0.8449,0.288278 0.0652,-0.761011 -0.58933,-0.793077 -1.13447,-4.552095 -1.21141,-8.353373 -0.0769,-3.801278 -0.56804,-7.339569 -1.09134,-7.862868 -1.2647,-1.264694 -3.12187,-0.03292 -3.14103,2.0833 -0.0132,1.457275 -0.14933,1.48367 -0.98473,0.190983 -0.58246,-0.901292 -0.97549,-1.024633 -0.98469,-0.309017 -0.008,0.655041 0.43469,1.469098 0.98469,1.809017 1.08749,0.672107 1.40371,5.5 0.36024,5.5 -0.35186,0 -1.16686,-0.720855 -1.81109,-1.6019 -0.95697,-1.308735 -1.11569,-0.89696 -0.86728,2.25 0.28753,3.642449 0.24628,3.704592 -0.75859,1.142839 -1.25531,-3.200216 0.97741,-12.452578 2.90565,-12.040939 0.64409,0.1375 1.05857,-0.3125 0.92107,-1 -0.14544,-0.727217 0.77212,-1.25 2.19395,-1.25 5.5179,0 8.4425,12.984426 4.59879,20.417347 -1.79521,3.471553 -5.33912,4.143418 -7.97131,1.511224 z m 8.21633,-6.565281 c -0.24965,-0.748946 -0.70294,-0.295653 -1.05655,1.056551 -0.43497,1.663345 -0.30483,2.053777 0.43724,1.311709 0.5811,-0.581102 0.85979,-1.646819 0.61931,-2.36826 z m 1.21224,-3.411262 c 0,-1.181387 -1.89074,-1.179139 -2.34429,0.0028 -0.36945,0.962773 -0.0714,1.258189 0.89522,0.887268 0.79699,-0.305846 1.44907,-0.706371 1.44907,-0.890068 z m 1,10.547972 c 0,-0.55 0.47918,-1 1.06484,-1 0.6853,0 0.8855,-1.967836 0.5617,-5.520886 -0.30197,-3.313433 -0.12798,-5.28902 0.43516,-4.940983 0.51606,0.318947 0.9383,0.140845 0.9383,-0.395781 0,-0.536626 -0.38534,-1.125683 -0.85632,-1.309017 -0.47098,-0.183333 -1.08084,-2.383336 -1.35525,-4.888895 l -0.49892,-4.555562 3.10524,0.359774 c 7.73578,0.896267 9.52541,2.700958 7.62781,7.692005 -1.0436,2.744876 -4.33443,3.117315 -3.46966,0.392678 0.71321,-2.247122 -0.32434,-5.833333 -1.68768,-5.833333 -0.55,0 -0.73321,0.840563 -0.40714,1.867918 0.32607,1.027355 0.13538,3.071167 -0.42376,4.541803 -0.76742,2.018477 -0.71238,2.634596 0.22454,2.513599 0.68263,-0.08816 2.26478,-0.106968 3.51589,-0.0418 4.45232,0.231904 5.24937,8.96484 1.02458,11.225881 -2.43829,1.30493 -3.94735,0.114568 -1.55326,-1.225228 1.9895,-1.113385 4.26052,-4.882173 2.94193,-4.882173 -0.48531,0 -1.32974,1.002591 -1.87652,2.227979 -0.92154,2.065237 -1.00083,1.993167 -1.08556,-0.986658 -0.11157,-3.924252 -0.63838,-4.854413 -3.11635,-5.502418 -1.41942,-0.371185 -2.03809,0.106853 -2.36734,1.829193 -0.24922,1.303733 0.10031,2.54124 0.79283,2.806986 0.83245,0.31944 1.06009,-0.207244 0.69423,-1.606272 -0.36446,-1.393701 -0.16962,-1.849966 0.58962,-1.380732 1.28598,0.794779 1.19846,9.611922 -0.0954,9.611922 -0.46284,0 -0.52396,-0.5625 -0.13581,-1.25 0.56457,-1 0.43638,-1 -0.64099,0 -1.61454,1.498603 -3.9467,1.646332 -3.9467,0.25 z m 3.66228,-20.25 c -0.27741,-0.6875 -0.50439,-0.125 -0.50439,1.25 0,1.375 0.22698,1.9375 0.50439,1.25 0.27741,-0.6875 0.27741,-1.8125 0,-2.5 z m 13.6154,20 c -1.57687,-2.037904 -2.28846,-4.75 -1.2463,-4.75 0.53274,0 0.96862,0.45 0.96862,1 0,0.55 0.42331,1 0.9407,1 0.51738,0 0.33969,-1.158443 -0.39488,-2.574318 -0.73456,-1.415875 -1.17277,-4.453375 -0.97379,-6.75 l 0.36178,-4.175682 -0.84699,3.980712 c -0.46584,2.189391 -0.6278,4.551891 -0.35991,5.25 0.26789,0.698108 -0.0111,1.269288 -0.61992,1.269288 -1.72085,0 -1.23672,-9.037143 0.69643,-13 1.10518,-2.265568 2.53817,-3.617834 4.06296,-3.834096 1.6691,-0.236728 2.13251,0.02688 1.5901,0.904509 -0.51695,0.836442 -0.35434,0.984494 0.50081,0.45598 1.62394,-1.003644 3.00753,1.155158 3.0274,4.723607 0.0214,3.842748 -2.85572,3.644855 -3.63469,-0.25 -0.33,-1.65 -0.94561,-3 -1.36801,-3 -2.24931,0 -2.65503,8.453421 -0.63747,13.282119 1.83529,4.392471 1.8064,5.273742 -0.1601,4.884307 -1.30615,-0.258664 -1.4188,-0.06042 -0.50164,0.882782 1.66815,1.715498 4.1678,0.473985 5.36021,-2.662271 0.55713,-1.465372 1.25856,-2.418723 1.55872,-2.118556 0.30017,0.300167 -0.17397,1.937577 -1.05365,3.638689 -1.69714,3.281904 -5.42565,4.227023 -7.27038,1.84293 z m 11.84127,-2.461777 c 1.93561,-3.446192 2.61021,-5.963905 0.88105,-3.288223 -0.73166,1.132161 -0.98966,0.641708 -1.05209,-2 -0.15689,-6.638412 -0.65301,-11.504606 -1.33079,-13.052858 -0.55436,-1.266323 -0.0633,-1.480889 2.66108,-1.162829 l 3.34087,0.390028 -0.63025,4.91283 c -0.34664,2.702056 -0.33296,4.912829 0.0304,4.912829 1.0235,0 3.30776,-7.661919 2.61732,-8.779073 -0.58209,-0.941843 4.40945,-2.49283 5.274,-1.638753 0.22579,0.22306 -0.27888,1.195823 -1.12151,2.161695 -3.61662,4.145636 -4.00498,6.115775 -2.17975,11.057952 0.95431,2.583998 2.22012,5.34706 2.81292,6.140137 0.8125,1.08702 0.77011,1.257106 -0.1722,0.690983 -0.6875,-0.413036 -1.25,-0.274417 -1.25,0.308042 0,0.582459 0.70156,1.059017 1.55902,1.059017 0.85746,0 1.34035,0.3538 1.0731,0.786222 -0.26725,0.432422 -1.70435,0.732884 -3.19356,0.667693 -2.76668,-0.121114 -3.09093,-0.899237 -3.76579,-9.037248 -0.095,-1.145834 -0.73527,-2.083334 -1.42277,-2.083334 -1.43163,0 -1.56273,2.61751 -0.38469,7.680619 0.80372,3.454331 0.76292,3.51488 -2.40491,3.568639 l -3.2225,0.05469 1.88105,-3.349055 z m 8.56416,-3.475723 c -0.31922,-0.797733 -0.55618,-0.560776 -0.60416,0.604167 -0.0434,1.054166 0.19292,1.644791 0.52522,1.3125 0.33229,-0.332292 0.36781,-1.194792 0.0789,-1.916667 z m -0.68311,-2.930534 c 0,-0.55 -0.45,-0.721885 -1,-0.381966 -0.55,0.339919 -1,1.068034 -1,1.618034 0,0.55 0.45,0.721885 1,0.381966 0.55,-0.339919 1,-1.068034 1,-1.618034 z m -6.33772,-2.131966 c -0.27741,-0.6875 -0.50439,-0.125 -0.50439,1.25 0,1.375 0.22698,1.9375 0.50439,1.25 0.27741,-0.6875 0.27741,-1.8125 0,-2.5 z m 0.42259,-5.854816 c -0.88096,-2.202333 -0.9632,-2.227442 -1.02148,-0.311851 -0.0349,1.145834 0.23661,2.383334 0.60328,2.75 1.19437,1.194377 1.39751,0.01007 0.4182,-2.438149 z m 12.59394,15.688779 c 0.3895,-1.14618 0.601,-5.644974 0.46999,-9.99732 -0.16801,-5.581591 0.1433,-8.17217 1.0565,-8.791697 0.92995,-0.630891 0.76048,-0.796163 -0.60156,-0.586644 -1.04294,0.160434 -2.08879,-0.258353 -2.32411,-0.930637 -0.289,-0.825634 0.70334,-1.179809 3.05763,-1.091302 3.28685,0.123566 3.46435,0.307208 3.11456,3.222335 -0.20402,1.700216 -0.5845,5.341302 -0.84551,8.091302 l -0.47457,5 1.98457,-5.5 c 1.10721,-3.068527 1.75227,-6.715736 1.45912,-8.25 -0.47602,-2.491408 -0.25123,-2.75 2.39055,-2.75 3.10109,0 4.78096,1.420331 2.98943,2.527556 -1.07754,0.66596 -0.65546,17.530719 0.48493,19.375913 0.29659,0.47989 -0.80872,1.070367 -2.45623,1.312172 -3.31013,0.485823 -4.26043,0.04048 -3.2842,-1.539098 0.81864,-1.324598 1.00924,-11.820423 0.19752,-10.876932 -1.18948,1.382554 -3.09923,10.064858 -2.44626,11.121388 0.36678,0.593451 0.30281,1.116501 -0.14215,1.162334 -0.44496,0.04583 -1.82813,0.196117 -3.07371,0.333964 -1.89279,0.209472 -2.14839,-0.09159 -1.5565,-1.833334 z m 2.44528,-4.85063 c -0.98762,-0.980267 -1.10248,-0.865403 -0.5598,0.559795 0.37553,0.986221 0.93469,1.541221 1.24258,1.233333 0.30789,-0.307887 6.4e-4,-1.114794 -0.68278,-1.793128 z m 8.15405,-1.855188 c -0.61702,-0.61702 -0.88957,-1.85452 -0.60566,-2.75 0.4361,-1.37554 0.35528,-1.400625 -0.52095,-0.161683 -0.98275,1.389572 0.11253,4.033538 1.67091,4.033538 0.31766,0 0.0727,-0.504835 -0.5443,-1.121855 z m -8.16548,-6.040023 c -0.76374,-2.01074 -0.87598,-1.810178 -0.80161,1.432389 0.0562,2.449862 0.36726,3.268806 0.88809,2.338122 0.44089,-0.787814 0.40197,-2.484543 -0.0865,-3.770511 z m 13.87137,14.257058 c -1.18649,-0.475851 -1.48403,-2.808765 -1.48403,-11.635915 l 0,-11.040734 2.77997,0.408632 c 2.32046,0.34109 2.6676,0.761049 2.10018,2.540735 -0.37389,1.172656 -0.62261,3.68687 -0.55272,5.587141 0.0699,1.900272 -0.42518,3.805881 -1.10017,4.234687 -0.88945,0.565045 -0.7981,0.783863 0.33187,0.794961 2.03203,0.01996 5.33134,-9.809278 3.87971,-11.558379 -0.73673,-0.887701 -0.0607,-1.310016 2.59301,-1.61982 1.97426,-0.230483 3.8138,-0.05623 4.08787,0.387226 0.27407,0.443457 0.0218,0.806286 -0.5607,0.806286 -1.60355,0 -1.41866,19.688214 0.19098,20.337719 0.6875,0.277413 -0.42338,0.539913 -2.46862,0.583334 -2.66256,0.05653 -3.57691,-0.29033 -3.21963,-1.221366 0.68266,-1.778982 1.05963,-12.701834 0.43825,-12.698565 -1.17271,0.0062 -3.83036,11.498361 -2.91432,12.602117 1.13191,1.363872 -1.77999,2.423054 -4.10165,1.491941 z m 10.01597,-2.09518 c 0,-0.55 -0.19844,-1 -0.44098,-1 -0.24254,0 -0.7191,0.45 -1.05902,1 -0.33992,0.55 -0.14148,1 0.44098,1 0.58246,0 1.05902,-0.45 1.05902,-1 z m -0.38214,-7.055173 c 0.0807,-1.604552 -0.2552,-2.668963 -0.74644,-2.365358 -0.49125,0.303604 -0.79403,1.853174 -0.67285,3.443488 0.27321,3.585591 1.22095,2.865667 1.41929,-1.07813 z m -7.61786,-2.944827 c 0,-0.55 -0.45,-1 -1,-1 -0.55,0 -1,0.45 -1,1 0,0.55 0.45,1 1,1 0.55,0 1,-0.45 1,-1 z m -1.31689,-5.1875 c -0.31922,-0.797733 -0.55618,-0.560776 -0.60416,0.604167 -0.0434,1.054166 0.19292,1.644791 0.52522,1.3125 0.33229,-0.332292 0.36781,-1.194792 0.0789,-1.916667 z m 8.77188,-1.5625 c 0.37388,-1.2375 0.27446,-2.25 -0.22094,-2.25 -0.49539,0 -0.92212,0.5625 -0.94827,1.25 -0.0262,0.6875 -0.39239,2.15 -0.81385,3.25 -0.52449,1.368919 -0.43977,1.68446 0.2685,1 0.56913,-0.55 1.34068,-2.0125 1.71456,-3.25 z M 91.628797,36.126552 c -1.61001,-1.942191 -2.4538,-5.566837 -1.29034,-5.542882 0.40905,0.0084 1.41872,0.451531 2.24372,0.984687 1.33334,0.861666 1.33334,0.972777 0,1 -1.2164,0.02484 -1.24507,0.192182 -0.1516,0.88514 0.74161,0.469983 1.19161,1.658169 1,2.640413 -0.33165,1.700046 -0.41826,1.701615 -1.80178,0.03264 z m 0.83496,-6.308195 c -0.0651,-0.4125 -0.0397,-1.163673 0.0564,-1.669273 0.0962,-0.5056 -0.52554,-0.337999 -1.38158,0.372445 -1.36488,1.13276 -1.55642,0.794477 -1.55642,-2.74894 0,-2.222361 -0.27314,-4.752461 -0.60698,-5.622445 -0.48547,-1.265115 0.12694,-1.581787 3.05901,-1.581787 2.07775,0 3.40995,0.414319 3.07497,0.956326 -0.32508,0.525979 -1.20612,0.720301 -1.95787,0.431826 -0.75175,-0.288474 -1.66071,-0.04898 -2.01991,0.53222 -0.39746,0.643095 -0.0456,0.823613 0.89885,0.461185 1.22171,-0.468816 1.55193,0.154563 1.55193,2.929667 0,1.93886 0.27315,4.237005 0.60699,5.106989 0.33385,0.869983 0.10885,1.581787 -0.5,1.581787 -0.60884,0 -1.16027,-0.3375 -1.22541,-0.75 z m 0.11842,-4.809017 c 0,-0.857459 -0.45734,-1.276365 -1.01631,-0.930902 -0.55897,0.345464 -0.75741,1.047021 -0.44098,1.559017 0.85724,1.387044 1.45729,1.128411 1.45729,-0.628115 z m 86.010573,-9.928248 c -0.67888,-0.817996 -0.9731,-2.167996 -0.65383,-3 0.31927,-0.832004 0.11806,-1.512735 -0.44714,-1.512735 -0.5652,0 -0.73601,-0.471851 -0.37959,-1.0485584 0.91558,-1.481438 3.49898,0.8094344 2.84238,2.5205204 -0.54387,1.417292 1.35799,3.130991 2.3613,2.127685 0.33034,-0.330343 0.6733,-1.587205 0.76214,-2.793027 0.21479,-2.9155444 2.10597,-3.4373554 2.80263,-0.773299 0.349,1.334564 -0.15756,2.825781 -1.37267,4.040892 -2.30838,2.308375 -4.24427,2.451892 -5.91522,0.438522 z"
     id="path3048"
     inkscape:connector-curvature="0" />
</svg>
