<?xml version="1.0" encoding="UTF-8" standalone="no"?>
<svg
   xmlns:dc="http://purl.org/dc/elements/1.1/"
   xmlns:cc="http://creativecommons.org/ns#"
   xmlns:rdf="http://www.w3.org/1999/02/22-rdf-syntax-ns#"
   xmlns:svg="http://www.w3.org/2000/svg"
   xmlns="http://www.w3.org/2000/svg"
   xmlns:sodipodi="http://sodipodi.sourceforge.net/DTD/sodipodi-0.dtd"
   xmlns:inkscape="http://www.inkscape.org/namespaces/inkscape"
   width="777"
   height="480"
   id="svg3142"
   version="1.1"
   inkscape:version="0.48.4 r9939"
   sodipodi:docname="flag_front.svg">
  <metadata
     id="metadata3160">
    <rdf:RDF>
      <cc:Work
         rdf:about="">
        <dc:format>image/svg+xml</dc:format>
        <dc:type
           rdf:resource="http://purl.org/dc/dcmitype/StillImage" />
      </cc:Work>
    </rdf:RDF>
  </metadata>
  <defs
     id="defs3158" />
  <sodipodi:namedview
     pagecolor="#ffffff"
     bordercolor="#666666"
     borderopacity="1"
     objecttolerance="10"
     gridtolerance="10"
     guidetolerance="10"
     inkscape:pageopacity="0"
     inkscape:pageshadow="2"
     inkscape:window-width="1572"
     inkscape:window-height="873"
     id="namedview3156"
     showgrid="false"
     inkscape:zoom="0.63339295"
     inkscape:cx="188.09796"
     inkscape:cy="442.78528"
     inkscape:window-x="507"
     inkscape:window-y="72"
     inkscape:window-maximized="0"
     inkscape:current-layer="svg3142" />
  <path
     style="fill:#000000"
     d="M 575.90625 50.125 C 576.04943 50.511658 576.21014 50.934063 576.3125 51.40625 C 576.33896 51.437704 576.34838 51.468391 576.375 51.5 C 576.99118 52.231646 576.55853 51.386706 575.90625 50.125 z M 577.40625 100.96875 C 572.56158 101.0952 568.45555 102.05455 564.625 103.78125 C 554.42236 108.38031 546.44942 116.6208 544.75 124.3125 C 543.62537 129.4027 543.95021 129.19318 547.5 122.40625 C 549.70216 118.19588 554.71395 112.64146 558.65625 110.09375 C 567.25525 104.53665 583.5428 102.31565 586.09375 106.34375 C 587.30307 108.25335 587.7914 108.3142 587.8125 106.59375 C 587.82861 105.27801 588.76028 104.21875 589.875 104.21875 C 590.98971 104.21875 591.28332 105.22063 590.53125 106.4375 C 589.5475 108.02925 591.15479 108.32177 596.21875 107.5 C 600.89259 106.74154 602.82301 107.01209 602 108.34375 C 601.21748 109.60991 602.13354 109.93859 604.5 109.1875 C 607.1267 108.35381 608.25 108.87989 608.25 110.96875 C 608.25 112.60817 607.17245 113.54113 605.84375 113.03125 C 604.51504 112.52138 600.14698 111.60694 596.125 111.03125 C 592.04423 110.44713 594.30813 111.52534 601.25 113.46875 C 608.09185 115.38416 616.27972 118.43529 619.4375 120.25 L 624.53125 123.21875 C 624.74888 119.57637 621.2143 115.77478 616.40625 114.71875 C 611.05429 113.54327 606.65474 109.9375 610.5625 109.9375 C 614.54211 109.9375 623.63798 114.2981 633.78125 121.0625 C 639.57051 124.92326 645.09761 128.1116 646.0625 128.125 C 647.02736 128.13821 648.18641 129.2155 648.625 130.53125 C 649.58757 133.41894 647.90303 133.34904 640.90625 130.25 C 637.98676 128.95688 636.12598 127.37402 636.78125 126.71875 C 637.43651 126.06337 636.03015 126.03546 633.65625 126.65625 C 630.86422 127.38638 629.81069 127.06756 630.625 125.75 C 631.42177 124.46081 630.44472 124.07127 627.96875 124.71875 C 625.81729 125.28137 624.22556 124.98645 624.4375 124.0625 C 624.48362 123.86145 624.50944 123.67179 624.53125 123.46875 L 618.9375 122.53125 C 615.51657 121.97291 612.71875 121.87621 612.71875 122.3125 C 612.71875 123.32244 645.56648 133.79992 648.1875 133.625 C 649.26457 133.55314 651.68416 135.56215 653.59375 138.09375 L 657.09375 142.6875 L 646.875 141.53125 C 641.14754 140.8764 632.11834 137.88024 626.28125 134.71875 C 612.5948 127.30586 611.9294 128.55186 625.25 136.625 C 633.07273 141.36607 638.98765 143.33439 648.4375 144.3125 C 659.41471 145.44867 661.84986 146.4206 666.5 151.625 C 669.45517 154.9324 673.18351 162.13954 674.8125 167.625 C 678.66004 180.58103 677.25106 182.01683 673.0625 169.40625 C 671.29178 164.0751 669.36683 159.71875 668.8125 159.71875 C 668.25818 159.71875 668.42736 161.22046 669.15625 163.0625 C 673.21015 173.30737 675.68315 192.38855 674.5625 204.625 C 673.00476 221.63429 670.35938 215.47004 671.625 197.78125 C 672.26526 188.83281 671.55226 182.18179 669.21875 175.15625 C 667.40127 169.68429 665.52593 165.59907 665.03125 166.09375 C 664.53657 166.58843 665.47049 171.00174 667.125 175.875 C 668.77952 180.74827 670.04238 188.34451 669.9375 192.78125 C 669.78848 199.08299 669.48224 199.84555 668.46875 196.21875 C 667.75518 193.66531 666.21301 191.23767 665.03125 190.84375 C 663.61218 190.37074 663.85126 192.93981 665.75 198.375 C 670.3937 211.66762 670.56677 223.78682 666.1875 227.75 C 664.14867 229.59512 662.5 232.33464 662.5 233.8125 C 662.5 235.29046 661.69085 236.00705 660.71875 235.40625 C 658.64522 234.12475 650.92864 244.27225 651.125 248.03125 C 651.19897 249.44766 652.09353 248.88643 653.09375 246.78125 C 654.91232 242.95363 654.91913 242.95363 654.15625 246.78125 C 653.73667 248.88643 653.19047 251.47866 652.9375 252.53125 C 652.68449 253.58384 652.56291 257.23533 652.6875 260.65625 C 652.81215 264.07718 653.70585 266.875 654.6875 266.875 C 657.2236 266.875 659.41314 259.29703 658.875 252.34375 C 658.54795 248.11784 660.24338 244.03149 664.84375 238 C 672.06798 228.5284 675.70435 227.51493 678.9375 234 L 681.125 238.40625 L 682.09375 233.40625 C 682.84182 229.49296 681.94878 227.69517 678.03125 225.25 C 670.94198 220.82515 670.9897 220.87793 673.21875 219.40625 C 675.70101 217.76741 679.71875 194.01204 679.71875 180.90625 C 679.71875 175.59416 678.12919 167.04763 676.1875 161.9375 C 672.1682 151.35957 661.36546 134.84375 658.46875 134.84375 C 657.40461 134.84375 657.14908 135.90301 657.90625 137.21875 C 658.70609 138.60866 658.54344 138.95784 657.53125 138.03125 C 656.57304 137.1541 655.78125 135.45541 655.78125 134.28125 C 655.78125 129.89662 625.85301 112.22928 610.15625 107.34375 C 595.63606 102.82444 585.48071 100.758 577.40625 100.96875 z M 624.53125 123.46875 L 625.15625 123.5625 L 624.53125 123.21875 C 624.5263 123.30159 624.54012 123.38612 624.53125 123.46875 z M 577 106.1875 C 572.81241 106.0753 558.19204 113.27109 554.71875 117.15625 C 549.52472 122.9662 543.57284 144.17126 545.90625 148.53125 C 546.94763 150.47707 547.11531 152.0625 546.28125 152.0625 C 545.44802 152.0625 545.08351 156.03104 545.46875 160.875 C 546.12255 169.09523 545.89187 169.57055 542.125 168.375 C 538.21238 167.13319 536.67856 169.1473 539.4375 171.90625 C 540.18364 172.65235 542.50665 173.0263 544.59375 172.71875 C 547.7678 172.25104 548.381 170.6662 548.375 163.0625 C 548.37061 158.06268 548.98628 153.96875 549.71875 153.96875 C 550.45123 153.96875 551.48073 152.26144 552.03125 150.15625 C 552.68179 147.66857 552.09306 146.3125 550.34375 146.3125 C 548.8634 146.3125 547.65625 145.48831 547.65625 144.46875 C 547.65625 143.44919 549.01024 143.11837 550.65625 143.75 C 552.52996 144.46902 554.84692 143.19724 556.84375 140.34375 C 558.59792 137.83705 562.93586 132.57223 566.5 128.625 C 570.06416 124.67778 572.0973 121.4375 571.03125 121.4375 C 568.97719 121.4375 560.15717 130.93952 555.25 138.4375 C 552.837 142.12453 551.94449 142.46721 550.15625 140.3125 C 548.50053 138.31747 548.91226 135.68148 551.875 129.21875 C 556.72175 118.64641 559.32645 115.99497 570.40625 110.5625 C 575.26493 108.18027 578.22848 106.2204 577 106.1875 z M 573.96875 111.9375 C 567.44183 111.78798 551.4418 131.08121 551.5 139.03125 C 551.51001 140.39928 554.90266 136.19498 559.03125 129.6875 C 563.15983 123.18003 568.97108 116.54548 571.9375 114.9375 C 575.71981 112.88726 576.31433 111.9913 573.96875 111.9375 z M 538.28125 120.8125 C 537.2176 120.79028 534.96921 121.12394 532.09375 121.8125 C 527.49301 122.9142 521.15778 123.70393 518 123.5625 C 513.96126 123.3817 510.11094 125.21298 505.0625 129.71875 C 501.11527 133.24166 497.90625 136.7883 497.90625 137.59375 C 497.90625 138.39919 500.93554 136.3918 504.65625 133.125 C 508.51165 129.73991 513.57133 127.1875 516.40625 127.1875 C 522.07707 127.1875 536.31658 123.40608 538.8125 121.25 C 539.15625 120.95306 538.91944 120.82583 538.28125 120.8125 z M 586.5 126.5 C 585.85362 126.52782 585.32168 126.64447 584.96875 126.875 C 583.9134 127.56434 585.00667 128.41235 587.375 128.75 C 589.74333 129.08766 591.6875 130.2085 591.6875 131.25 C 591.6875 132.29149 591.03944 132.84365 590.25 132.46875 C 589.46055 132.09384 586.46011 130.61634 583.59375 129.1875 C 578.84376 126.81968 577.74422 127.01696 571.15625 131.59375 C 564.45682 136.24795 557.55856 144.40625 560.3125 144.40625 C 560.97191 144.40625 564.43475 141.81403 568.03125 138.65625 C 578.71137 129.27899 592.4604 131.20782 605.5625 143.9375 C 609.50973 147.77254 612.71875 150.17339 612.71875 149.25 C 612.71875 148.32659 614.66292 149.31407 617.03125 151.46875 C 619.39959 153.62344 622.63987 155.86033 624.21875 156.4375 C 625.79764 157.01466 628.80106 157.496 630.90625 157.5 C 633.44646 157.50365 632.69295 156.741 628.65625 155.25 C 625.31086 154.01433 621.86498 152.2384 621 151.28125 C 620.07098 150.25323 620.98898 150.11296 623.25 150.9375 C 625.35519 151.70523 629.65472 152.71263 632.8125 153.1875 C 636.57669 153.75357 635.65238 153.09304 630.09375 151.25 C 625.43063 149.7039 620.9472 148.82366 620.15625 149.3125 C 619.36527 149.80134 617.47608 148.41537 615.9375 146.21875 C 614.34695 143.94792 612.81598 143.14582 612.40625 144.375 C 612.00384 145.58228 609.58819 144.25034 606.9375 141.34375 C 602.75141 136.75356 602.6556 136.29951 606.03125 137.5 C 609.74418 138.82043 609.72543 138.73754 605.84375 134.8125 C 601.7989 130.72244 591.02463 126.30523 586.5 126.5 z M 595.78125 131.21875 C 596.15419 131.25083 597.1355 131.77725 598.84375 132.6875 C 601.21209 133.94947 603.15625 135.35449 603.15625 135.84375 C 603.15625 137.87081 599.63302 136.52702 597.1875 133.5625 C 595.99666 132.11891 595.42674 131.37156 595.65625 131.25 C 595.68494 131.2348 595.72797 131.21417 595.78125 131.21875 z M 526 135.0625 C 525.07216 135.06292 525.81599 136.5862 528.03125 139 C 530.39959 141.58056 532.31625 144.48399 532.28125 145.46875 C 532.24623 146.4535 530.69434 145.46377 528.84375 143.25 C 523.1586 136.44906 517.47418 134.29612 511.0625 136.53125 C 493.68836 142.58791 484.56145 157.71112 484.53125 180.40625 C 484.51483 192.69773 485.36919 196.1692 491.65625 209.0625 C 496.15888 218.29635 499.05006 222.45526 499.46875 220.28125 C 499.83478 218.38054 498.86199 215.3887 497.28125 213.625 C 495.7005 211.86127 492.52479 204.84185 490.21875 198 C 485.47104 183.91401 485.79953 171.84617 491.3125 158.09375 C 495.07284 148.71341 507.11612 138.65625 514.625 138.65625 C 521.97179 138.65625 529.55258 145.36012 534.0625 155.84375 C 536.33935 161.13644 538.70283 165.4375 539.3125 165.4375 C 539.92214 165.4375 539.80778 163.93579 539.0625 162.09375 C 538.31721 160.25171 537.38785 155.77825 537 152.125 C 536.24682 145.03047 531.02401 136.57155 526.5 135.15625 C 526.29758 135.09292 526.13255 135.06244 526 135.0625 z M 585.5625 138.6875 C 583.78258 138.67139 581.80679 139.5099 581.15625 140.5625 C 579.65931 142.98461 582.18956 142.98461 585.9375 140.5625 C 588.41145 138.96372 588.35143 138.7128 585.5625 138.6875 z M 591.78125 138.75 C 590.14039 138.79748 591.37347 140.02283 594.53125 141.46875 C 602.03836 144.90595 603.0365 144.89999 598.5 141.46875 C 596.45678 139.92333 593.42211 138.7025 591.78125 138.75 z M 515.78125 145.21875 C 512.16982 145.26907 508.19855 146.82385 505.5625 149.59375 C 502.98489 152.30225 503.06319 152.4285 506.5 150.96875 C 508.60519 150.0746 513.64633 149.365 517.6875 149.375 C 524.31151 149.39113 524.67332 149.13555 521.5 146.8125 C 519.96928 145.69192 517.94811 145.18856 515.78125 145.21875 z M 540.90625 146 C 540.63347 146.09399 540.4375 147.62345 540.4375 150.15625 C 540.4375 153.84033 540.83112 155.34204 541.3125 153.5 C 541.79386 151.65797 541.79386 148.62329 541.3125 146.78125 C 541.16207 146.20562 541.03024 145.95728 540.90625 146 z M 585.71875 146.3125 C 584.13052 146.3125 581.16822 147.64787 579.125 149.28125 C 575.5548 152.13534 575.58939 152.19033 580.1875 150.96875 C 586.09224 149.40006 589.76427 146.3125 585.71875 146.3125 z M 592.71875 146.4375 C 591.8314 146.40642 591.6875 147.00793 591.6875 148.21875 C 591.6875 149.27134 592.88968 150.15625 594.375 150.15625 C 599.19997 150.15625 606.95443 161.43629 607.28125 168.9375 L 607.59375 175.96875 L 608.40625 169.28125 C 609.40386 161.09808 604.61372 151.43943 598.09375 148.46875 C 595.21504 147.15712 593.6061 146.46858 592.71875 146.4375 z M 533.09375 146.9375 C 533.61451 146.79944 534.3921 147.6725 534.9375 149.09375 C 536.23157 152.46606 535.10586 153.0534 533.21875 150 C 532.52494 148.87738 532.37333 147.56414 532.875 147.0625 C 532.9377 146.99979 533.01936 146.95722 533.09375 146.9375 z M 557.1875 148 C 556.36511 148.1528 555.56485 149.97128 554.5 153.96875 L 553.25 158.75 L 556.03125 153.96875 C 557.56792 151.33884 558.47143 148.84642 558.03125 148.40625 C 557.73419 148.10919 557.46163 147.94907 557.1875 148 z M 561.09375 151.09375 C 561.05099 151.10108 561.02159 151.12359 560.96875 151.15625 C 560.12333 151.67875 558.38747 155.31744 557.125 159.25 C 555.86254 163.18256 553.49785 167.92387 551.875 169.78125 C 550.25215 171.63866 548.82338 174.68607 548.6875 176.53125 C 548.55156 178.37644 547.88891 180.75941 547.21875 181.84375 C 545.654 184.37556 547.56986 187.29756 552.53125 189.90625 C 558.06931 192.81818 560.86132 190.42934 558.125 185.09375 C 555.80337 180.56674 552.90923 181.11591 554.6875 185.75 C 555.41555 187.64725 554.78312 188.10212 552.5625 187.25 C 549.70205 186.15234 549.70704 185.72932 552.375 182.78125 C 555.59933 179.21842 556.36631 176.06771 553.59375 177.78125 C 552.63152 178.37595 552.37723 176.92039 553.03125 174.53125 C 553.99818 170.999 554.33184 170.86018 554.90625 173.625 C 555.29163 175.47993 556.40724 176.49243 557.40625 175.875 C 558.40525 175.25759 559.11937 175.44481 558.96875 176.3125 C 558.8179 177.18018 558.78166 179.9152 558.90625 182.40625 C 559.09365 186.15128 559.96665 186.80963 563.875 186.0625 C 566.47462 185.56557 568.20621 185.77374 567.71875 186.5625 C 567.23126 187.35125 568.90113 187.90139 571.4375 187.75 C 577.24842 187.40322 576.86255 184.37395 570.625 181.34375 L 565.84375 179 L 571.09375 180.09375 C 575.27036 180.95537 576.375 180.48417 576.375 177.78125 C 576.375 175.90798 574.87329 172.66776 573.03125 170.59375 C 569.76835 166.91992 569.78972 166.90524 574.0625 169.5 C 576.93644 171.24527 578.34132 173.80223 578.15625 176.9375 C 578.00085 179.56898 577.95092 185.09608 578.0625 189.21875 C 578.40457 201.86303 580.52254 195.30305 580.84375 180.59375 C 581.06929 170.26532 580.48168 166.50581 578.5 165.84375 C 576.66123 165.22945 576.33736 165.7675 577.4375 167.59375 C 578.77557 169.81495 578.50531 169.84528 575.84375 167.6875 C 573.26185 165.59429 571.36071 165.55547 565.46875 167.5 C 559.32519 169.52756 558.8004 170.07747 562.03125 171.25 C 564.11969 172.00794 566.5743 172.20911 567.46875 171.6875 C 569.74029 170.36284 565.30707 178.36733 562.96875 179.8125 C 561.92182 180.45954 561.0625 180.15202 561.0625 179.125 C 561.0625 178.09799 562.12176 176.82443 563.4375 176.28125 C 564.88679 175.68296 564.13998 174.76174 561.53125 173.96875 C 556.56209 172.45828 556.13184 168.00583 559.9375 157.34375 C 561.25216 153.66053 561.73517 150.9838 561.09375 151.09375 z M 650.46875 154.1875 C 649.7398 154.38437 651.13857 156.81686 653.90625 160.0625 C 657.05522 163.75534 659.98169 166.47353 660.4375 166.09375 C 661.75734 164.99408 653.9254 155.25637 650.90625 154.25 C 650.81212 154.21862 650.72837 154.19505 650.65625 154.1875 C 650.58864 154.18042 650.51735 154.17438 650.46875 154.1875 z M 641.4375 156.125 C 640.57031 156.125 639.68912 156.26579 639.03125 156.53125 C 637.71551 157.06216 638.80602 157.5 641.4375 157.5 C 644.06899 157.5 645.12824 157.06216 643.8125 156.53125 C 643.15463 156.26579 642.30469 156.125 641.4375 156.125 z M 582.9375 157.84375 C 581.82294 157.81028 579.26196 159.04834 577.21875 160.59375 C 575.17553 162.13915 574.41669 163.43525 575.53125 163.46875 C 576.64581 163.50223 579.20678 162.26417 581.25 160.71875 C 583.29322 159.17334 584.05206 157.87725 582.9375 157.84375 z M 496.125 159.71875 C 495.21805 159.71875 493.98087 161.01486 493.375 162.59375 C 492.76912 164.17264 493.03057 165.4375 493.9375 165.4375 C 494.84445 165.4375 496.08163 164.17264 496.6875 162.59375 C 497.29337 161.01486 497.03194 159.71875 496.125 159.71875 z M 530.0625 164.25 C 525.6667 164.57207 518.91268 170.65938 519.09375 174.875 C 519.18135 176.91393 519.90116 176.49009 521.3125 173.5625 C 522.46055 171.18108 526.05827 168.49883 529.3125 167.59375 C 534.24861 166.2209 534.65653 165.70417 531.78125 164.5 C 531.27713 164.28888 530.69047 164.20399 530.0625 164.25 z M 585.1875 168.0625 C 584.36187 168.05225 584.13119 168.70084 584.59375 169.90625 C 585.13985 171.32939 584.83945 173.69686 583.9375 175.15625 C 582.89219 176.84759 583.42173 179.02915 585.375 181.1875 C 587.68665 183.74186 589.06948 184.07093 591 182.46875 C 592.40752 181.30062 593.15591 179.6954 592.6875 178.9375 C 592.2191 178.17961 593.0924 177.5625 594.625 177.5625 C 596.15757 177.5625 597.40625 179.16397 597.40625 181.09375 C 597.40625 183.0235 598.17003 184.59375 599.09375 184.59375 C 602.33851 184.59375 604.44519 179.75545 603.25 175.0625 C 602.29538 171.31418 600.67258 170.22349 595.4375 169.8125 C 591.7953 169.52658 587.62045 168.85162 586.1875 168.3125 C 585.7829 168.16029 585.46271 168.06592 585.1875 168.0625 z M 647.5 169.40625 C 647.20376 169.47532 647.72067 170.5333 648.96875 172.875 C 650.66607 176.05961 651.83787 176.75256 652.84375 175.125 C 653.90095 173.4144 654.61911 173.6107 655.5 175.90625 C 656.20211 177.73591 655.9182 178.55838 654.8125 177.875 C 653.77196 177.23192 652.90625 177.72514 652.90625 178.96875 C 652.90625 180.65378 652.20175 180.61918 650.0625 178.84375 C 646.3181 175.73617 646.40978 177.77887 650.28125 183.6875 C 654.12978 189.5611 655.50225 189.74429 653.71875 184.125 C 652.58065 180.53914 652.82194 180.21363 655.125 182.125 C 657.39586 184.00966 657.85335 183.60237 657.78125 179.8125 C 657.70365 175.74115 652.90625 168.05305 652.90625 172 C 652.90625 172.86571 651.46998 172.38214 649.71875 170.9375 C 648.44829 169.88947 647.73041 169.35253 647.5 169.40625 z M 532.4375 170.5625 C 531.07574 170.55658 528.91632 171.36593 526.75 173 C 523.34679 175.56703 522.08843 178.61779 521.625 185.34375 C 521.24898 190.80108 521.70829 193.858 522.84375 193.15625 C 523.86765 192.52345 525.2514 193.56 525.90625 195.46875 C 526.56109 197.37749 529.38782 201.08727 532.1875 203.71875 C 534.98723 206.35024 536.16929 207.76207 534.8125 206.84375 C 533.40836 205.89335 532.31435 205.89335 532.28125 206.84375 C 532.24925 207.76207 531.33529 206.98918 530.25 205.125 C 529.16472 203.26082 527.44525 202.26409 526.40625 202.90625 C 525.20528 203.64848 525.32528 205.06456 526.75 206.78125 C 530.0623 210.77234 527.05522 210.05205 522.4375 205.75 C 519.94572 203.42856 518.81697 200.59169 519.4375 198.21875 C 520.41475 194.48175 516.46321 191.11478 512.25 192.09375 C 511.19741 192.33833 512.10786 190.85455 514.28125 188.8125 C 517.29919 185.97689 518.0423 183.41709 517.40625 177.96875 C 516.63654 171.37554 516.35125 171.08637 513.46875 173.96875 C 511.03399 176.40342 510.25585 181.55461 509.9375 197.5625 C 509.71321 208.84035 509.05396 220.00666 508.46875 222.375 C 507.20463 227.49077 508.97773 227.96683 512.3125 223.40625 C 514.31792 220.66369 515.49801 220.52587 519.625 222.40625 C 522.88321 223.8908 524.95914 223.96715 525.75 222.6875 C 526.53305 221.42053 527.88776 221.53226 529.65625 223 C 531.14142 224.23258 532.34375 224.59657 532.34375 223.8125 C 532.34375 223.02843 533.63986 223.47089 535.21875 224.78125 C 537.50904 226.68203 538.67846 226.68203 540.96875 224.78125 C 542.54763 223.47089 543.84375 223.10305 543.84375 223.96875 C 543.84375 224.83445 544.79735 224.57765 545.96875 223.40625 C 547.14013 222.23487 547.46488 220.30106 546.71875 219.09375 C 545.7775 217.57079 544.55501 217.97185 542.6875 220.375 C 540.4892 223.20378 540.20186 223.2334 541.09375 220.65625 C 541.6944 218.92068 541.24936 216.9449 540.125 216.25 C 539.00066 215.55511 538.09375 215.94816 538.09375 217.125 C 538.09375 218.30184 537.24009 218.74429 536.1875 218.09375 C 535.13491 217.44321 534.25 216.05259 534.25 215 C 534.25 213.94741 535.03831 213.54995 535.96875 214.125 C 536.89918 214.70004 538.7148 212.55314 540.03125 209.375 C 541.34768 206.19684 542.81135 203.99886 543.28125 204.46875 C 543.75114 204.93865 543.15529 207.12666 541.96875 209.34375 C 540.78219 211.56084 540.45495 214.38916 541.21875 215.625 C 542.08226 217.02219 543.54898 215.38062 545.09375 211.28125 C 546.56449 207.37833 547.38273 206.40848 547.125 208.90625 C 546.88556 211.22675 547.51975 213.0925 548.53125 213.0625 C 550.57058 213.00191 553.04214 218.27796 553.25 223.125 C 553.32399 224.85008 552.31575 226.14622 551 226 C 549.68426 225.85381 548.625 226.60366 548.625 227.65625 C 548.625 228.70884 550.12671 229.37575 551.96875 229.125 C 553.81078 228.87425 555.3125 229.49106 555.3125 230.53125 C 555.3125 231.57144 554.39596 232.4375 553.28125 232.4375 C 552.16653 232.4375 551.80761 233.30524 552.46875 234.375 C 553.12989 235.44467 554.39956 235.88866 555.28125 235.34375 C 556.16294 234.79883 556.4693 236.28646 555.96875 238.65625 C 555.28362 241.89981 555.49835 242.25478 556.84375 240.09375 C 559.74126 235.43966 561.49752 226.1854 559.21875 227.59375 C 558.12398 228.27035 557.21875 228.40859 557.21875 227.90625 C 557.21875 227.40394 556.62963 225.42812 555.90625 223.5 C 554.82148 220.60858 555.09931 220.37933 557.40625 222.25 C 560.50432 224.76216 576.375 223.45494 576.375 220.6875 C 576.375 219.77351 577.67111 219.03125 579.25 219.03125 C 580.82889 219.03125 582.09375 218.27939 582.09375 217.34375 C 582.09375 216.40811 580.59204 215.76004 578.75 215.90625 C 576.33953 216.09755 575.35846 214.6769 575.21875 210.84375 C 575.11206 207.91454 575.76012 205.05384 576.65625 204.5 C 577.55241 203.94615 578.28125 202.64634 578.28125 201.59375 C 578.28125 200.54125 577.5568 200.13095 576.65625 200.6875 C 575.75575 201.24407 575.40162 199.66375 575.875 197.1875 C 576.90896 191.77868 573.45958 189.10416 569.59375 192.3125 C 567.0459 194.42702 565.97567 193.56029 566.5625 189.84375 C 567.17507 185.96409 563.21784 189.05153 562.15625 193.28125 C 560.79879 198.68983 562.25265 202.46726 565.03125 200.75 C 566.02348 200.13676 567.38136 202.31307 568.03125 205.5625 C 568.68114 208.81195 569.91058 211.89942 570.78125 212.4375 C 571.65192 212.97561 571.84556 214.74157 571.21875 216.375 C 570.29762 218.77547 569.77666 218.87578 568.46875 216.8125 C 567.57875 215.4085 566.8278 212.51088 566.8125 210.375 C 566.78111 206.21421 554.39394 192.23265 550.78125 192.28125 C 549.58233 192.29742 549.91684 193.22414 551.5 194.34375 C 554.05173 196.14838 554.05173 196.29032 551.5 195.59375 C 549.92111 195.16274 548.5901 193.99611 548.5625 193.03125 C 548.44581 188.93547 544.22945 184.39116 540.28125 184.09375 C 535.99584 183.77093 528.02855 176.9375 531.9375 176.9375 C 533.0911 176.9375 534.58886 177.80519 535.25 178.875 C 535.91114 179.94478 537.23888 180.32436 538.21875 179.71875 C 539.1986 179.11315 540 179.54152 540 180.65625 C 540 183.01393 545.07816 183.40627 546.46875 181.15625 C 548.00838 178.66507 545.11694 175.62413 540 174.34375 C 537.36852 173.68529 536.30269 173.64352 537.625 174.25 C 538.94737 174.85649 539.50156 176.1737 538.875 177.1875 C 538.17284 178.32361 536.71387 178.18301 535.0625 176.8125 C 533.58891 175.58954 532.81188 173.89185 533.34375 173.03125 C 534.35676 171.39217 533.79926 170.56842 532.4375 170.5625 z M 531.53125 171.96875 C 531.99357 171.98245 531.60781 172.81986 530.625 174.65625 C 529.05932 177.58175 529.70633 179.24252 533.875 183.125 C 536.72445 185.77879 540.12176 187.54518 541.4375 187.0625 C 543.55363 186.28616 544.65903 188.72074 543.34375 191.25 C 542.32523 193.20861 551.61503 198.14418 553.875 196.84375 C 555.18891 196.08764 555.65867 196.13531 554.90625 196.96875 C 554.15384 197.80219 554.36435 200.04909 555.375 201.9375 C 556.56437 204.15994 556.51149 206.93297 555.25 209.8125 C 553.40092 214.0333 553.37164 213.97633 554.34375 209.03125 C 555.1136 205.11505 554.70796 204.08041 552.71875 204.84375 C 551.26267 205.40251 549.52967 204.4561 548.875 202.75 C 548.2203 201.0439 546.81004 200.18863 545.75 200.84375 C 544.68998 201.49888 543.84375 201.11472 543.84375 200 C 543.84375 198.88529 542.8104 198 541.5625 198 C 540.31461 198 537.31117 196.10116 534.875 193.8125 L 530.4375 189.65625 L 530.4375 194.25 L 530.4375 198.84375 L 527.15625 194.15625 C 525.35657 191.58681 523.69975 187.02703 523.46875 184 C 523.09502 179.10227 523.32588 178.87046 525.5 181.84375 C 527.20671 184.17783 528.36107 184.50822 529.3125 182.96875 C 530.0616 181.7567 529.84584 180.75 528.84375 180.75 C 525.18866 180.75 525.1621 175.65471 528.8125 173.375 C 530.286 172.45478 531.17167 171.9581 531.53125 171.96875 z M 491.25 173.09375 C 491.00944 173.26831 490.84375 176.04621 490.84375 180.75 C 490.84375 187.59185 491.20046 190.38967 491.625 186.96875 C 492.04954 183.54782 492.04954 177.95218 491.625 174.53125 C 491.49233 173.46221 491.35935 173.01441 491.25 173.09375 z M 571.46875 173.75 C 571.77432 173.71975 572.13653 173.81855 572.53125 174.0625 C 573.58384 174.71304 574.4375 175.62958 574.4375 176.09375 C 574.4375 176.55792 573.58384 176.9375 572.53125 176.9375 C 571.47866 176.9375 570.625 176.02097 570.625 174.90625 C 570.625 174.20956 570.95946 173.80041 571.46875 173.75 z M 613.84375 173.8125 C 613.40454 173.78563 613.06748 173.87366 612.8125 174.03125 C 611.68198 174.72994 611.32169 176.1837 612 177.28125 C 612.67833 178.3788 612.08592 179.97947 610.6875 180.84375 C 609.15071 181.79364 610.90711 182.21215 615.15625 181.875 C 620.41926 181.4574 623.02333 182.32275 625.53125 185.34375 C 627.37377 187.56321 627.65457 188.28449 626.15625 186.96875 C 624.65791 185.65301 622.60576 184.59375 621.5625 184.59375 C 620.51925 184.59375 621.31215 185.79572 623.34375 187.28125 C 627.44942 190.28338 629.9375 189.60804 629.9375 185.46875 C 629.9375 182.29988 618.08945 174.07222 613.84375 173.8125 z M 541.8125 176.9375 C 542.92721 176.9375 543.84375 177.79115 543.84375 178.84375 C 543.84375 179.89636 543.46417 180.75 543 180.75 C 542.53582 180.75 541.61929 179.89636 540.96875 178.84375 C 540.31821 177.79115 540.69778 176.9375 541.8125 176.9375 z M 513.71875 181.65625 C 513.90018 181.63694 514.08675 181.64649 514.28125 181.65625 C 515.57795 181.72131 517.03125 182.44754 517.03125 183.4375 C 517.03125 183.72623 515.7826 183.9375 514.25 183.9375 C 512.71743 183.9375 511.91602 183.20684 512.46875 182.3125 C 512.70837 181.92478 513.17446 181.71417 513.71875 181.65625 z M 584.03125 182.6875 C 582.97866 182.6875 582.09375 184.01523 582.09375 185.65625 C 582.09375 187.2973 582.97866 188.11929 584.03125 187.46875 C 585.08384 186.81821 585.9375 185.45922 585.9375 184.46875 C 585.9375 183.47828 585.08384 182.6875 584.03125 182.6875 z M 593.8125 182.6875 C 590.95355 182.6875 589.4254 186.05875 591.65625 187.4375 C 594.03566 188.90805 594.24042 196.0625 591.90625 196.0625 C 590.98255 196.0625 589.03838 194.56079 587.59375 192.71875 C 585.21322 189.68334 585.27709 189.61947 588.3125 192 C 592.04565 194.92774 592.96271 192.36896 589.4375 188.84375 C 585.83648 185.24274 581.29279 189.84152 584.40625 193.9375 C 585.70027 195.63992 586.0544 196.44493 585.1875 195.71875 C 582.8566 193.76625 578.59163 198.47474 579.8125 201.65625 C 580.62535 203.77452 581.19601 203.56877 582.3125 200.71875 C 583.10706 198.69074 583.8011 197.76918 583.875 198.6875 C 583.94899 199.60584 585.18115 199.42234 586.59375 198.25 C 588.00633 197.07766 589.79792 196.73539 590.5625 197.5 C 591.32709 198.26458 593.53481 196.7826 595.46875 194.21875 C 598.42525 190.29922 599.44251 189.96059 601.9375 192.03125 C 603.56955 193.38573 605.92238 193.85633 607.15625 193.09375 C 608.76345 192.10045 608.51948 191.24886 606.34375 190.03125 C 604.4896 188.99374 603.79754 187.04486 604.53125 185.03125 C 605.59093 182.12313 605.22317 182.16075 601.5625 185.375 C 599.03264 187.59634 597.40625 188.10311 597.40625 186.6875 C 597.40625 185.40966 596.43398 184.9677 595.21875 185.71875 C 593.84981 186.56481 593.52895 186.24395 594.375 184.875 C 595.12606 183.65977 594.8651 182.6875 593.8125 182.6875 z M 531.15625 183.375 C 530.92376 183.40219 530.67369 183.49097 530.40625 183.65625 C 529.33649 184.31739 529.06698 185.88198 529.8125 187.125 C 530.77161 188.72416 530.31545 188.67117 528.25 187 C 525.87228 185.07616 525.34375 185.19761 525.34375 187.625 C 525.34375 189.5504 526.55984 190.29966 528.78125 189.71875 C 530.6723 189.22422 533.22748 190.03559 534.46875 191.53125 C 535.71005 193.0269 537.2372 193.73154 537.875 193.09375 C 538.51279 192.45597 537.52787 190.84572 535.6875 189.5 C 533.8471 188.15427 532.34375 186.01183 532.34375 184.75 C 532.34375 183.80358 531.85372 183.29343 531.15625 183.375 z M 613.84375 183.78125 C 612.79628 183.79109 611.71847 184.02927 610.90625 184.53125 C 608.99602 185.71187 608.98061 186.92082 610.8125 190.34375 C 612.38904 193.28952 613.57967 193.94592 614.53125 192.40625 C 615.55611 190.74797 616.60991 190.95413 618.4375 193.15625 C 620.54634 195.69723 620.43565 195.99461 617.84375 195 C 615.51916 194.10796 614.97785 194.77665 615.5625 197.8125 C 616.68975 203.66579 613.37058 202.70887 611.875 196.75 C 610.9367 193.01154 610.05342 192.25908 608.46875 193.84375 C 606.88409 195.42842 607.19445 196.93599 609.65625 199.65625 C 611.98432 202.22873 612.32532 203.75253 610.8125 204.6875 C 608.18486 206.31148 606.91262 205.22066 606.03125 200.5625 C 605.66447 198.624 605.29935 196.92058 605.21875 196.78125 C 605.13822 196.64195 601.74278 199.8822 597.65625 203.96875 C 593.5697 208.05527 589.21305 211.375 588 211.375 C 586.78695 211.375 589.04741 208.57538 593.03125 205.15625 C 601.66867 197.74319 603.21995 195.80575 601.96875 193.78125 C 600.17201 190.87405 597.68537 192.27531 597.03125 196.5625 C 596.6699 198.93082 595.24398 200.63299 593.875 200.34375 C 592.50611 200.05454 591.8758 200.60309 592.46875 201.5625 C 593.79144 203.70263 588.94192 208.00442 587.1875 206.25 C 585.19638 204.25887 585.72486 201.47171 587.84375 202.78125 C 588.89634 203.43179 589.75 202.54688 589.75 200.84375 C 589.75 196.40468 586.28805 199.19411 582.96875 206.28125 C 581.40427 209.62161 580.49611 210.9791 580.9375 209.3125 C 581.3789 207.64589 580.72174 206.28125 579.46875 206.28125 C 578.21579 206.28125 577.1875 207.85148 577.1875 209.78125 C 577.1875 211.87367 578.55566 213.3125 580.59375 213.3125 C 582.47337 213.3125 584.03125 214.57736 584.03125 216.15625 C 584.03125 218.31372 586.33098 219.03116 593.3125 219.03125 C 600.56881 219.03125 603.71739 220.0752 607.75 223.8125 C 610.58942 226.44398 613.3158 228.59375 613.78125 228.59375 C 615.00886 228.59375 613.84236 222.33319 612.09375 219.53125 C 610.3227 216.69332 613.07103 216.32104 615.78125 219.03125 C 617.02673 220.27674 617.75743 219.46147 617.96875 216.65625 C 618.19305 213.6786 617.83025 213.17031 616.71875 214.96875 C 615.70736 216.60523 614.67836 216.81182 613.90625 215.5625 C 612.42987 213.17365 618.11833 207.10986 620.46875 208.5625 C 621.39049 209.13218 621.87032 210.65546 621.5625 211.9375 C 621.25469 213.21952 621.3688 213.60851 621.8125 212.8125 C 623.2369 210.25698 625.98842 213.31725 624.875 216.21875 C 624.28438 217.75798 622.9226 218.47927 621.84375 217.8125 C 620.76496 217.14573 620.25325 217.72854 620.71875 219.125 C 622.12088 223.3313 626.125 223.47208 626.125 219.3125 C 626.125 214.29012 629.07638 212.42471 629.4375 217.21875 C 629.58903 219.2303 628.87777 221.38024 627.875 222 C 626.8722 222.61975 626.70285 224.16324 627.46875 225.40625 C 628.23466 226.64925 626.71577 226.27229 624.125 224.59375 C 618.52233 220.96383 613.30724 221.81487 616.625 225.8125 C 617.79847 227.2264 619.8858 227.94173 621.28125 227.40625 C 624.53979 226.15582 626.48041 229.29175 624.9375 233.3125 C 623.85359 236.13718 623.42164 236.14107 620.46875 233.46875 C 617.32054 230.61965 614.65625 231.22433 614.65625 234.78125 C 614.65625 235.72055 615.55721 235.91733 616.6875 235.21875 C 619.28153 233.61555 615.05672 241.22874 609.375 248.375 C 606.99964 251.36266 605.47271 254.52182 606 255.375 C 606.5273 256.22817 605.61417 257.43109 603.96875 258.0625 C 601.92638 258.84622 601.35052 260.58516 602.15625 263.53125 C 603.17413 267.25307 603.06134 267.38841 601.25 264.5 C 598.19206 259.62377 594.91039 260.26322 597.5625 265.21875 C 599.26238 268.395 599.14561 269.62773 597.125 270.875 C 595.70057 271.75424 594.42919 274.02471 594.28125 275.90625 C 594.13322 277.78777 593.37904 280.84546 592.625 282.6875 C 591.8447 284.59373 592.09948 286.03125 593.21875 286.03125 C 594.30032 286.03125 595.77785 283.45821 596.46875 280.3125 C 597.15967 277.16678 598.50921 274.09303 599.46875 273.5 C 600.42831 272.90697 600.67751 273.81587 600.03125 275.5 C 599.33444 277.31586 600.30905 279.69621 602.4375 281.375 C 605.92141 284.12287 605.90283 284.20257 602.1875 283.6875 C 599.31798 283.28972 598.51897 284.09923 598.9375 286.96875 C 599.33406 289.68779 599.00882 290.07624 597.8125 288.3125 C 596.44777 286.30047 595.69583 286.36852 593.875 288.5625 C 592.12622 290.66964 592.27863 291.78673 594.53125 293.65625 C 596.52046 295.30714 597.40625 295.38263 597.40625 293.90625 C 597.40625 292.72478 598.12285 291.75 599 291.75 C 599.87717 291.75 600.59375 293.02992 600.59375 294.5625 C 600.59375 296.09509 599.76373 296.814 598.75 296.1875 C 597.7363 295.56098 597.32509 296.25651 597.8125 297.71875 C 598.29993 299.18101 599.47264 300.39095 600.4375 300.40625 C 604.07475 300.46701 607.21351 303.73247 606.1875 306.40625 C 605.5884 307.96748 605.95984 308.66215 607.03125 308 C 608.07921 307.35231 609.45195 308.20253 610.09375 309.875 C 611.01932 312.28705 611.8458 312.43877 614.03125 310.625 C 616.2134 308.81391 616.652 308.88473 616.1875 311 C 615.62472 313.56288 614.78168 314.86548 609.3125 321.375 C 607.25782 323.82054 607.34581 324.3125 609.90625 324.3125 C 612.21687 324.3125 612.66417 325.35823 611.65625 328.59375 C 608.55432 338.5512 606.99212 341.28187 602.84375 344.1875 C 599.16375 346.76507 599.00665 347.25 601.875 347.25 C 603.75023 347.25 604.73427 348.16307 604.0625 349.25 C 603.29143 350.49763 600.44555 349.71063 596.3125 347.15625 C 590.77276 343.73251 589.75 343.59504 589.75 346.15625 C 589.75 347.8447 591.36434 349.1875 593.375 349.1875 C 597.63842 349.1875 599.81835 355.5099 596.71875 358.875 C 595.03056 360.70781 595.39846 360.89419 598.375 359.6875 C 600.48019 358.83404 604.04468 358.05965 606.3125 357.96875 C 608.58033 357.87783 610.03509 356.92759 609.53125 355.875 C 609.0274 354.82241 610.00944 355.67607 611.71875 357.78125 C 614.63556 361.3736 614.52768 361.86209 610.0625 365.71875 C 607.44584 367.97882 605.8507 370.38195 606.5 371.03125 C 607.1493 371.68055 610.09488 369.8744 613.0625 367.03125 C 616.0301 364.1881 618.46875 362.75736 618.46875 363.84375 C 618.46875 367.66148 610.36086 373.1025 604.40625 373.28125 C 601.09598 373.38065 596.73345 374.16233 594.71875 375.03125 C 592.11756 376.15311 591.45487 375.96494 592.4375 374.375 C 593.1986 373.14353 592.89597 372.15625 591.78125 372.15625 C 590.66654 372.15625 589.75 372.82922 589.75 373.65625 C 589.75 374.4833 588.04268 375.15625 585.9375 375.15625 C 583.83231 375.15625 582.09375 374.04085 582.09375 372.6875 C 582.09375 371.33417 581.7527 370.21875 581.3125 370.21875 C 580.87229 370.21875 578.92812 369.73723 577 369.125 C 573.79204 368.10642 573.81929 368.26138 577.21875 371.03125 C 580.32102 373.559 580.42387 374.0625 577.84375 374.0625 C 576.14445 374.0625 571.87667 371.71912 568.375 368.875 C 562.22355 363.87872 562.15204 363.87808 566.3125 368.53125 C 572.96221 375.96845 571.41169 377.47264 564.25 370.53125 C 559.92566 366.33994 557.875 365.29037 557.875 367.28125 C 557.875 368.89659 558.29534 369.7984 558.8125 369.28125 C 559.92021 368.17352 564.875 372.00964 564.875 373.96875 C 564.875 374.71015 562.23891 374.91289 559 374.4375 C 553.75516 373.66773 553.24586 373.03708 554.28125 368.5625 C 554.98463 365.52285 554.79847 364.49862 553.8125 365.96875 C 552.61333 367.75671 550.43708 366.49601 545.59375 361.1875 C 536.10195 350.78401 526.58565 338.37094 526.65625 336.46875 C 526.68972 335.56761 527.98586 336.48804 529.53125 338.53125 C 533.65459 343.98279 532.95981 340.86712 528.28125 332.9375 C 526.04556 329.14832 524.74945 325.50053 525.40625 324.84375 C 526.06303 324.18695 526.6097 324.88384 526.625 326.375 C 526.64924 328.61814 527.0103 328.59377 528.71875 326.21875 C 530.50135 323.74066 530.66975 323.7673 529.8125 326.46875 C 528.74512 329.83243 531.9446 335.50245 539.6875 343.90625 C 544.99748 349.66949 550.97742 350.80016 552.6875 346.34375 C 553.54184 344.1174 555.16705 344.79584 560.1875 349.53125 C 563.71359 352.85716 566.16224 356.28698 565.625 357.15625 C 565.08777 358.0255 565.57278 358.75 566.6875 358.75 C 567.80221 358.75 568.71875 357.47936 568.71875 355.9375 C 568.71875 352.72872 575.21746 348.65506 577.1875 350.625 C 577.90773 351.34533 577.85457 350.29513 577.09375 348.3125 C 576.17128 345.90857 576.40753 345.16292 577.8125 346.03125 C 578.97125 346.74738 580.49476 346.40212 581.1875 345.28125 C 582.06336 343.86407 583.27846 343.94157 585.15625 345.5 C 588.82145 348.54184 588.5835 346.36475 584.84375 342.625 C 583.18969 340.97092 582.71775 339.59375 583.8125 339.59375 C 584.90718 339.59375 585.34255 338.09204 584.75 336.25 C 583.94415 333.74493 584.1327 333.55937 585.5 335.46875 C 586.97671 337.5309 587.54307 337.41885 588.53125 334.84375 C 589.20403 333.09051 589.75 330.26682 589.75 328.59375 C 589.75 326.92068 591.08495 324.08656 592.71875 322.28125 C 595.4335 319.28146 595.26215 318.63424 590.5625 314.9375 C 584.31811 310.02566 583.02258 309.9509 579.8125 314.25 C 578.43709 316.09204 575.16273 317.73898 572.53125 317.90625 C 567.79364 318.20723 567.8199 318.18183 573.03125 316.09375 C 575.92588 314.93393 578.28225 313.52375 578.28125 312.9375 C 578.27645 310.66148 552.71006 312.02607 551.9375 314.34375 C 551.39266 315.97827 549.49862 315.46801 545.59375 312.6875 C 542.3297 310.36328 538.52065 309.18259 536.4375 309.84375 C 532.18024 311.19495 527.63269 306.44574 529.21875 302.3125 C 529.82977 300.72021 529.48829 299.40625 528.46875 299.40625 C 527.44919 299.40625 526.57875 300.49676 526.53125 301.8125 C 526.48377 303.12824 525.21079 301.62653 523.71875 298.46875 L 521 292.71875 L 521.40625 299.40625 C 521.66006 303.58495 522.72637 305.92348 524.21875 305.625 C 525.53449 305.36186 526.59375 306.51524 526.59375 308.15625 C 526.59375 309.7973 527.47866 310.58804 528.53125 309.9375 C 531.7062 307.97527 530.67091 310.67285 526.75 314.59375 C 523.7678 317.57596 522.87804 317.73792 522.03125 315.53125 C 521.45661 314.03375 521.48788 311.51639 522.09375 309.9375 C 522.69963 308.35861 522.22772 307.0625 521.0625 307.0625 C 519.8973 307.0625 518.9375 304.84427 518.9375 302.125 C 518.9375 299.40575 517.28447 290.56983 515.25 282.5 C 513.21555 274.43019 511.1893 265.25153 510.75 262.09375 C 509.98716 256.61045 509.94902 256.66532 509.71875 263.0625 C 509.58617 266.74658 510.35025 273.19588 511.4375 277.40625 C 515.55806 293.36299 516.65882 298.70583 517.53125 307.3125 C 518.42503 316.12994 518.38107 316.20408 511.34375 318.3125 C 507.2457 319.54031 504.28125 321.63903 504.28125 323.3125 C 504.28125 326.61567 508.84199 327.03706 515.84375 324.375 C 520.10811 322.7537 520.98969 323.21756 523.59375 328.4375 C 525.20962 331.67659 526.16978 334.92649 525.71875 335.65625 C 525.26775 336.386 524.73853 344.68931 524.53125 354.09375 C 524.25805 366.48928 523.62264 370.35063 522.21875 368.125 C 520.48078 365.36976 519.4735 365.50736 512.4375 369.53125 C 505.96966 373.23019 501.83774 374.01215 488.8125 374.03125 C 475.55974 374.05061 473.03125 374.56036 473.03125 377.15625 C 473.03125 379.97029 479.9711 380.15514 550.0625 379.1875 C 592.42937 378.60264 627.29935 378.0635 627.5625 378 C 627.82565 377.9365 628.0472 376.37329 628.0625 374.53125 C 628.07862 372.68921 628.90776 369.89139 629.90625 368.3125 C 631.2275 366.2233 631.61044 367.22923 631.3125 372 L 630.90625 378.5625 L 660.5625 378.75 C 676.87769 378.86337 692.64695 378.49853 695.59375 377.9375 C 703.91023 376.35415 700.81838 373.09375 691 373.09375 C 684.23332 373.09375 679.2337 371.372 669.5 365.6875 C 662.53027 361.61716 655.77989 357.04217 654.5 355.5 C 653.07638 353.78464 652.05872 345.43493 651.875 334 C 651.70976 323.71959 650.96488 314.2891 650.1875 313.03125 C 649.41011 311.77342 649.71772 309.5571 650.90625 308.125 C 652.11416 306.66953 652.54067 303.33924 651.84375 300.5625 C 651.06328 297.45287 651.39085 295.59375 652.71875 295.59375 C 653.88546 295.59375 654.8278 294.09204 654.8125 292.25 C 654.78724 289.36293 654.48257 289.27535 652.75 291.75 C 651.15942 294.02186 650.98814 293.78032 651.90625 290.5 C 652.54431 288.22023 652.18916 285.80201 651.09375 285.125 C 649.99833 284.44799 649.0158 285.43959 648.9375 287.34375 C 648.70384 293.03208 647.17174 300.07228 645.90625 301.21875 C 645.25474 301.80896 645.2329 299.05173 645.84375 295.09375 C 646.83432 288.6754 646.6403 288.20345 644.0625 290.78125 C 642.47286 292.3709 640.54731 293.6875 639.78125 293.6875 C 639.01523 293.6875 638.72615 296.69093 639.15625 300.375 C 639.96895 307.33647 638.65579 308.44399 633.78125 304.9375 C 631.35814 303.19446 631.42304 303.05936 634.25 303.96875 C 636.76151 304.77666 637.61575 303.96526 637.59375 300.78125 C 637.56998 297.33806 637.19193 297.07833 635.6875 299.40625 C 632.77611 303.91131 633.60656 299.02239 636.65625 293.6875 C 638.16054 291.05602 639.43145 288.31591 639.46875 287.625 C 639.5702 285.74609 632.00505 288.09146 630.59375 290.375 C 629.8871 291.51836 630.28563 291.78916 631.5625 291 C 632.77773 290.24895 633.78125 290.54154 633.78125 291.65625 C 633.78125 292.77097 632.14247 293.6875 630.125 293.6875 C 628.10754 293.6875 626.11108 294.63547 625.71875 295.8125 C 625.3264 296.98953 621.84545 298.11513 617.96875 298.3125 C 611.66594 298.63341 604.99228 301.34375 610.5 301.34375 C 611.72803 301.34375 612.7108 302.84546 612.6875 304.6875 C 612.65282 307.41737 611.93688 307.14984 608.78125 303.25 C 602.00735 294.87865 600.7318 289.77899 604.40625 285.71875 C 606.50572 283.39888 608.12237 282.83735 608.9375 284.15625 C 609.7718 285.50621 611.04486 285.16675 612.6875 283.1875 C 614.80623 280.63457 614.70759 280.36724 612 281.40625 C 609.31682 282.43587 608.92577 281.57502 609.625 275.9375 C 610.37645 269.87887 610.08392 269.33943 606.34375 270.21875 C 602.41777 271.14175 602.36824 271.0676 605.71875 268.46875 C 607.93364 266.75075 609.34205 263.06461 609.46875 258.59375 L 609.65625 251.46875 L 612.625 256.34375 C 614.24768 259.01806 616.55257 260.8345 617.75 260.375 C 618.94745 259.91549 620.88164 260.50664 622.0625 261.6875 C 623.78297 263.40797 625.18986 262.60154 623.875 260.65625 C 623.69713 260.3931 624.63638 258.03774 625.9375 255.40625 L 628.28125 250.625 L 624.3125 255.40625 C 622.12282 258.03774 620.82558 258.76682 621.4375 257.03125 C 622.0494 255.29568 621.49075 253.21167 620.1875 252.40625 C 618.54354 251.39021 618.19968 251.8955 619.03125 254.0625 C 619.69044 255.78035 619.25298 257.78355 618.09375 258.5 C 616.68348 259.37159 616.32041 258.11038 616.96875 254.71875 C 617.94893 249.59134 615.77891 247.65392 614 252.0625 C 613.32085 253.74558 612.98122 253.77447 612.875 252.1875 C 612.79191 250.94693 614.01486 248.64139 615.59375 247.0625 C 617.17264 245.48361 618.46875 243.49552 618.46875 242.625 C 618.46875 241.75447 621.49327 238.51772 625.1875 235.4375 C 630.16732 231.28539 631.62457 228.80938 630.8125 225.875 C 629.84953 222.39536 630.19186 222.48115 633.625 226.6875 C 638.56336 232.73813 638.59533 234.33336 633.78125 233.40625 C 631.67607 233.00083 629.9375 233.47659 629.9375 234.46875 C 629.9375 238.04932 629.59517 239.15811 627.78125 241.34375 C 626.61853 242.74473 626.60223 243.97813 627.75 244.6875 C 628.75117 245.30625 630.49337 243.25029 631.59375 240.09375 C 633.97075 233.27508 635.28519 232.70971 634.96875 238.65625 C 634.8427 241.02458 633.33547 243.99798 631.625 245.28125 C 628.32734 247.7553 627.28702 257.3125 630.3125 257.3125 C 631.29568 257.3125 631.6535 256.60511 631.125 255.75 C 630.59652 254.8949 631.83669 251.68587 633.875 248.59375 C 635.99041 245.38468 637.6011 244.20515 637.625 245.84375 C 637.66226 248.39548 637.88218 248.39548 639.53125 245.84375 C 641.05879 243.4801 641.38215 243.4551 641.40625 245.6875 C 641.42237 247.17858 641.99221 247.82027 642.6875 247.125 C 643.38277 246.42972 642.64788 244.34849 641.03125 242.5 C 638.09251 239.1398 638.005 237.6579 640.375 228.53125 C 641.30388 224.95423 640.6108 222.71102 637.71875 220.09375 C 635.55395 218.13463 633.78125 217.1547 633.78125 217.90625 C 633.78125 218.65781 632.82122 218.68875 631.65625 217.96875 C 630.17904 217.05579 630.31412 216.13661 632.125 214.96875 C 633.77447 213.90498 634.02825 212.78681 632.8125 211.875 C 631.75991 211.08555 630.62062 209.14139 630.28125 207.5625 C 629.94189 205.98361 627.5819 202.94893 625.03125 200.84375 C 621.57902 197.99444 620.88467 196.29322 622.28125 194.15625 C 623.88659 191.69986 624.1624 191.75921 624.1875 194.625 C 624.20361 196.46704 625.07241 198 626.125 198 C 627.17759 198 628.03125 197.26443 628.03125 196.375 C 628.03125 194.55241 620.65091 187.46875 618.75 187.46875 C 618.07112 187.46875 617.70764 186.90835 617.9375 186.21875 C 618.41077 184.79893 616.14818 183.75961 613.84375 183.78125 z M 643.96875 194.96875 C 643.40488 195.16987 643.7792 196.8132 645.59375 199.71875 C 646.97248 201.92644 648.77009 203.71875 649.59375 203.71875 C 650.41742 203.71875 649.65201 201.53934 647.90625 198.875 C 646.01936 195.99526 644.53262 194.76763 643.96875 194.96875 z M 544.78125 195.125 L 548.4375 199.4375 C 550.44267 201.80584 552.38684 203.71875 552.75 203.71875 C 554.28152 203.71875 553.14038 202.17613 549.09375 198.75 L 544.78125 195.125 z M 522.3125 196.125 C 521.50444 196.12418 520.875 196.71887 520.875 198 C 520.875 199.05259 521.79154 199.90625 522.90625 199.90625 C 524.02097 199.90625 524.31355 200.90977 523.5625 202.125 C 522.73562 203.46294 523.02518 203.79562 524.3125 203 C 525.48169 202.27736 525.96794 200.42019 525.375 198.875 C 524.69061 197.09152 523.35144 196.12605 522.3125 196.125 z M 495.59375 197.40625 C 495.09525 197.5022 494.90625 198.25001 494.90625 199.6875 C 494.90625 201.55895 495.99043 203.09375 497.34375 203.09375 C 498.69708 203.09375 499.8125 202.46703 499.8125 201.71875 C 499.8125 200.97047 498.69708 199.43567 497.34375 198.3125 C 496.53524 197.6415 495.98148 197.33163 495.59375 197.40625 z M 617.34375 197.84375 C 618.52647 197.90147 621.6173 200.04403 624.71875 203.28125 C 627.8529 206.5526 629.20677 209.47121 628.28125 210.96875 C 627.14943 212.80009 625.95591 212.4489 623.34375 209.5625 C 620.7338 206.67855 619.06368 206.21952 616.4375 207.625 C 614.246 208.79781 612.55517 208.80735 611.84375 207.65625 C 611.2241 206.65363 612.4921 204.87696 614.65625 203.71875 C 616.8204 202.56053 618.08666 200.81227 617.46875 199.8125 C 616.72131 198.60312 616.67957 197.9829 617.125 197.875 C 617.18625 197.86016 617.2649 197.8399 617.34375 197.84375 z M 533.53125 198.5625 C 534.46545 198.57239 535.90935 199.34686 537.1875 200.625 C 540.55486 203.99238 538.83379 204.73436 534.3125 201.875 C 532.76421 200.89576 532.07242 199.52134 532.78125 198.8125 C 532.95846 198.63529 533.21985 198.5592 533.53125 198.5625 z M 652.59375 199.3125 C 652.18871 199.52683 652.65629 201.5122 654.0625 205.59375 C 657.04241 214.24302 656.22164 219.00702 653.09375 211.1875 C 652.08527 208.66635 651.1918 207.79533 651.125 209.25 C 651.05826 210.70464 652.83724 214.83696 655.0625 218.4375 C 657.28774 222.03802 659.45092 224.64281 659.875 224.21875 C 661.28777 222.80598 656.15825 202.81107 653.6875 200.09375 C 653.13582 199.487 652.77786 199.21508 652.59375 199.3125 z M 620.0625 202.25 C 619.3721 202.29656 618.73105 202.70109 618 203.4375 C 616.05475 205.397 616.20403 205.65158 618.65625 204.71875 C 620.32964 204.08218 622.77488 204.8732 624.125 206.5 C 625.47511 208.12679 627.11867 209.46875 627.75 209.46875 C 628.38131 209.46875 626.98365 207.5774 624.65625 205.25 C 622.51999 203.11374 621.21317 202.1724 620.0625 202.25 z M 604.125 202.34375 L 608.28125 207.46875 C 611.04247 210.86702 611.88151 213.50097 610.78125 215.28125 C 609.79522 216.87669 609.94326 218.9447 611.15625 220.40625 C 614.53781 224.4808 609.81628 223.21366 606.03125 219.03125 C 604.12608 216.92606 601.34721 215.21875 599.84375 215.21875 C 598.34028 215.21875 597.4801 214.12824 597.9375 212.8125 C 598.39488 211.49676 600.57178 210.4846 602.78125 210.5625 C 604.99072 210.64045 606.3486 209.99239 605.8125 209.125 C 604.28192 206.64844 600.9054 207.26925 597.09375 210.71875 C 595.16882 212.46077 593.59375 212.95655 593.59375 211.8125 C 593.59375 210.66845 595.94912 208.05983 598.84375 206.03125 L 604.125 202.34375 z M 571.375 203.71875 C 571.78869 203.71875 572.61286 205.01486 573.21875 206.59375 C 573.82463 208.17264 573.48829 209.46875 572.46875 209.46875 C 571.44919 209.46875 570.625 208.17264 570.625 206.59375 C 570.625 205.01486 570.96134 203.71875 571.375 203.71875 z M 516.875 204.25 C 517.90559 204.26973 519.26447 205.57871 521.625 208.5 C 524.17664 211.65778 525.91156 214.61304 525.46875 215.0625 C 525.02591 215.51196 523.50208 214.30102 522.09375 212.375 C 519.29301 208.54479 515.125 209.85408 515.125 214.5625 C 515.125 216.45357 516.19777 217.13382 518.09375 216.40625 C 519.72732 215.7794 520.57045 216.0577 519.96875 217.03125 C 518.06384 220.11345 512.125 218.4572 512.125 214.84375 C 512.125 212.94556 512.8296 211.375 513.71875 211.375 C 514.6079 211.375 514.92521 210.68345 514.40625 209.84375 C 513.8873 209.00405 514.25012 207.09114 515.21875 205.5625 C 515.75641 204.71401 516.25665 204.23816 516.875 204.25 z M 532.5 209.46875 C 533.40546 209.46875 533.64227 210.78271 533.03125 212.375 C 531.83895 215.48206 535.71562 221.47431 538 220.0625 C 538.75788 219.59409 539.375 220.46741 539.375 222 C 539.375 225.21106 536.95178 225.69842 535.1875 222.84375 C 534.52635 221.77396 533.25088 221.34562 532.34375 221.90625 C 531.43663 222.46688 530.19373 222.08386 529.5625 221.0625 C 528.05879 218.62942 530.3788 209.46875 532.5 209.46875 z M 562.8125 209.71875 C 563.39052 209.66391 563.95031 209.82531 564.40625 210.28125 C 565.05551 210.93049 564.65802 212.37323 563.53125 213.5 C 562.15679 214.8744 561.0891 214.90088 560.28125 213.59375 C 559.26187 211.94439 561.07845 209.88326 562.8125 209.71875 z M 503.625 212.375 C 501.75119 212.11728 503.1954 227.52434 505.9375 236.1875 C 507.08997 239.82853 508.16092 244.57052 508.3125 246.71875 C 508.46401 248.86696 509.63315 250.38815 510.90625 250.125 C 512.40099 249.81604 513.21875 252.30128 513.21875 257.09375 C 513.21875 261.17557 514.50284 267.62991 516.09375 271.4375 C 517.60215 275.04762 518.95386 278.43076 519.3125 279.46875 C 519.58882 279.13683 520.15388 278.6245 521.0625 277.90625 C 522.75136 276.57121 524.75456 273.3462 525.5 270.71875 L 526.84375 265.9375 L 522.875 270.71875 L 518.875 275.5 L 520.71875 270.4375 C 521.72156 267.65111 521.941 264.70953 521.21875 263.90625 C 520.4965 263.10301 520.99676 263.05532 522.3125 263.8125 C 526.53072 266.23997 524.85405 261.98954 519.90625 257.6875 C 517.27476 255.39945 515.125 252.21085 515.125 250.625 C 515.125 249.03916 514.42285 247.75 513.5625 247.75 C 511.23736 247.75 505.5625 228.34393 505.5625 220.40625 C 505.5625 216.61366 504.79156 213.05453 503.84375 212.46875 C 503.77637 212.42711 503.68545 212.38331 503.625 212.375 z M 519.3125 279.46875 C 519.0051 279.83801 519.0678 279.9964 519.53125 280 C 519.49636 279.93025 519.46177 279.85802 519.4375 279.78125 C 519.42448 279.74004 519.33212 279.52553 519.3125 279.46875 z M 519.53125 280 C 519.85733 280.65195 520.63061 280.98772 521.34375 280.75 C 522.13319 280.48685 522.78125 281.28425 522.78125 282.5 C 522.78125 286.29287 530.60425 277.84016 534.4375 269.90625 C 538.6264 261.23613 538.63044 261.15625 536.4375 261.15625 C 535.53717 261.15625 534.03546 263.79418 533.09375 267.03125 C 532.15205 270.26832 530.52135 272.91625 529.46875 272.90625 C 528.41616 272.89616 526.70885 274.32092 525.65625 276.09375 C 524.60366 277.86659 522.45389 279.56537 520.875 279.84375 C 520.27685 279.94922 519.8246 280.00228 519.53125 280 z M 644.5625 214.0625 C 643.92758 214.10518 644.45078 215.60612 646.125 218.84375 C 649.72778 225.81072 651.71868 226.60763 650.15625 220.46875 L 649.0625 216.15625 L 651.28125 220.46875 C 652.50025 222.83709 654.32361 224.78125 655.34375 224.78125 C 656.36386 224.78125 655.91627 222.83709 654.34375 220.46875 C 652.77123 218.10042 650.7367 216.1403 649.8125 216.125 C 648.88829 216.10889 646.99643 215.3892 645.59375 214.5 C 645.13134 214.20687 644.77414 214.04827 644.5625 214.0625 z M 665.21875 214.1875 C 664.91791 214.25463 664.6875 215.31586 664.6875 217.125 C 664.6875 219.75649 665.12534 220.84699 665.65625 219.53125 C 666.18716 218.21551 666.18716 216.03449 665.65625 214.71875 C 665.49034 214.30758 665.3555 214.15698 665.21875 214.1875 z M 554.84375 215.21875 C 556.03542 215.21875 557.5576 216.08649 558.21875 217.15625 C 558.87989 218.22601 560.32624 218.51859 561.46875 217.8125 C 562.70855 217.04625 563.00254 217.43126 562.1875 218.75 C 560.53805 221.41886 560.92135 221.46992 556.375 218.03125 C 554.33179 216.48584 553.6521 215.21875 554.84375 215.21875 z M 634.78125 219.4375 C 635.07805 219.48774 635.74302 220.33841 636.84375 221.84375 C 638.32314 223.86695 639.53125 226.21108 639.53125 227.0625 C 639.53125 230.97495 636.04718 228.0356 635.15625 223.375 C 634.68899 220.93062 634.4625 219.67476 634.6875 219.46875 C 634.71563 219.443 634.73885 219.43032 634.78125 219.4375 z M 541.96875 226.75 L 543.09375 234.84375 C 545.01877 248.77765 545.06353 250.56272 543.5625 252.625 C 542.75931 253.72848 541.88534 257.79078 541.625 261.65625 C 541.36469 265.52171 540.02207 269.10089 538.65625 269.625 C 537.24369 270.16705 536.1596 273.72733 536.125 277.84375 C 536.07075 284.2935 535.77968 284.69134 533.5 281.6875 C 530.85447 278.20166 529.6268 278.8944 525.59375 286.03125 C 524.18031 288.53244 524.37628 288.54547 527.28125 286.1875 C 530.17944 283.83506 531.04416 283.88789 533.8125 286.65625 C 537.8223 290.66605 538.82837 290.70032 537.3125 286.75 C 536.38333 284.32863 537.01219 283.88839 540.1875 284.71875 C 545.51772 286.11263 553.55133 278.37156 552.1875 273.15625 C 551.65251 271.11045 549.95355 269.4375 548.40625 269.4375 C 546.85896 269.4375 546.01326 270.52516 546.53125 271.875 C 547.12003 273.40938 546.42123 273.94654 544.6875 273.28125 C 543.16221 272.69595 541.90625 273.07241 541.90625 274.125 C 541.90625 275.17759 543.20236 276.55036 544.78125 277.15625 C 546.36014 277.76212 547.65625 279.28249 547.65625 280.53125 C 547.65625 281.95466 546.35326 281.61327 544.15625 279.625 C 542.2288 277.88152 539.91173 277.08326 539 277.875 C 538.08824 278.66675 538.82589 276.92437 540.65625 274 C 542.48662 271.07565 543.46847 267.85455 542.84375 266.84375 C 542.21904 265.833 542.84835 265.43432 544.21875 265.9375 C 548.11421 267.36782 550.50957 264.65793 553 256.125 C 555.98453 245.89928 555.91198 243.80844 552.5625 245.09375 C 551.02644 245.68321 550.27589 247.56139 550.84375 249.34375 C 551.71566 252.08038 551.55234 252.11836 549.78125 249.65625 C 546.9239 245.6841 547.15706 243.90625 550.53125 243.90625 C 553.91057 243.90625 554.37736 239.0027 551.1875 237.03125 C 549.86876 236.21622 549.48375 236.5102 550.25 237.75 C 550.9561 238.8925 550.5449 240.45709 549.3125 241.21875 C 547.91309 242.08364 547.58465 241.75493 548.4375 240.375 C 549.20246 239.13725 548.68464 238.17345 547.28125 238.15625 C 545.30113 238.13308 545.33689 237.77971 547.40625 236.46875 C 549.52081 235.12919 549.25758 234.03884 546 230.78125 L 541.96875 226.75 z M 587.59375 228.5625 C 583.46424 228.57403 580.36302 229.2404 581.21875 230.625 C 581.90027 231.72777 585.17218 232.22661 588.5 231.75 C 591.82782 231.2734 596.26982 231.58997 598.375 232.46875 C 604.42753 234.99534 606.36682 234.47277 602.3125 231.40625 C 599.89232 229.57571 592.90312 228.54767 587.59375 228.5625 z M 621.21875 229.25 C 620.70946 229.30041 620.375 229.70955 620.375 230.40625 C 620.375 231.52096 621.25991 232.4375 622.3125 232.4375 C 623.36509 232.4375 624.21875 232.05792 624.21875 231.59375 C 624.21875 231.12957 623.36509 230.21304 622.3125 229.5625 C 621.91778 229.31855 621.52432 229.21975 621.21875 229.25 z M 674.1875 231.40625 C 673.97868 231.4181 673.74892 231.46562 673.5 231.5625 C 669.73059 233.02959 666.6429 241.16362 668.5625 244.59375 C 669.74737 246.71103 669.09649 248.77852 666.375 251.5 C 662.1218 255.75321 661.30989 259.21875 664.5625 259.21875 C 665.70288 259.21875 666.28234 260.30926 665.84375 261.625 C 665.40516 262.94074 664.10905 264 662.96875 264 C 661.82845 264 660.18967 264.79179 659.3125 265.75 C 658.38591 266.76219 658.70387 266.92483 660.09375 266.125 C 661.40949 265.36782 662.5 265.66653 662.5 266.78125 C 662.5 267.89596 663.29961 268.8125 664.28125 268.8125 C 666.31381 268.8125 669.07316 261.35441 667.59375 259.875 C 667.05892 259.34015 668.7061 254.75231 671.25 249.6875 C 675.96001 240.31012 677.31987 231.22855 674.1875 231.40625 z M 528.28125 235.34375 L 524.96875 239.71875 C 522.7743 242.62799 520.57628 243.67647 518.40625 242.84375 C 516.58705 242.14565 515.125 242.49481 515.125 243.625 C 515.125 246.09513 527.31706 248.60516 531.5 247 C 533.15351 246.36547 533.96019 245.01671 533.3125 243.96875 C 532.63268 242.86877 533.41038 242.52955 535.125 243.1875 C 539.13983 244.72813 538.84089 247.22274 534.34375 250.03125 C 531.53582 251.78485 531.14611 253.01133 532.71875 254.90625 C 533.86781 256.29081 534.20227 258.01648 533.46875 258.75 C 532.73522 259.48353 531.50999 259.07345 530.75 257.84375 C 529.92346 256.50637 528.32866 256.23115 526.78125 257.1875 C 525.34169 258.07719 524.85419 259.82725 525.65625 261.125 C 526.76476 262.91862 527.47254 262.87206 528.71875 260.875 C 529.69043 259.31791 529.95798 261.34685 529.40625 265.9375 C 528.50341 273.44966 528.52463 273.47788 530.6875 267.84375 C 531.89972 264.68598 534.56567 259.7402 536.59375 256.84375 C 541.35319 250.04643 540.38473 244.34912 533.65625 239.34375 L 528.28125 235.34375 z M 586.875 236.75 C 585.35819 236.85095 584.53939 237.47976 585.34375 238.78125 C 586.93014 241.34809 581.69152 244.0053 577.5625 242.71875 C 575.23011 241.99198 574.43322 242.34663 575.28125 243.71875 C 576.34973 245.44761 586.77046 245.62929 597.96875 244.125 C 598.79919 244.01345 597.91647 242.24457 596 240.1875 C 593.88487 237.91718 589.40302 236.58175 586.875 236.75 z M 673.15625 237.03125 C 673.6671 236.95311 673.96875 237.18991 673.96875 237.75 C 673.96875 238.81886 672.67264 240.17535 671.09375 240.78125 C 669.51486 241.38721 668.21875 241.58312 668.21875 241.21875 C 668.21875 240.85438 669.51486 239.49786 671.09375 238.1875 C 671.92108 237.50088 672.6454 237.10939 673.15625 237.03125 z M 626.84375 238.21875 C 624.60156 238.25812 618.96833 241.93145 621.09375 241.96875 C 622.01209 241.98487 621.7096 243.24846 620.4375 244.78125 C 619.16608 246.31401 618.6169 248.32673 619.1875 249.25 C 620.7586 251.79211 625.82394 251.25795 626.90625 248.4375 C 627.43188 247.06775 626.99522 245.43497 625.9375 244.78125 C 624.68707 244.00846 624.82413 242.63073 626.28125 240.875 C 627.51383 239.38983 627.76209 238.20345 626.84375 238.21875 z M 528.40625 240.09375 C 529.52094 240.09375 530.4375 240.94741 530.4375 242 C 530.4375 243.05259 530.05792 243.90625 529.59375 243.90625 C 529.12957 243.90625 528.21304 243.05259 527.5625 242 C 526.91198 240.94741 527.29153 240.09375 528.40625 240.09375 z M 570.1875 240.53125 C 569.70867 240.4951 569.1997 241.1939 568.46875 242.5 C 567.43321 244.35038 567.10463 246.70575 567.75 247.75 C 568.39539 248.79424 568.05043 249.65625 566.96875 249.65625 C 565.88706 249.65625 565.49527 250.94038 566.09375 252.5 C 566.91751 254.6467 568.05969 254.84826 570.8125 253.375 C 575.07797 251.09219 575.02759 251.42577 572.40625 244.53125 C 571.3838 241.84208 570.80314 240.57773 570.1875 240.53125 z M 681.59375 242 C 680.55594 242 679.69355 243.50172 679.65625 245.34375 C 679.61897 247.18579 678.27299 250.86851 676.6875 253.5 L 673.8125 258.28125 L 675.09375 253.5 C 677.35953 244.99411 674.00169 250.70528 670.59375 261.15625 C 666.33169 274.22647 662.69537 276.66412 656.5625 270.53125 L 651.96875 265.9375 L 651.375 273.03125 C 651.05098 276.93392 651.72449 281.88151 652.875 284.03125 C 654.02552 286.18101 655.82395 287.9375 656.875 287.9375 C 660.35276 287.9375 670.15625 276.38278 670.15625 272.28125 C 670.15625 270.06525 671.32148 267.29365 672.78125 266.125 C 676.2476 263.35002 684.04802 242 681.59375 242 z M 606.15625 244.09375 C 605.69963 244.11857 605.01925 244.20811 604.125 244.34375 C 602.02783 244.66184 599.1937 247.27448 597.8125 250.15625 C 595.80699 254.34059 593.98823 255.40625 588.8125 255.40625 C 585.24798 255.40625 581.80679 254.5526 581.15625 253.5 C 580.50571 252.44741 579.14672 251.5625 578.15625 251.5625 C 577.16578 251.5625 576.375 252.44741 576.375 253.5 C 576.375 254.5526 577.56285 255.40625 579.03125 255.40625 C 580.49966 255.40625 583.73993 257.56279 586.21875 260.1875 C 590.65658 264.88654 590.77988 264.89542 593.84375 261.21875 C 595.55511 259.16509 597.48841 258.01965 598.15625 258.6875 C 598.82409 259.35534 600.6217 258.2471 602.15625 256.21875 C 605.38993 251.94448 605.93433 248.90804 603.15625 250.625 C 599.89802 252.6387 601.05382 249.26991 604.59375 246.4375 C 606.95012 244.55211 607.5261 244.01928 606.15625 244.09375 z M 623.15625 244.5625 C 623.46182 244.53225 623.82403 244.63105 624.21875 244.875 C 625.27134 245.52554 626.125 246.44207 626.125 246.90625 C 626.125 247.37042 625.27134 247.75 624.21875 247.75 C 623.16616 247.75 622.3125 246.83346 622.3125 245.71875 C 622.3125 245.02205 622.64696 244.61291 623.15625 244.5625 z M 646.09375 244.5625 C 645.58446 244.61291 645.25 245.02205 645.25 245.71875 C 645.25 246.83346 646.1349 247.75 647.1875 247.75 C 648.24009 247.75 649.09375 247.37042 649.09375 246.90625 C 649.09375 246.44207 648.24009 245.52554 647.1875 244.875 C 646.79278 244.63105 646.39932 244.53225 646.09375 244.5625 z M 665.15625 246.46875 C 664.92749 246.51295 664.6694 246.61861 664.40625 246.78125 C 663.35365 247.43179 662.5 248.82241 662.5 249.875 C 662.5 250.92759 663.35365 251.27554 664.40625 250.625 C 665.45884 249.97446 666.3125 248.58384 666.3125 247.53125 C 666.3125 246.74181 665.84253 246.33616 665.15625 246.46875 z M 647.0625 249.65625 C 645.94779 249.65625 645.56821 250.50991 646.21875 251.5625 C 646.86929 252.61509 647.78583 253.5 648.25 253.5 C 648.71418 253.5 649.09375 252.61509 649.09375 251.5625 C 649.09375 250.50991 648.17722 249.65625 647.0625 249.65625 z M 557.8125 253.5 C 555.41889 253.58971 555.67027 254.10774 558.0625 256.5 C 561.88672 260.32418 561.89545 261.8651 558.09375 260.40625 C 556.3907 259.7527 555.61077 260.07139 556.28125 261.15625 C 556.92433 262.19679 559.35003 263.093 561.65625 263.125 C 565.42457 263.17731 565.50986 263.37191 562.5 265.125 C 560.65796 266.19787 559.15625 268.71817 559.15625 270.71875 C 559.15625 272.71932 560.65796 275.28235 562.5 276.4375 C 565.39078 278.25033 565.24796 278.39113 561.53125 277.375 C 555.47199 275.71843 556.1819 277.72636 562.875 281.1875 C 570.21429 284.98279 570.05355 285.05358 569.65625 278.375 C 569.26321 271.76829 568.96002 271.94937 575.3125 274.84375 C 580.96261 277.41811 581.16116 278.22417 577.40625 283.25 C 574.70338 286.86768 574.65473 286.85799 575.65625 282.875 C 576.22189 280.62546 575.76928 278.20721 574.625 277.5 C 573.37617 276.72819 572.53125 277.84044 572.53125 280.28125 C 572.53125 285.79355 569.13886 291.75 566 291.75 C 564.58704 291.75 562.37287 293.04611 561.0625 294.625 C 559.11124 296.97613 559.23818 297.5 561.78125 297.5 C 563.48901 297.5 564.87498 298.17307 564.875 299 C 564.875 299.82705 563.16769 300.5 561.0625 300.5 C 556.41368 300.5 556.10331 296.1922 560.40625 291.4375 C 563.61262 287.89449 561.98505 286.97224 556.375 289.125 C 554.0268 290.0261 553.60265 291.83135 554.53125 296.78125 C 555.50346 301.96357 555.12382 303.25 552.65625 303.25 C 550.96022 303.25 549.5625 302.42581 549.5625 301.40625 C 549.5625 300.38671 548.13663 300.10526 546.375 300.78125 C 543.95514 301.70985 543.45308 301.21503 544.375 298.8125 C 545.12986 296.8454 544.71846 295.81198 543.28125 296.09375 C 539.64196 296.80721 538.0659 300.11179 540.59375 301.71875 C 542.34255 302.8305 542.29468 303.19635 540.46875 303.21875 C 539.15301 303.23487 538.09375 304.15771 538.09375 305.28125 C 538.09375 306.43998 539.71359 306.80109 541.84375 306.125 C 543.90917 305.46946 547.23505 305.81336 549.21875 306.875 C 551.66909 308.18651 553.45333 308.17166 554.8125 306.8125 C 557.27208 304.35291 568.42757 303.37646 569.15625 305.5625 C 570.18218 308.64034 584.2829 309.73491 586.09375 306.875 C 587.30264 304.96577 587.7916 304.8855 587.8125 306.59375 C 587.85531 310.08855 591.05706 309.51026 592.5 305.75 C 593.25176 303.79097 592.60093 301.87586 590.8125 300.875 C 589.19089 299.96751 587.84375 298.23419 587.84375 297 C 587.84375 295.7658 589.66413 296.53908 591.875 298.75 C 595.1157 301.9907 595.47633 303.51612 593.8125 306.625 C 592.17612 309.68259 592.52977 311.49672 595.53125 315.3125 C 600.1828 321.22597 600.25889 323.12867 595.96875 326.375 C 593.11954 328.53092 592.99609 328.50102 595.03125 326.21875 C 598.38948 322.45285 598.0315 319.49599 594.5625 322.375 C 592.98361 323.68537 591.6875 326.63785 591.6875 328.90625 C 591.6875 331.17464 590.41672 334.83012 588.875 337.03125 C 587.33315 339.23237 586.61668 341.55418 587.28125 342.21875 C 587.94582 342.88332 588.9112 343.4375 589.4375 343.4375 C 589.9638 343.4375 589.85353 342.88477 589.1875 342.21875 C 588.52146 341.55271 590.09171 339.35436 592.6875 337.3125 C 595.28329 335.27067 597.40625 332.69832 597.40625 331.625 C 597.40625 330.55168 599.11171 327.51394 601.1875 324.875 C 604.5105 320.6505 604.63673 319.76171 602.15625 317.28125 C 598.81134 313.93632 598.71201 313.43162 601.28125 311.84375 C 602.35991 311.1771 603.00796 311.64384 602.71875 312.90625 C 602.42951 314.16865 603.34678 315.6134 604.75 316.125 C 606.67053 316.8252 606.54414 315.55721 604.1875 311 C 600.58793 304.03923 585.92864 289.22762 584.28125 290.875 C 583.67383 291.48241 584.4516 292.77077 586 293.75 C 588.45927 295.3053 588.42973 295.5369 585.90625 295.5625 C 584.31741 295.57861 581.97788 293.90999 580.6875 291.84375 C 578.7251 288.70145 578.80979 288.24382 581.1875 289.15625 C 582.75098 289.7562 584.03125 289.32145 584.03125 288.15625 C 584.03125 286.99103 583.14635 286.03125 582.09375 286.03125 C 579.09195 286.03125 579.86142 282.73303 583.15625 281.46875 C 584.87183 280.81042 585.64937 281.11747 584.96875 282.21875 C 583.58558 284.45673 589.36699 290.883 591.15625 289.09375 C 591.82541 288.42461 591.42791 286.89666 590.25 285.71875 C 588.67035 284.13909 588.8378 282.81844 590.96875 280.6875 C 592.55776 279.0985 593.14847 277.29274 592.28125 276.65625 C 591.41403 276.01977 590.44461 274.20389 590.09375 272.625 C 589.74287 271.0461 590.02382 270.33633 590.75 271.0625 C 592.70736 273.01987 597.10722 268.26037 596 265.375 C 595.23113 263.37129 594.41607 263.41575 591.90625 265.5625 C 590.19428 267.02683 587.35443 268.7217 585.59375 269.34375 C 583.04605 270.24383 582.57638 269.52726 583.25 265.8125 C 583.71551 263.24527 583.37471 261.15625 582.5 261.15625 C 581.6253 261.15625 579.08726 259.43391 576.84375 257.34375 C 573.15133 253.90374 572.4788 253.8337 569.78125 256.53125 C 568.14221 258.17029 566.79655 258.80212 566.78125 257.9375 C 566.76513 257.07286 565.89537 257.63986 564.875 259.21875 C 563.37483 261.54012 563.0237 261.2633 563 257.78125 C 562.9791 254.71099 561.8266 253.5 559 253.5 C 558.54951 253.5 558.15444 253.48718 557.8125 253.5 z M 544.6875 254.125 C 544.99307 254.09475 545.35528 254.19355 545.75 254.4375 C 546.80259 255.08804 547.65625 256.00457 547.65625 256.46875 C 547.65625 256.93292 546.80259 257.3125 545.75 257.3125 C 544.69741 257.3125 543.84375 256.39596 543.84375 255.28125 C 543.84375 254.58455 544.17821 254.17541 544.6875 254.125 z M 649.21875 255.40625 C 648.10404 255.40625 647.1875 256.2599 647.1875 257.3125 C 647.1875 258.36509 647.56707 259.21875 648.03125 259.21875 C 648.49542 259.21875 649.41196 258.36509 650.0625 257.3125 C 650.71305 256.2599 650.33347 255.40625 649.21875 255.40625 z M 544.5625 259.84375 C 545.08326 259.70569 545.86085 260.61 546.40625 262.03125 C 547.70032 265.40358 546.60586 265.9909 544.71875 262.9375 C 544.02494 261.81488 543.87333 260.47041 544.375 259.96875 C 544.4377 259.90604 544.48811 259.86347 544.5625 259.84375 z M 575.71875 260.53125 C 576.34338 260.50302 576.70363 261.18888 577.21875 262.53125 C 577.85117 264.1794 577.92606 265.98019 577.375 266.53125 C 576.82392 267.08233 576.375 266.47765 576.375 265.1875 C 576.375 263.89735 575.43366 263.40083 574.3125 264.09375 C 571.85098 265.61505 577.63338 272.625 581.34375 272.625 C 582.69738 272.625 584.31821 273.47865 584.96875 274.53125 C 586.80038 277.49487 583.66681 276.80835 577.0625 272.78125 C 569.24851 268.01654 568.61583 266.57953 572.6875 262.71875 C 574.19983 261.28476 575.09412 260.55948 575.71875 260.53125 z M 611.9375 260.59375 C 611.44337 260.6763 611.43922 261.90743 611.78125 264.5 C 612.16361 267.39841 612.52125 271.69417 612.59375 274.0625 C 612.66628 276.43084 613.46049 278.375 614.34375 278.375 C 616.79889 278.375 615.9861 264.3479 613.375 261.625 C 612.69591 260.91682 612.23398 260.54422 611.9375 260.59375 z M 643.9375 265.4375 C 643.86661 265.43452 643.80799 265.44789 643.75 265.46875 C 643.47164 265.5689 643.34375 265.95578 643.34375 266.59375 C 643.34375 267.9341 642.49009 268.4943 641.4375 267.84375 C 638.75783 266.18762 639.03534 269.47284 641.8125 272.25 C 643.59871 274.03621 643.59871 274.53125 641.8125 274.53125 C 640.54939 274.53125 639.53125 275.44162 639.53125 276.53125 C 639.53125 277.89366 640.69162 277.86919 643.25 276.5 C 648.89767 273.47745 649.85706 270.66957 646.4375 267.25 C 645.25502 266.06752 644.43372 265.45838 643.9375 265.4375 z M 619.59375 267.59375 C 619.50481 267.59078 619.42805 267.6068 619.34375 267.625 C 618.78172 267.74633 618.36594 268.29508 618.3125 269.15625 C 618.22699 270.53411 617.99011 273.96784 617.78125 276.78125 C 617.57242 279.59466 618.00208 281.52472 618.75 281.0625 C 619.49791 280.60026 620.65136 281.08649 621.3125 282.15625 C 623.23899 285.2734 623.93364 284.41772 622.84375 280.25 C 622.28895 278.12842 621.03914 275.88485 620.0625 275.28125 C 619.01198 274.63199 619.13283 273.15296 620.375 271.65625 C 621.82729 269.90643 621.8567 268.76405 620.46875 267.90625 C 620.15833 267.7144 619.86057 267.60266 619.59375 267.59375 z M 645.25 268.8125 C 646.30259 268.8125 647.1875 269.66616 647.1875 270.71875 C 647.1875 271.77135 646.30259 272.625 645.25 272.625 C 644.19741 272.625 643.34375 271.77135 643.34375 270.71875 C 643.34375 269.66616 644.19741 268.8125 645.25 268.8125 z M 565.375 269.40625 C 567.74334 269.28955 568.5723 269.61608 567.25 270.125 C 565.92769 270.63392 565.34251 271.81857 565.9375 272.78125 C 567.17852 274.78929 564.26268 275.16893 562.34375 273.25 C 560.00198 270.90825 561.02843 269.62047 565.375 269.40625 z M 622.65625 273.03125 C 622.42714 273.11463 622.3125 273.39405 622.3125 273.84375 C 622.3125 274.93144 622.86077 276.39203 623.5625 277.09375 C 624.26422 277.79548 625.2999 277.91884 625.84375 277.375 C 626.38759 276.83117 625.80808 275.37058 624.5625 274.125 C 623.70421 273.26671 623.0381 272.89228 622.65625 273.03125 z M 606.15625 273.25 C 606.66554 273.28007 607 273.65463 607 274.3125 C 607 275.36509 606.11509 276.75571 605.0625 277.40625 C 604.0099 278.0568 603.15625 277.74009 603.15625 276.6875 C 603.15625 275.63491 604.0099 274.24429 605.0625 273.59375 C 605.45722 273.3498 605.85068 273.23196 606.15625 273.25 z M 630.1875 280.28125 C 629.1382 280.28125 628.41303 281.89031 628.5625 283.875 C 628.79229 286.92549 629.50449 287.19234 633.21875 285.5 C 635.63531 284.39895 637.59375 282.59416 637.59375 281.5 C 637.59375 280.29406 636.70468 280.42032 635.3125 281.8125 C 632.53534 284.58966 629.25012 284.86717 630.90625 282.1875 C 631.55679 281.13491 631.23679 280.28125 630.1875 280.28125 z M 646.6875 280.59375 C 645.87183 280.58064 644.86615 280.75091 643.6875 281.125 C 640.89634 282.01088 640.19528 283.42813 641.03125 286.5625 C 642.14683 290.7453 642.19667 290.75178 643.53125 286.03125 C 644.2752 283.39977 644.95763 282.47374 645.0625 284 C 645.20939 286.13663 645.78757 286.27494 647.53125 284.53125 C 649.78625 282.27625 649.13452 280.63307 646.6875 280.59375 z M 557.34375 282.1875 C 556.22904 282.1875 555.3125 283.04116 555.3125 284.09375 C 555.3125 285.14634 555.69207 286.03125 556.15625 286.03125 C 556.62042 286.03125 557.53696 285.14634 558.1875 284.09375 C 558.83805 283.04116 558.45847 282.1875 557.34375 282.1875 z M 551.59375 284.09375 C 550.47903 284.09375 549.5625 284.97866 549.5625 286.03125 C 549.5625 287.08384 549.94208 287.9375 550.40625 287.9375 C 550.87042 287.9375 551.78696 287.08384 552.4375 286.03125 C 553.08804 284.97866 552.70846 284.09375 551.59375 284.09375 z M 520.46875 284.21875 C 520.37782 284.21173 520.29363 284.22569 520.21875 284.25 C 519.22034 284.57408 519.67565 287.58438 522.0625 291.625 C 526.57637 299.26635 530.05503 299.02854 528.6875 291.15625 C 528.53679 290.28857 529.2389 290.05067 530.21875 290.65625 C 531.19862 291.26184 531.55024 293.4896 531 295.59375 C 530.44977 297.69788 530.86068 299.40625 531.9375 299.40625 C 533.01424 299.40625 533.50018 301.35041 533 303.71875 C 532.19605 307.52544 532.31892 307.63042 534.21875 304.65625 C 535.40066 302.80587 535.88212 300.50348 535.28125 299.53125 C 534.68037 298.55902 536.11175 296.43215 538.46875 294.78125 C 541.77292 292.46692 542.04374 291.75 539.625 291.75 C 537.89961 291.75 536.10923 292.84051 535.625 294.15625 C 535.14075 295.47199 534.11392 294.17588 533.34375 291.28125 C 531.86229 285.71344 529.62892 284.5718 527.375 288.21875 C 526.43021 289.74746 525.24377 289.36499 523.46875 286.9375 C 522.12872 285.1049 521.10528 284.26786 520.46875 284.21875 z M 616.71875 285.6875 C 610.61526 285.79057 605.04039 289.43923 605.90625 294.09375 C 606.35184 296.48909 606.76545 298.83883 606.84375 299.3125 C 606.92197 299.78616 607.969 299.18725 609.1875 297.96875 C 610.78489 296.37126 610.83726 295.04955 609.34375 293.25 C 607.77165 291.35572 608.38418 290.22466 611.90625 288.5625 C 616.83681 286.23564 618.49392 288.58141 613.78125 291.21875 C 611.85506 292.2967 611.53743 293.65778 612.78125 295.625 C 614.2758 297.98874 614.6007 297.85418 614.625 294.875 C 614.64845 292.00802 615.18337 291.73828 617.34375 293.53125 C 619.04322 294.94169 620.4584 295.08598 621.1875 293.90625 C 621.82468 292.87526 621.47601 291.47365 620.40625 290.8125 C 619.33649 290.15136 618.46875 288.68485 618.46875 287.53125 C 618.46875 286.37763 620.20731 287.00107 622.3125 288.90625 C 624.41768 290.81142 626.125 291.44687 626.125 290.34375 C 626.125 289.24063 624.62328 287.68615 622.78125 286.875 C 620.85339 286.02605 618.75325 285.65314 616.71875 285.6875 z M 573.59375 289.0625 C 573.96637 289.05666 574.25262 290.21238 574.3125 292.34375 C 574.39559 295.3005 573.64415 297.23556 572.65625 296.625 C 571.66834 296.01445 569.96028 297.04207 568.875 298.90625 C 567.78971 300.77043 566.87575 301.2718 566.84375 300.03125 C 566.81173 298.79068 567.96527 296.62848 569.375 295.21875 C 570.78471 293.80902 572.41888 291.3726 573.03125 289.8125 C 573.23189 289.30132 573.42438 289.06516 573.59375 289.0625 z M 642 292.71875 L 643.34375 301.34375 C 644.08016 306.08042 644.81067 308.5419 644.96875 306.8125 C 645.24638 303.77533 651 300.0192 651 302.875 C 651 303.65021 648.80708 307.49047 646.125 311.4375 C 643.44291 315.38456 641.85422 319.6159 642.59375 320.8125 C 643.36228 322.056 643.09736 322.4475 641.96875 321.75 C 640.88271 321.07879 635.37406 325.56304 629.71875 331.71875 C 624.06343 337.87447 617.46033 343.93999 615.0625 345.1875 C 612.66469 346.43503 611.2241 348.27863 611.84375 349.28125 C 612.55555 350.43295 614.2204 350.41983 616.40625 349.25 C 618.30915 348.23159 620.42904 347.92904 621.09375 348.59375 C 621.75843 349.25845 622.3125 348.70066 622.3125 347.34375 C 622.3125 345.49685 622.95226 345.40444 624.875 347 C 626.28758 348.17234 628.03303 348.52949 628.78125 347.78125 C 629.52946 347.03303 629.57217 347.97679 628.84375 349.875 C 627.80184 352.59015 627.14803 352.7895 625.875 350.78125 C 624.56504 348.71474 624.2737 348.69069 624.25 350.71875 C 624.23389 352.09665 623.36509 352.71304 622.3125 352.0625 C 621.2599 351.41196 620.35905 351.99714 620.34375 353.375 C 620.3204 355.37071 619.99811 355.34967 618.6875 353.28125 C 617.54056 351.47116 616.63131 351.33594 615.71875 352.8125 C 614.99876 353.97747 613.5526 354.90625 612.5 354.90625 C 611.44741 354.90625 611.08191 354.10485 611.6875 353.125 C 612.2931 352.14513 611.91351 350.81739 610.84375 350.15625 C 609.77399 349.49511 608.90625 350.29649 608.90625 351.9375 C 608.90625 355.2614 602.16429 356.06615 600.25 352.96875 C 599.58335 351.89009 599.75732 351.18779 600.625 351.4375 C 603.12866 352.15801 610.8125 347.35608 610.8125 345.0625 C 610.8125 343.59545 610.04067 343.61294 608.21875 345.125 C 606.79738 346.30463 608.15254 342.00012 611.21875 335.5625 C 614.88824 327.85828 616.92024 320.35977 617.15625 313.65625 C 617.50051 303.87769 617.61361 303.68635 620.09375 308.40625 C 622.08759 312.20064 622.15723 313.64851 620.375 314.75 C 618.72275 315.77115 618.67179 316.53198 620.1875 317.46875 C 622.19409 318.70887 622.61333 317.95836 623.0625 312.34375 C 623.16776 311.02801 624.10366 309.30458 625.15625 308.53125 C 626.29309 307.69603 625.95085 307.11095 624.3125 307.09375 C 622.30673 307.07245 622.57961 306.25341 625.28125 304.0625 C 627.32447 302.40557 627.90949 301.58352 626.59375 302.25 C 625.27801 302.91648 624.21875 302.55221 624.21875 301.4375 C 624.21875 300.32278 625.51486 299.40625 627.09375 299.40625 C 628.67264 299.40625 629.9375 298.41553 629.9375 297.1875 C 629.9375 295.95952 630.45083 295.45092 631.0625 296.0625 C 631.67408 296.67407 631.25971 298.91102 630.125 301.03125 C 627.28826 306.33176 625.88926 318.5625 628.125 318.5625 C 629.12943 318.5625 629.9375 317.70884 629.9375 316.65625 C 629.9375 315.60365 630.84787 314.71875 631.9375 314.71875 C 633.26281 314.71875 633.22093 316.02458 631.8125 318.65625 C 630.65438 320.81979 630.11353 323.61761 630.625 324.875 C 631.28256 326.49157 631.61196 326.41326 631.71875 324.625 C 631.80185 323.23408 633.17111 320.82889 634.75 319.25 C 636.32889 317.67111 637.6097 314.48066 637.625 312.1875 C 637.64886 308.79394 638.02126 308.5697 639.53125 310.90625 C 640.86667 312.97266 641.45949 310.82685 641.6875 303.25 L 642 292.71875 z M 573.03125 299.40625 C 574.61014 299.40625 576.83524 300.5653 578 301.96875 C 579.60473 303.90233 579.42525 304.53125 577.25 304.53125 C 575.67111 304.53125 573.44601 303.37222 572.28125 301.96875 C 570.67652 300.0352 570.85598 299.40625 573.03125 299.40625 z M 494.9375 305.5 C 494.91538 305.52039 494.89703 305.5412 494.875 305.5625 C 494.93349 305.69124 494.99705 305.81583 495.0625 305.9375 C 495.01996 305.79558 494.9768 305.6457 494.9375 305.5 z M 633.78125 307.0625 C 634.83384 307.0625 635.6875 308.35861 635.6875 309.9375 C 635.6875 311.51639 634.83384 312.8125 633.78125 312.8125 C 632.72866 312.8125 631.875 311.51639 631.875 309.9375 C 631.875 308.35861 632.72866 307.0625 633.78125 307.0625 z M 541.53125 313.625 C 542.79305 313.49142 543.71024 313.88225 544.53125 314.71875 C 545.73211 315.94226 545.83918 316.76333 544.78125 316.5625 C 540.99693 315.84403 538.09375 316.68732 538.09375 318.5 C 538.09375 319.52916 546.66352 320.57105 557.46875 320.875 C 574.87353 321.36459 577.14058 321.86069 579.59375 325.5625 C 581.48312 328.41352 581.68361 330.08274 580.25 330.96875 C 579.10955 331.67361 578.31813 331.52393 578.46875 330.65625 C 578.61858 329.78857 578.60942 327.79764 578.46875 326.21875 C 578.24124 323.66702 577.99184 323.66702 576.15625 326.21875 C 574.45631 328.58194 574.30885 328.44864 575.28125 325.46875 C 576.18277 322.70608 575.89045 322.30247 574.03125 323.8125 C 572.69141 324.90071 569.85519 326.1796 567.75 326.65625 C 563.72538 327.56753 564.44674 328.10916 573.5 330.9375 C 575.07889 331.43075 576.375 332.89134 576.375 334.1875 C 576.375 336.02048 575.84871 336.03621 574.0625 334.25 C 571.18019 331.36764 568.02998 331.22888 569.78125 334.0625 C 570.49925 335.22428 568.88448 334.7359 566.1875 332.96875 C 562.39205 330.48187 558.99206 330.02576 551.125 331 C 539.29469 332.46502 536.48406 334.39493 539.96875 338.59375 C 542.18679 341.26632 542.70727 341.21725 545.15625 338.1875 C 547.62472 335.13368 547.67197 335.2234 545.78125 339.125 C 544.63356 341.49333 543.09616 343.41965 542.34375 343.40625 C 539.7821 343.35879 534.1958 334.92142 535.125 332.5 C 535.63411 331.17331 535.05563 330.28071 533.84375 330.53125 C 532.63189 330.78177 531.566 328.85024 531.5 326.21875 C 531.4259 323.26349 530.40096 321.63628 528.8125 321.96875 C 527.39809 322.26479 526.58061 321.53943 526.96875 320.375 C 527.35691 319.21056 528.28835 318.33722 529.0625 318.4375 C 529.83666 318.53778 533.13857 317.2523 536.40625 315.5625 C 538.65166 314.40135 540.26945 313.75858 541.53125 313.625 z M 647.28125 313.8125 C 648.1432 313.84669 648.50939 316.13394 648.1875 319.96875 C 647.8554 323.92525 647.4837 328.30963 647.375 329.6875 C 647.26629 331.06534 646.4135 331.72082 645.5 331.15625 C 644.58648 330.59166 643.96973 332.03051 644.09375 334.375 C 644.23166 336.98139 643.33095 338.44653 641.78125 338.125 C 640.38729 337.83578 639.80175 338.52648 640.5 339.65625 C 641.39158 341.09894 642.5871 341.06163 644.46875 339.5 C 645.94229 338.27704 646.67059 336.49582 646.09375 335.5625 C 645.51693 334.62917 645.88822 333.875 646.9375 333.875 C 647.9868 333.875 648.72116 335.58231 648.5625 337.6875 C 648.40392 339.79268 647.32765 341.53125 646.15625 341.53125 C 644.98483 341.53125 642.10499 343.55775 639.78125 346.03125 C 635.82086 350.2469 635.75717 350.67578 638.84375 353.1875 C 641.73113 355.53711 642.00886 355.49788 640.96875 352.71875 C 640.22814 350.73991 641.36077 348.22189 643.96875 346.03125 C 646.26611 344.10158 647.52872 343.27582 646.78125 344.1875 C 646.03379 345.09918 646.65803 348.26109 648.1875 351.21875 C 651.01412 356.68484 650.27847 362.5625 646.75 362.5625 C 645.64354 362.5625 645.84042 361.31703 647.21875 359.65625 C 648.55026 358.05193 649.2138 356.30755 648.6875 355.78125 C 648.16121 355.25496 646.6224 356.134 645.28125 357.75 C 643.10337 360.37419 642.5658 360.35396 640.28125 357.34375 C 638.05804 354.41437 637.70905 354.36852 637.65625 357.03125 C 637.62278 358.71621 638.53973 362.77001 639.6875 366.0625 C 640.83527 369.35498 641.4547 373.01089 641.0625 374.1875 C 640.67031 375.36409 638.74648 370.01419 636.78125 362.28125 C 634.81602 354.54829 631.96818 345.7737 630.46875 342.78125 C 628.96932 339.78881 628.13152 336.96224 628.59375 336.5 C 629.05599 336.03778 630.48861 338.22302 631.78125 341.34375 C 633.35107 345.13364 635.09486 346.63731 637 345.90625 C 639.32359 345.01459 639.36079 344.50573 637.28125 343.1875 C 635.21474 341.87754 635.22194 341.5862 637.25 341.5625 C 638.62794 341.54638 639.26184 340.72985 638.65625 339.75 C 638.05065 338.77013 638.43024 337.41114 639.5 336.75 C 642.07907 335.15608 641.99764 326.21875 639.40625 326.21875 C 638.29154 326.21875 637.93554 325.30307 638.625 324.1875 C 639.41587 322.90787 640.82512 323.43984 642.4375 325.625 C 644.7727 328.78975 644.94613 328.63503 644.4375 323.875 C 644.13133 321.00969 644.60742 319.10461 645.5 319.65625 C 646.39256 320.20788 646.6485 319.43333 646.0625 317.90625 C 645.47651 316.37916 645.83615 314.57954 646.875 313.9375 C 647.01883 313.8486 647.15811 313.80762 647.28125 313.8125 z M 625.28125 321.40625 C 624.45244 321.42133 623.61789 321.80817 623.09375 322.65625 C 622.22886 324.05566 622.52632 324.3841 623.90625 323.53125 C 626.65072 321.83503 626.70299 323.31746 624.09375 328.71875 C 622.14305 332.75684 622.18742 332.77611 625.0625 329.1875 C 626.69947 327.14428 628.03125 324.82055 628.03125 324.03125 C 628.03125 322.37123 626.6626 321.38111 625.28125 321.40625 z M 539.5625 323 C 537.43952 322.99734 538.21429 324.15179 541.21875 327.15625 C 542.93337 328.87086 545.56448 329.77433 547.09375 329.1875 C 548.62299 328.60067 550.85422 328.125 552.03125 328.125 C 556.2385 328.125 550.51377 324.81491 544.3125 323.65625 C 542.10237 323.24331 540.52749 323.00121 539.5625 323 z M 619.15625 323.0625 C 618.86618 323.01858 618.68244 323.70032 618.625 325.09375 C 618.5419 327.11121 618.98904 328.22969 619.625 327.59375 C 620.26086 326.95779 620.3341 325.31902 619.78125 323.9375 C 619.55216 323.36499 619.33029 323.08885 619.15625 323.0625 z M 604.9375 326.84375 C 602.75648 326.88757 602.95697 327.30466 604.375 331 C 605.35079 333.54285 605.92792 333.66133 607.21875 331.625 C 609.55055 327.94651 609.28078 326.84375 606.03125 326.84375 C 605.61913 326.84375 605.24907 326.83749 604.9375 326.84375 z M 600.03125 328.78125 C 599.74118 328.73732 599.52619 329.45032 599.46875 330.84375 C 599.38565 332.86121 599.86404 333.97969 600.5 333.34375 C 601.13586 332.70779 601.17784 331.06901 600.625 329.6875 C 600.3959 329.11499 600.20529 328.80761 600.03125 328.78125 z M 636.9375 328.78125 C 637.00539 328.82899 636.91483 329.02871 636.65625 329.375 C 636.13908 330.06761 636.61717 331.71032 637.6875 333 C 639.04709 334.6382 638.83784 335.61926 637.03125 336.3125 C 634.36928 337.33401 633.71413 331.06936 636.28125 329.125 C 636.64283 328.85113 636.86961 328.73351 636.9375 328.78125 z M 558.40625 331.96875 C 558.80983 331.96875 559.15625 334.11852 559.15625 336.75 C 559.15625 339.38149 558.40663 341.53125 557.5 341.53125 C 556.59339 341.53125 556.24695 339.38149 556.75 336.75 C 557.25304 334.11852 558.00264 331.96875 558.40625 331.96875 z M 561.59375 333.6875 C 561.90174 333.69178 562.41038 335.04606 563.03125 337.6875 C 563.89547 341.36444 564.34693 344.62182 564.03125 344.9375 C 562.95981 346.00895 561.05315 339.32626 561.25 335.15625 C 561.29644 334.17254 561.40895 333.68493 561.59375 333.6875 z M 553.4375 333.875 C 554.63993 333.875 555.29165 334.87503 554.875 336.125 C 554.45834 337.37494 553.08878 338.625 551.8125 338.875 C 550.53624 339.12498 550.35203 338.88102 551.4375 338.34375 C 552.52298 337.80649 552.93873 336.58768 552.34375 335.625 C 551.74878 334.66232 552.23506 333.875 553.4375 333.875 z M 596.9375 336.1875 C 596.50731 336.2107 595.73103 336.71771 594.5625 337.6875 C 592.98361 338.99786 591.6875 340.8263 591.6875 341.75 C 591.6875 344.59273 595.02029 343.61086 596.25 340.40625 C 597.37284 337.48019 597.65448 336.14883 596.9375 336.1875 z M 567.15625 338.09375 C 567.5381 337.95478 568.20421 338.32921 569.0625 339.1875 C 570.30818 340.43308 570.88759 341.89367 570.34375 342.4375 C 569.06649 343.71475 566.78125 341.46075 566.78125 338.90625 C 566.78125 338.45655 566.92714 338.17713 567.15625 338.09375 z M 602.46875 338.1875 C 602.22011 338.08238 601.56222 338.55127 600.34375 339.5625 C 598.74077 340.89286 597.40625 342.32134 597.40625 342.71875 C 597.40625 344.86286 601.00183 342.96389 602.03125 340.28125 C 602.53522 338.96792 602.71739 338.29262 602.46875 338.1875 z M 581.40625 347.9375 C 580.67386 347.94592 580.64355 349.39766 581.34375 352.1875 C 582.4996 356.79273 582.20564 357.30176 578.78125 356.40625 C 576.63748 355.84564 573.71351 356.21066 572.28125 357.21875 C 570.55358 358.43479 573.3555 358.73882 580.65625 358.09375 C 586.70866 357.55899 591.6875 357.50658 591.6875 358 C 591.6875 358.4934 588.00477 360.46414 583.53125 362.375 L 575.40625 365.84375 L 581.875 367.28125 C 586.59661 368.33118 587.64911 369.18369 585.71875 370.40625 C 580.21742 373.89043 586.43336 371.93816 595.5 367.34375 C 600.69297 364.71227 605.61306 362.60975 606.4375 362.65625 C 607.26193 362.70275 604.6403 364.49023 600.59375 366.625 C 596.54718 368.75978 593.65202 370.93329 594.1875 371.46875 C 595.32654 372.60779 602.27118 369.16383 608.40625 364.40625 C 612.0111 361.61079 612.25433 360.86725 609.75 359.90625 C 608.10526 359.2751 604.25759 360.05356 601.21875 361.625 C 594.76435 364.9627 592.92017 365.21983 594.5625 362.5625 C 595.21305 361.5099 594.65964 360.65625 593.34375 360.65625 C 592.01633 360.65625 592.59516 359.37654 594.65625 357.78125 C 598.3138 354.95022 598.33103 354.9192 594.5625 356.21875 C 591.04284 357.43247 590.954 357.26748 593.59375 353.96875 C 596.22522 350.68037 596.14961 350.48498 592.78125 351.75 C 590.54704 352.58909 588.41927 352.18144 587.34375 350.6875 C 586.07581 348.92628 585.88401 349.16185 586.65625 351.5625 C 587.2488 353.40454 586.89454 354.90625 585.875 354.90625 C 584.85544 354.90625 584.03125 353.67302 584.03125 352.15625 C 584.03125 350.63948 583.12602 348.86411 582.03125 348.1875 C 581.78677 348.0364 581.57526 347.93556 581.40625 347.9375 z M 647.1875 351.09375 C 647.08872 350.99497 646.29895 351.55974 644.78125 352.75 C 642.93921 354.19464 641.4375 355.7276 641.4375 356.125 C 641.4375 357.70014 642.99986 356.65667 645.5 353.46875 C 646.69026 351.95104 647.28628 351.19253 647.1875 351.09375 z M 532.59375 351.3125 C 533.74364 351.23458 538.56214 355.94128 541.875 360.59375 C 547.13442 367.97991 543.86456 371.66883 537.96875 365 C 534.62197 361.2144 534.42338 360.66644 537.28125 363.0625 C 542.93526 367.80292 544.42469 367.18562 540.78125 361.625 C 539.06296 359.00255 536.98341 357.27003 536.15625 357.78125 C 534.8428 358.59301 532.34375 354.57903 532.34375 351.65625 C 532.34375 351.43583 532.42948 351.32363 532.59375 351.3125 z M 623.46875 354.90625 C 623.88242 354.90625 624.21875 356.20236 624.21875 357.78125 C 624.21875 359.36014 623.36331 360.65625 622.34375 360.65625 C 621.32421 360.65625 620.98787 359.36014 621.59375 357.78125 C 622.19964 356.20236 623.05506 354.90625 623.46875 354.90625 z M 628.3125 357.59375 C 628.46683 357.58261 628.63453 357.58664 628.8125 357.59375 C 629.0159 357.60188 629.23787 357.62248 629.46875 357.65625 C 631.3158 357.92644 633.09718 359.5699 633.4375 361.3125 C 633.77783 363.05508 633.15924 364.5 632.0625 364.5 C 630.96575 364.5 630.60912 363.06406 631.28125 361.3125 C 632.06765 359.26322 631.76196 358.56837 630.40625 359.40625 C 629.2475 360.12238 627.82279 359.91486 627.21875 358.9375 C 626.75628 358.18921 627.2322 357.67173 628.3125 357.59375 z M 590.625 361.4375 C 591.17334 361.39357 591.26292 361.69677 590.84375 362.375 C 590.12831 363.5326 590.51066 364.5 591.6875 364.5 C 592.86434 364.5 593.27554 365.35365 592.625 366.40625 C 591.97446 367.45884 590.58384 368.3125 589.53125 368.3125 C 588.47865 368.3125 588.21728 367.35286 588.9375 366.1875 C 589.83615 364.73347 588.80694 364.50825 585.6875 365.46875 C 580.40469 367.09541 581.14674 366.0154 587.59375 362.65625 C 589.05576 361.89448 590.07666 361.48143 590.625 361.4375 z M 529.15625 362.15625 C 530.75039 362.19168 533.42524 364.23744 537 368.1875 C 539.58943 371.0488 540.09417 372.84334 538.65625 374.28125 C 537.21833 375.71921 536.23455 375.67943 535.3125 374.1875 C 534.59467 373.02597 533.25088 372.53312 532.34375 373.09375 C 530.14821 374.45067 527.62382 370.26544 527.5 365.09375 C 527.45684 363.29045 527.91699 362.33562 528.84375 362.1875 C 528.94029 362.17207 529.04997 362.15389 529.15625 362.15625 z M 622.84375 363.25 C 623.01875 363.07582 623.46258 364.49447 624.3125 367.3125 C 625.25727 370.44505 625.38704 373.61652 624.625 374.375 C 623.86296 375.1335 623.08902 372.57854 622.90625 368.6875 C 622.74187 365.18715 622.66875 363.42418 622.84375 363.25 z M 662.4375 366.40625 C 663.45705 366.40625 663.79337 367.70237 663.1875 369.28125 C 662.58161 370.86014 661.72619 372.15625 661.3125 372.15625 C 660.89883 372.15625 660.5625 370.86014 660.5625 369.28125 C 660.5625 367.70237 661.41794 366.40625 662.4375 366.40625 z M 529.78125 366.46875 C 528.85746 366.4407 528.46518 367.17679 529 368.78125 C 529.43859 370.09699 530.7347 371.1875 531.875 371.1875 C 533.0153 371.1875 534.58555 371.83556 535.375 372.625 C 538.57163 375.82156 538.43945 373.7776 535.21875 370.21875 C 533.04058 367.81191 530.96897 366.50482 529.78125 366.46875 z M 657.4375 368.96875 C 657.61155 368.9951 657.8334 369.30249 658.0625 369.875 C 658.61541 371.25652 658.54219 372.89529 657.90625 373.53125 C 657.27029 374.16719 656.82315 373.04871 656.90625 371.03125 C 656.96364 369.63783 657.14742 368.92483 657.4375 368.96875 z M 520.03125 372.15625 C 520.49542 372.15625 520.875 373.00991 520.875 374.0625 C 520.875 375.11509 519.95846 375.96875 518.84375 375.96875 C 517.72903 375.96875 517.34948 375.11509 518 374.0625 C 518.65054 373.00991 519.56707 372.15625 520.03125 372.15625 z M 646.09375 372.78125 C 646.39932 372.751 646.79278 372.84979 647.1875 373.09375 C 648.24009 373.74429 649.09375 374.66083 649.09375 375.125 C 649.09375 375.58918 648.24009 375.96875 647.1875 375.96875 C 646.1349 375.96875 645.25 375.05221 645.25 373.9375 C 645.25 373.2408 645.58446 372.83166 646.09375 372.78125 z M 630.1875 383.09375 C 563.58446 383.12073 474.26043 383.83496 473.1875 384.8125 C 472.74892 385.21209 523.72615 385.53125 586.46875 385.53125 C 649.21133 385.53125 701.00051 384.78433 701.5625 383.875 C 701.92428 383.28962 670.14932 383.07756 630.1875 383.09375 z M 646.90625 450.125 C 627.45995 450.15475 601.33438 450.2391 566.3125 450.34375 C 498.68277 450.54583 473.03125 451.19043 473.03125 452.75 C 473.03125 455.13991 699.60121 454.30504 702 451.90625 C 703.52157 450.38467 705.24514 450.03575 646.90625 450.125 z M 654.375 457.46875 C 638.19723 457.49883 616.7377 457.63128 588.40625 457.84375 C 525.47036 458.31574 473.68104 458.97697 473.3125 459.3125 C 472.94394 459.64801 473.21274 460.84663 473.90625 461.96875 C 474.78336 463.38799 509.63735 463.79755 588.4375 463.34375 C 686.99743 462.77615 701.79619 462.32865 702.28125 459.84375 C 702.58797 458.27236 697.38651 457.57535 668.84375 457.46875 C 664.56233 457.45276 659.76759 457.45872 654.375 457.46875 z "
     id="path3048" />
  <text
     xml:space="preserve"
     style="font-size:58.07068253px;font-style:normal;font-weight:bold;line-height:125%;letter-spacing:0px;word-spacing:0px;fill:#000000;fill-opacity:1;stroke:none;font-family:Times New Roman;-inkscape-font-specification:Sans Bold"
     x="496.42627"
     y="435.52011"
     id="text3187"
     sodipodi:linespacing="125%"><tspan
       sodipodi:role="line"
       id="tspan3189"
       x="496.42627"
       y="435.52011">!</tspan></text>
  <text
     xml:space="preserve"
     style="font-size:53.15622711px;font-style:normal;font-weight:bold;line-height:125%;letter-spacing:0px;word-spacing:0px;fill:#000000;fill-opacity:1;stroke:none;font-family:Times New Roman;-inkscape-font-specification:Sans Bold"
     x="625.2262"
     y="62.006058"
     id="text3206"
     sodipodi:linespacing="125%"
     transform="scale(0.75249889,1.3289056)"><tspan
       sodipodi:role="line"
       id="tspan3208"
       x="625.2262"
       y="62.006058">  </tspan></text>
  <g
     id="g4047">
    <g
       transform="matrix(0.59564871,0,0,1,1.4632931,0.02258974)"
       id="g3320">
      <path
         style="fill:#750787"
         d="M 0 480 C 282.625 427.39583 565.25 374.79167 847.875 322.1875 C 811.65618 313.04918 770.92188 320.44327 738.03607 299.6931 C 695.29419 273.84182 656.95151 239.172 608.37858 224.26836 C 405.58572 149.51224 202.79286 74.756121 0 0 C 0 160 0 320 0 480 z "
         id="rect3286" />
      <path
         style="fill:#004dff"
         d="M 0 400 C 281.33333 374.1875 562.66667 348.375 844 322.5625 C 809.34746 312.98184 769.87098 319.94861 738.71185 299.06993 C 685.87824 265.90752 636.14637 225.28729 575.43882 207.1458 C 383.49809 138.46955 191.84125 68.967095 0 0 C 0 133.33333 0 266.66667 0 400 z "
         id="rect3288" />
      <path
         style="fill:#008026"
         d="M 0 320 C 279.94792 321.05208 559.89583 322.10417 839.84375 323.15625 C 805.95318 312.76878 766.75665 319.23587 736.59856 297.74103 C 693.93641 274.81829 652.75726 248.25913 606.66104 232.50648 C 404.44069 155.00432 202.22035 77.502161 0 0 C 0 106.66667 0 213.33333 0 320 z "
         id="rect3290" />
      <path
         style="fill:#ffed00"
         d="M 0 240 C 278.01042 268.04167 556.02083 296.08333 834.03125 324.125 C 801.77445 312.32575 763.29662 317.97859 735.28125 295.3125 C 673.359 267.56036 611.57408 239.40216 548.05019 215.44501 C 365.39007 143.57086 182.68244 71.817432 0 0 C 0 80 0 160 0 240 z "
         id="rect3292" />
      <path
         style="fill:#ff8c00"
         d="M 0 160 C 276.51042 214.59375 553.02083 269.1875 829.53125 323.78125 C 798.35029 312.15638 761.22574 316.78477 734.15661 294.82396 C 489.43774 196.54931 244.71887 98.274653 0 0 C 0 53.333333 0 106.66667 0 160 z "
         id="rect3294" />
      <path
         style="fill:#e40303"
         d="M 0 80 C 250.34375 154.95833 500.6875 229.91667 751.03125 304.875 C 705.95581 280.87436 681.16411 229.75654 632.39944 211.46746 C 421.73683 140.57464 210.79778 70.494175 0 0 C 0 26.666667 0 53.333333 0 80 z M 825.6875 323.4375 C 806.54774 315.35102 785.48712 314.73228 765.375 310.5625 C 785.47917 314.85417 805.58333 319.14583 825.6875 323.4375 z "
         id="rect3296" />
    </g>
  </g>
</svg>
